<?xml version="1.0" encoding="UTF-8" standalone="no"?>
<svg
   xmlns:dc="http://purl.org/dc/elements/1.1/"
   xmlns:cc="http://creativecommons.org/ns#"
   xmlns:rdf="http://www.w3.org/1999/02/22-rdf-syntax-ns#"
   xmlns:svg="http://www.w3.org/2000/svg"
   xmlns="http://www.w3.org/2000/svg"
   xmlns:sodipodi="http://sodipodi.sourceforge.net/DTD/sodipodi-0.dtd"
   xmlns:inkscape="http://www.inkscape.org/namespaces/inkscape"
   id="svg"
   width="400"
   height="400"
   viewBox="0, 0, 400, 400"
   version="1.1"
   sodipodi:docname="logo.svg"
   inkscape:version="0.92.4 (5da689c313, 2019-01-14)">
  <metadata
     id="metadata26">
    <rdf:RDF>
      <cc:Work
         rdf:about="">
        <dc:format>image/svg+xml</dc:format>
        <dc:type
           rdf:resource="http://purl.org/dc/dcmitype/StillImage" />
        <dc:title></dc:title>
      </cc:Work>
    </rdf:RDF>
  </metadata>
  <defs
     id="defs24">
    <inkscape:perspective
       sodipodi:type="inkscape:persp3d"
       inkscape:vp_x="0 : 200 : 1"
       inkscape:vp_y="0 : 1000 : 0"
       inkscape:vp_z="400 : 200 : 1"
       inkscape:persp3d-origin="200 : 133.33333 : 1"
       id="perspective4568" />
  </defs>
  <sodipodi:namedview
     pagecolor="#ffffff"
     bordercolor="#666666"
     borderopacity="1"
     objecttolerance="10"
     gridtolerance="10"
     guidetolerance="10"
     inkscape:pageopacity="0"
     inkscape:pageshadow="2"
     inkscape:window-width="1920"
     inkscape:window-height="1048"
     id="namedview22"
     showgrid="false"
     inkscape:snap-grids="false"
     inkscape:snap-to-guides="false"
     inkscape:zoom="2"
     inkscape:cx="180.05933"
     inkscape:cy="203.10573"
     inkscape:window-x="-10"
     inkscape:window-y="-10"
     inkscape:window-maximized="1"
     inkscape:current-layer="svg" />
  <g
     id="svgg"
     transform="matrix(1.1915607,0,0,1.1680865,-6.888033,-26.965102)">
    <path
       id="path0"
       d="M 191.54533,28.018791 C 77.705095,41.237717 10.438998,85.242164 7.878887,194.95755 c -0.1128124,87.35261 82.410014,159.983 172.905023,168.207 109.5983,6.17846 162.42097,-118.5667 158.3772,-242.7287 -12.567,-99.235007 -31.92288,-99.886444 -147.61578,-92.417059"
       inkscape:connector-curvature="0"
       style="fill:#603CBE;fill-rule:evenodd;stroke:none"
       sodipodi:nodetypes="ccccc" />
  </g>
  <path
     style="fill:#ffffff;stroke-width:0.59935826"
     d="m 262.36545,319.82202 c -0.81347,-0.14234 -3.34266,-0.56651 -5.6204,-0.94261 -10.4057,-1.7182 -20.80534,-7.14735 -28.91371,-15.09444 -11.56097,-11.33099 -18.70401,-26.14565 -58.63426,-121.60615 -10.02278,-23.96134 -18.41379,-43.56608 -18.64665,-43.56608 -0.23286,0 -1.69214,2.80066 -3.24279,6.22371 -2.56349,5.65874 -42.45526,96.56134 -52.09314,118.70619 l -4.029964,9.2597 h -16.23229 c -12.746376,0 -16.169888,-0.16298 -15.941732,-0.75898 0.385507,-1.00698 66.401506,-146.4338 80.622686,-177.603896 6.13274,-13.441725 11.30533,-24.439469 11.49471,-24.439469 0.18936,0 0.63482,0.751396 0.9899,1.669779 0.93334,2.414129 29.36108,68.722546 39.11237,91.230666 27.95768,64.53256 43.31264,97.79127 49.89862,108.08033 2.03079,3.17259 5.84273,7.98171 8.47103,10.68694 5.92403,6.0975 9.09018,7.5387 17.49862,7.96523 15.23019,0.77259 26.38575,-6.03947 30.54505,-18.65217 1.48906,-4.5155 1.4718,-15.36269 -0.0313,-19.73376 -3.47945,-10.11767 -10.22883,-15.22753 -33.60972,-25.4455 -18.30219,-7.9985 -24.56073,-11.70946 -31.72825,-18.8131 -9.94819,-9.8595 -14.4678,-20.41585 -14.45648,-33.76568 0.01,-13.57958 5.18275,-25.3913 15.48206,-35.36279 15.56964,-15.07409 41.7807,-19.66961 62.13272,-10.8936 10.72627,4.6253 21.36344,14.55746 28.01751,26.16057 l 1.5334,2.67391 -12.20853,7.44462 -12.20852,7.44462 -2.80209,-4.48852 c -5.94834,-9.52855 -11.80332,-13.43946 -21.00881,-14.03314 -9.02075,-0.58176 -16.82488,1.90141 -22.3231,7.10286 -4.05996,3.84082 -5.97354,8.32386 -5.95509,13.95147 0.0353,10.84594 6.04048,16.13958 29.27048,25.80298 16.12945,6.70966 29.11118,14.20459 36.27282,20.94192 6.46574,6.08256 11.06899,14.29872 13.783,24.60025 1.69471,6.43304 1.56341,23.62561 -0.23128,30.25555 -6.23182,23.02235 -22.73444,38.95434 -45.38734,43.81799 -4.57439,0.98215 -16.7936,1.71 -19.81942,1.1806 z"
     id="path28"
     inkscape:connector-curvature="0" />
</svg>
