<?xml version="1.0" encoding="UTF-8"?>
<svg viewBox="0 0 1600 464" xmlns="http://www.w3.org/2000/svg">
<path d="m965.89 361.84c-24.386-5.0872-44.73-20.529-55.116-41.836-7.5418-15.472-9.629-24.376-10.471-44.667-2.1584-52.033 20.232-89.867 59.191-100.01 10.394-2.7073 35.055-2.6287 44.487 0.14172 23.995 7.0479 41.079 24.565 49.29 50.539 2.2417 7.0913 3.1074 13.817 3.6036 28 0.6026 17.222 0.4539 18.846-1.9215 20.986-2.3482 2.1149-7.6088 2.3494-59.819 2.6667l-57.244 0.34784-0.42676 4.4533c-0.52929 5.5233 4.234 21.572 8.3272 28.056 11.278 17.865 33.116 24.625 63.266 19.584 7.4437-1.2447 17.832-3.7247 23.084-5.5112s10.611-3.2482 11.908-3.2482c4.4021 0 6.5087 5.2268 6.5087 16.149 0 12.727-1.3081 14.456-14.45 19.093-20.476 7.2246-50.145 9.4474-70.216 5.2605zm53.238-116.35c1.2911-2.0891-2.0474-16.525-5.3113-22.966-6.5592-12.944-19.988-19.518-36.96-18.095-11.676 0.97888-19.331 4.6966-26.819 13.024-5.844 6.5-11.481 19.335-11.481 26.141v3.0744h39.921c21.957 0 40.249-0.53053 40.65-1.179zm264.1 117.15c-20.919-4.1989-35.101-16.051-41.446-34.637-3.6439-10.674-3.3261-30.052 0.6614-40.329 9.5554-24.626 42.359-39.631 86.75-39.683 5.5192-7e-3 13.254-0.39812 17.188-0.87055l7.1534-0.85896-0.5492-11.486c-0.6936-14.508-4.2697-21.807-13.108-26.756-5.3726-3.0082-7.4122-3.3407-19.983-3.2585-12.669 0.0829-15.331 0.56643-28 5.087-18.224 6.5025-21.488 7.0337-24.155 3.9316-2.935-3.4129-9.4609-20.45-8.6464-22.572 1.6281-4.2428 24.203-12.801 41.976-15.914 20.088-3.518 40.054-2.1978 55.492 3.6693 11.012 4.1852 23.146 16.13 27.08 26.658 4.9945 13.367 5.5665 22.33 5.5769 87.382 0.012 74.299 1.3935 68.333-15.827 68.333-11.742 0-12.678-0.57664-14.06-8.6667-2.0566-12.032-2.5131-12.216-11.232-4.5298-8.0044 7.0569-14.069 10.093-26.526 13.279-10.538 2.695-28.202 3.2579-38.346 1.2218zm43.39-33.148c16.181-6.1478 24.995-19.854 26.246-40.813 0.6748-11.31 0.5053-12.706-1.6431-13.53-4.2066-1.6142-42.176 1.918-51.397 4.7814-16.552 5.1398-23.929 13.731-23.929 27.87 0 11.976 5.1278 19.789 15.54 23.679 7.2031 2.691 25.607 1.6521 35.183-1.986zm147.94 33.622c-18.027-2.8392-33.915-8.0326-37-12.094-1.0388-1.3676-1.6667-6.5836-1.6667-13.844 0-16.746 2.5967-18.676 17.04-12.668 14.891 6.1941 25.175 8.1096 43.626 8.1256 15.974 0.0139 17.926-0.26186 24.887-3.516 8.6693-4.0525 11.841-8.0913 12.761-16.247 1.4071-12.483-6.2662-18.848-38.81-32.194-36.939-15.148-48.489-22.91-55.568-37.341-2.8217-5.7526-3.2642-8.4949-3.2274-20 0.037-11.74 0.4592-14.13 3.5277-20 7.0849-13.553 20.981-23.406 39.646-28.11 12.529-3.1579 47.457-2.0572 61.838 1.9486 24.829 6.9162 25.744 8.1396 18.638 24.926-2.6813 6.3343-5.608 11.798-6.5036 12.142-0.8957 0.34368-7.2752-1.1839-14.177-3.3947-17.138-5.4898-28.801-7.3183-41.562-6.5161-18.456 1.1602-27.451 6.8971-27.451 17.508 0 11.411 6.0659 15.814 40.667 29.517 26.655 10.556 38.059 16.853 45.868 25.325 7.4984 8.1348 10.86 16.085 11.741 27.765 2.8204 37.412-25.812 59.89-75.609 59.357-8.4334-0.0903-16.833-0.4003-18.667-0.68904zm-801.33-4.4452c-2.6281-2.6281-2.6667-4.4444-2.6667-125.7 0-109.2 0.23342-123.37 2.0756-126 1.9162-2.7357 3.1293-2.9633 15.793-2.9633 11.596 0 14.059 0.3771 15.924 2.4383 1.9799 2.1878 2.2067 8.2167 2.2067 58.667 0 34.644 0.48648 56.228 1.2673 56.228 0.69702 0 27.495-26.4 59.55-58.667l58.283-58.667h18.974c20.011 0 20.592 0.18192 20.592 6.4495 0 1.2273-21.005 23.228-46.679 48.891-25.673 25.663-46.405 47.376-46.071 48.251 0.33447 0.87557 12.745 19.176 27.579 40.667 14.834 21.491 36.25 52.575 47.592 69.075 11.342 16.5 21.437 30.947 22.433 32.105 2.4202 2.8115 2.2927 7.2238-0.2832 9.7998-1.6768 1.6768-5.3584 2.0952-18.434 2.0952-15.241 0-16.524-0.20155-19.086-3-1.5109-1.65-10.838-15-20.727-29.667s-28.287-41.967-40.885-60.667c-12.598-18.7-23.721-34-24.718-34-0.99746 0-10.268 8.2834-20.6 18.408l-18.787 18.408v42.592c0 51.498 1.3415 47.926-18 47.926-10.889 0-13.041-0.37427-15.333-2.6667zm435.27-0.60607-3.2727-3.2727v-172.24l3.2727-3.2727c2.962-2.962 4.3501-3.2727 14.62-3.2727 13.212 0 13.281 0.0625 14.594 13.225 0.4695 4.7073 1.1496 8.8548 1.5115 9.2167 0.3619 0.36191 4.5233-3.0536 9.2474-7.59 5.3744-5.1607 11.989-9.8583 17.672-12.55 8.907-4.2188 9.4493-4.302 28.016-4.302 12.817 0 19.444 0.51052 20.514 1.5803 1.2182 1.2182 1.1759 4.5258-0.1845 14.434-2.2492 16.382-3.9925 18.217-15.532 16.353-16.296-2.6334-32.765 2.8504-42.664 14.206-6.2721 7.1946-12.178 19.885-13.765 29.577-0.707 4.3172-1.289 30.165-1.2932 57.44l-0.01 49.591-2.9634 2.0756c-2.1384 1.4978-6.2379 2.0756-14.727 2.0756-10.712 0-12.056-0.29256-15.037-3.2727z" fill="rgba(255,255,255,0.8)"/>
<rect x="43.812" y="33.615" width="360.8" height="402.04" fill="rgba(255,255,255,0.8)"/>
<g transform="translate(0 .99237)">
<path d="m0 232v-224.01l455.33 0.67431v446.67l-455.33 0.6743zm163.9 125.82c2.664-3.3868 2.7634-5.0374 2.7634-45.888v-42.375l18.955-18.127c10.425-9.97 19.575-17.938 20.333-17.707 1.3444 0.40993 10.786 14.126 60.045 87.237 13.2 19.591 25.05 36.69 26.333 37.997 3.3423 3.4042 33.502 3.5419 37.228 0.16989 4.467-4.0426 5.8641-1.4694-25.036-46.114-65.988-95.339-72.627-105.26-71.925-107.47 0.4079-1.2852 21.151-22.348 46.095-46.806 25.381-24.887 45.702-45.857 46.145-47.62 1.5683-6.2488-0.95116-7.1159-20.676-7.1159h-18.176l-58.655 58.667c-32.26 32.267-59.108 58.667-59.661 58.667-0.55312 0-1.0145-24.75-1.0253-55-0.0149-41.61-0.42949-55.812-1.7031-58.333-1.6162-3.2002-2.249-3.3484-15.841-3.7104-11.567-0.30804-14.549 0.0144-16.297 1.7619-1.9325 1.9325-2.1389 14.155-2.1389 126.63v124.5l2.9633 2.0756c2.161 1.5136 6.2863 2.0756 15.237 2.0756 11.671 0 12.409-0.17243 15.037-3.5132z" fill="#cf0202"/>
</g>
</svg>
