<?xml version="1.0" encoding="UTF-8"?>
<svg viewBox="35 29 821 168" xmlns="http://www.w3.org/2000/svg">
<g stroke-linejoin="round" stroke-miterlimit="1e5">
<g transform="matrix(1 0 -.074359 1 0 0)" fill="rgba(255,255,255,0.8)" font-family="Sans" font-size="191.66px" stroke-width="1px" text-anchor="middle">
<path d="m180.56 157.53q0 0.93585-0.56151 1.6846-0.56152 0.65511-1.8718 1.123-1.3102 0.46793-3.5563 0.65511-2.2461 0.28076-5.7088 0.28076-3.5563 0-5.8024-0.28076-2.2461-0.18718-3.6499-0.65511-1.3102-0.46794-1.8718-1.123-0.46793-0.7487-0.46793-1.6846v-49.507q0-4.2114-0.84228-7.6741-0.74869-3.4627-2.4333-5.896-1.591-2.5268-4.1178-3.8371-2.4333-1.4038-5.896-1.4038-4.2114 0-8.5164 3.2755t-9.3587 9.5459v55.497q0 0.93585-0.56153 1.6846-0.56152 0.65511-1.9653 1.123-1.3102 0.46793-3.5563 0.65511-2.2461 0.28076-5.6152 0.28076-3.4627 0-5.7088-0.28076-2.2461-0.18718-3.6499-0.65511-1.3102-0.46794-1.8717-1.123-0.56152-0.7487-0.56152-1.6846v-49.507q0-4.2114-0.84228-7.6741-0.74869-3.4627-2.3397-5.896-1.591-2.5268-4.1178-3.8371-2.5269-1.4038-5.896-1.4038-4.305 0-8.61 3.2755t-9.2651 9.5459v55.497q0 0.93585-0.56152 1.6846-0.56152 0.65511-1.9653 1.123-1.3102 0.46793-3.5563 0.65511-2.2461 0.28076-5.7088 0.28076t-5.7088-0.28076q-2.2461-0.18718-3.6499-0.65511-1.3102-0.46794-1.8717-1.123-0.56152-0.7487-0.56152-1.6846v-83.479q0-0.93586 0.46793-1.591 0.46794-0.7487 1.6846-1.2166 1.2166-0.46794 3.0884-0.65511 1.9653-0.28076 4.8665-0.28076 2.9948 0 4.9601 0.28076 1.9653 0.18717 2.9948 0.65511 1.1231 0.46793 1.591 1.2166 0.46793 0.65511 0.46793 1.591v9.6394q6.9254-7.4869 13.757-11.23 6.9254-3.7435 14.412-3.7435 5.1473 0 9.2651 1.1231 4.1178 1.0294 7.2998 3.0884 3.2755 1.9653 5.6152 4.7729t3.9306 6.2703q3.7435-4.0242 7.2998-6.9254 3.6499-2.9012 7.1126-4.6793 3.5563-1.8717 7.019-2.714 3.5563-0.93588 7.2062-0.93588 8.3292 0 14.038 2.8076t9.1715 7.6741q3.5563 4.7729 5.0537 11.23 1.4974 6.4575 1.4974 13.664v53.438z"/>
<path d="m274.99 157.81q0 1.3102-0.93588 2.0589-0.93585 0.7487-2.9948 1.0294-1.9653 0.37436-5.896 0.37436-4.2114 0-6.1767-0.37436-1.8717-0.28075-2.714-1.0294-0.74869-0.74869-0.74869-2.0589v-6.6447q-5.1473 5.5216-11.792 8.61-6.5511 3.0884-14.6 3.0884-6.6447 0-12.26-1.7781-5.5216-1.6846-9.6394-5.0537-4.0242-3.4627-6.2703-8.5164t-2.2461-11.792q0-7.2998 2.8076-12.634 2.9012-5.428 8.5164-8.8907 5.7088-3.5563 14.132-5.2409 8.4228-1.6846 19.56-1.6846h8.1421v-5.0537q0-3.9306-0.84228-6.8318-0.74869-2.9948-2.6204-4.9601-1.7781-1.9653-4.8665-2.9012-2.9948-0.93587-7.4869-0.93587-5.896 0-10.575 1.3102-4.5858 1.3102-8.1421 2.9012t-5.9895 2.9012q-2.3397 1.3102-3.8371 1.3102-1.0294 0-1.8717-0.65511-0.7487-0.65511-1.3102-1.8717-0.46793-1.2166-0.74869-2.9948t-0.28076-3.9306q0-2.9012 0.46793-4.5858 0.46794-1.6846 1.7782-2.9948 1.3102-1.4038 4.5858-2.9948 3.2755-1.6846 7.6741-3.0884t9.5459-2.2461q5.2409-0.93588 10.762-0.93588 9.8266 0 16.752 1.9653 7.019 1.8717 11.511 5.896 4.4922 3.9306 6.5511 10.201 2.0589 6.2703 2.0589 14.88v56.152zm-23.116-35.75h-8.9843q-5.7088 0-9.733 0.84228t-6.5511 2.5268q-2.5268 1.6846-3.7435 4.1178-1.123 2.3397-1.123 5.428 0 5.2409 3.2755 8.2357 3.3691 2.9948 9.2651 2.9948 4.9601 0 9.0779-2.5269 4.2114-2.5268 8.5164-7.3934v-14.225z"/>
<path d="m346.12 149.29q0 4.1178-0.56152 6.3639-0.46793 2.1525-1.3102 3.0884-0.84228 0.8423-2.5269 1.591-1.591 0.65511-3.837 1.123-2.1525 0.56152-4.7729 0.84228-2.5269 0.28076-5.1473 0.28076-7.019 0-12.166-1.7782t-8.5164-5.428q-3.3691-3.7435-4.9601-9.3587t-1.591-13.289v-42.769h-10.014q-1.7782 0-2.714-2.1525-0.93588-2.2461-0.93588-7.3934 0-2.714 0.18716-4.5857 0.28076-1.8717 0.74872-2.9012 0.46793-1.123 1.123-1.591 0.74869-0.46794 1.6845-0.46794h9.9202v-18.624q0-0.93587 0.46793-1.6846 0.56152-0.7487 1.8717-1.2166 1.4038-0.56152 3.6499-0.7487 2.3397-0.28076 5.7088-0.28076 3.4627 0 5.7088 0.28076 2.3397 0.18718 3.6499 0.7487 1.3102 0.46793 1.8717 1.2166 0.56152 0.74869 0.56152 1.6846v18.624h18.156q0.93585 0 1.591 0.46794 0.74869 0.46793 1.2166 1.591 0.46796 1.0295 0.65512 2.9012 0.28076 1.8717 0.28076 4.5857 0 5.1473-0.93588 7.3934-0.93585 2.1525-2.714 2.1525h-18.249v39.213q0 6.8318 2.1525 10.295 2.1525 3.3691 7.6741 3.3691 1.8717 0 3.3691-0.28076 1.4974-0.37436 2.6204-0.7487 1.2166-0.46793 1.9653-0.74869 0.84228-0.37436 1.4974-0.37436 0.56149 0 1.0294 0.37436 0.56152 0.28076 0.84228 1.3102 0.28076 0.93587 0.46793 2.6204 0.28076 1.6846 0.28076 4.305z"/>
<path d="m447.38 114.57q0 11.137-2.4333 20.121-2.3397 8.8907-6.9254 15.161t-11.418 9.6394-15.629 3.3691q-3.6499 0-6.7383-0.74869-2.9948-0.65512-5.896-2.0589-2.8076-1.4974-5.6152-3.6499t-5.8024-5.0537v39.306q0 0.93588-0.56152 1.6846-0.56149 0.7487-1.9653 1.2166-1.3102 0.56152-3.5563 0.84228t-5.7088 0.28076q-3.4627 0-5.7088-0.28076t-3.6499-0.84228q-1.3102-0.46793-1.8717-1.2166-0.56152-0.74869-0.56152-1.6846v-116.61q0-0.93587 0.46796-1.591 0.46793-0.7487 1.591-1.2166 1.2166-0.46793 3.0883-0.65511 1.9653-0.28076 4.8665-0.28076 2.8076 0 4.6793 0.28076 1.9653 0.18718 3.0884 0.65511 1.2166 0.46793 1.6846 1.2166 0.46793 0.65511 0.46793 1.591v9.8266q3.6499-3.7435 7.1126-6.5511 3.5563-2.9012 7.2062-4.7729 3.6499-1.9653 7.4869-2.9012 3.9307-0.93587 8.3292-0.93587 9.1715 0 15.629 3.6499 6.4575 3.5563 10.482 9.8266 4.1178 6.2703 5.9896 14.6 1.8717 8.3292 1.8717 17.782v8e-6zm-24.52 1.6846q0-5.3344-0.84226-10.201-0.74869-4.9601-2.714-8.7972-1.8718-3.8371-5.0537-6.0832-3.0883-2.3397-7.7677-2.3397-2.3397 0-4.6794 0.7487-2.2461 0.6551-4.6793 2.2461-2.3397 1.591-4.8665 4.1178-2.5269 2.5268-5.3345 6.2703v27.515q4.9601 6.2703 9.4523 9.733 4.4922 3.3691 9.3587 3.3691 4.5858 0 7.7677-2.3397 3.2755-2.3397 5.3344-6.0832 2.0589-3.8371 2.9948-8.61 1.0294-4.7729 1.0294-9.5459z"/>
<path d="m489.87 157.53q0 0.93585-0.56152 1.6846-0.56152 0.65511-1.9653 1.123-1.3102 0.46793-3.5563 0.65511-2.2461 0.28076-5.7088 0.28076t-5.7088-0.28076q-2.2461-0.18718-3.6499-0.65511-1.3102-0.46794-1.8717-1.123-0.56152-0.7487-0.56152-1.6846v-123.07q0-0.93586 0.56152-1.6846 0.56152-0.74869 1.8717-1.2166 1.4038-0.56152 3.6499-0.84228t5.7088-0.28076 5.7088 0.28076 3.5563 0.84228q1.4038 0.46794 1.9653 1.2166 0.56152 0.7487 0.56152 1.6846v123.07z"/>
<path d="m597.86 114.95q0 10.669-2.8076 19.466-2.8076 8.7972-8.5164 15.161-5.7088 6.3639-14.319 9.8266-8.61 3.4627-20.121 3.4627-11.137 0-19.372-3.0884t-13.664-8.9843q-5.428-5.896-8.0485-14.506t-2.6205-19.653q0-10.669 2.8076-19.466 2.9012-8.8907 8.61-15.161 5.7088-6.3639 14.225-9.8266 8.61-3.4627 20.121-3.4627 11.23 0 19.466 3.0884 8.2357 2.9948 13.57 8.8908 5.428 5.896 8.0485 14.506 2.6204 8.61 2.6204 19.747zm-24.239 0.93586q0-6.1767-1.0294-11.324-0.93591-5.2409-3.2756-9.0779-2.3397-3.8371-6.2703-5.9896-3.837-2.1525-9.733-2.1525-5.2408 0-9.1715 1.9653-3.9307 1.8717-6.4575 5.6152-2.5269 3.6499-3.8371 8.8907-1.2166 5.1473-1.2166 11.792 0 6.1767 1.0294 11.418 1.0295 5.1473 3.2756 8.9843 2.3397 3.8371 6.2703 5.9896 3.9307 2.0589 9.733 2.0589 5.3345 0 9.2651-1.8717 3.9307-1.9653 6.4575-5.6152 2.5269-3.6499 3.7435-8.7972 1.2166-5.2409 1.2166-11.886z"/>
<path d="m665.81 149.29q0 4.1178-0.56152 6.3639-0.46796 2.1525-1.3102 3.0884-0.84228 0.8423-2.5268 1.591-1.591 0.65511-3.8371 1.123-2.1525 0.56152-4.7729 0.84228-2.5269 0.28076-5.1473 0.28076-7.019 0-12.166-1.7782t-8.5164-5.428q-3.3691-3.7435-4.9601-9.3587t-1.591-13.289v-42.769h-10.014q-1.7781 0-2.714-2.1525-0.93585-2.2461-0.93585-7.3934 0-2.714 0.18713-4.5857 0.28076-1.8717 0.74872-2.9012 0.46796-1.123 1.123-1.591 0.74866-0.46794 1.6846-0.46794h9.9202v-18.624q0-0.93587 0.46796-1.6846 0.56152-0.7487 1.8718-1.2166 1.4037-0.56152 3.6498-0.7487 2.3397-0.28076 5.7088-0.28076 3.4627 0 5.7088 0.28076 2.3397 0.18718 3.6499 0.7487 1.3102 0.46793 1.8717 1.2166 0.56152 0.74869 0.56152 1.6846v18.624h18.156q0.93585 0 1.5909 0.46794 0.74872 0.46793 1.2167 1.591 0.4679 1.0295 0.65509 2.9012 0.28076 1.8717 0.28076 4.5857 0 5.1473-0.93585 7.3934-0.93591 2.1525-2.714 2.1525h-18.249v39.213q0 6.8318 2.1525 10.295 2.1525 3.3691 7.6741 3.3691 1.8717 0 3.3691-0.28076 1.4974-0.37436 2.6205-0.7487 1.2166-0.46793 1.9653-0.74869 0.84222-0.37436 1.4974-0.37436 0.56152 0 1.0294 0.37436 0.56152 0.28076 0.84228 1.3102 0.28076 0.93587 0.46796 2.6204 0.28076 1.6846 0.28076 4.305z"/>
<path d="m706.61 157.53q0 0.93585-0.56152 1.6846-0.56152 0.65511-1.9653 1.123-1.3102 0.46793-3.5563 0.65511-2.2461 0.28076-5.7088 0.28076t-5.7088-0.28076q-2.2461-0.18718-3.6499-0.65511-1.3102-0.46794-1.8717-1.123-0.56152-0.7487-0.56152-1.6846v-123.07q0-0.93586 0.56152-1.6846 0.56146-0.74869 1.8717-1.2166 1.4038-0.56152 3.6499-0.84228t5.7088-0.28076 5.7088 0.28076 3.5563 0.84228q1.4038 0.46794 1.9653 1.2166 0.56152 0.7487 0.56152 1.6846v123.07z"/>
<path d="m753.78 157.53q0 0.93585-0.56152 1.6846-0.56152 0.65511-1.9653 1.123-1.3102 0.46793-3.5563 0.65511-2.2461 0.28076-5.7088 0.28076t-5.7088-0.28076q-2.2461-0.18718-3.6499-0.65511-1.3102-0.46794-1.8717-1.123-0.56152-0.7487-0.56152-1.6846v-83.292q0-0.93587 0.56152-1.591 0.56152-0.74869 1.8717-1.2166 1.4038-0.56152 3.6499-0.84228t5.7088-0.28076 5.7088 0.28076 3.5563 0.84228q1.4038 0.46794 1.9653 1.2166 0.56152 0.65511 0.56152 1.591v83.292zm1.7781-111.74q0 7.1126-2.9012 9.8266t-10.763 2.714q-7.9548 0-10.762-2.6204-2.714-2.6204-2.714-9.4523 0-7.1126 2.8076-9.8266 2.9012-2.8076 10.856-2.8076 7.8613 0 10.669 2.714 2.8076 2.6204 2.8076 9.4523z"/>
<path d="m861.41 114.67q0 11.137-2.4333 20.028-2.4332 8.8907-7.019 15.161t-11.324 9.6394q-6.6447 3.3691-15.161 3.3691-4.2114 0-7.8613-0.84228-3.6499-0.74869-7.019-2.5268-3.2755-1.7782-6.551-4.4922-3.182-2.714-6.5511-6.5511v9.0779q0 1.0294-0.56152 1.7782-0.46796 0.65509-1.6846 1.123-1.123 0.46793-3.0884 0.65512-1.9653 0.18716-4.7729 0.18716-2.9012 0-4.8665-0.18716-1.8717-0.1872-3.0884-0.65512-1.123-0.46794-1.5909-1.123-0.46796-0.7487-0.46796-1.7782v-123.07q0-0.93587 0.56152-1.6846 0.56152-0.7487 1.8718-1.2166 1.4038-0.56152 3.6499-0.84229 2.246-0.28076 5.7088-0.28076 3.4627 0 5.7087 0.28076 2.2461 0.28077 3.5563 0.84229 1.4038 0.46793 1.9653 1.2166 0.56152 0.74869 0.56152 1.6846v46.138q3.1819-3.1819 6.3639-5.428 3.1819-2.2461 6.3639-3.6499 3.1819-1.4974 6.5511-2.1525 3.3691-0.65511 7.1126-0.65511 9.2651 0 15.723 3.7435 6.4575 3.6499 10.482 9.9202 4.1179 6.2703 5.9896 14.693 1.8718 8.3292 1.8718 17.594zm-24.426 1.6846q0-5.3344-0.84228-10.295-0.74872-4.9601-2.714-8.7972t-5.1473-6.0832q-3.0884-2.3397-7.8613-2.3397-2.3397 0-4.5858 0.65511t-4.6794 2.2461q-2.3397 1.591-4.8665 4.1178-2.5269 2.5268-5.3344 6.2703v27.702q4.9601 6.3639 9.4523 9.733 4.5858 3.2755 9.5458 3.2755 4.5858 0 7.7677-2.3397t5.2408-6.0832q2.1525-3.7435 3.0884-8.5164 0.93591-4.7729 0.93591-9.5459z"/>
</g>
<g transform="matrix(.94805 0 0 .94805 28.365 5.9371)">
<circle cx="546.02" cy="114.29" r="74.596" fill="#fff" stroke="#fff" stroke-linecap="round" stroke-miterlimit="100" stroke-width="4.8"/>
<g transform="matrix(.77077 0 0 .77077 521.87 -66.566)" stroke-miterlimit="1e5">
<g transform="matrix(2.7289 0 0 2.7289 -116.69 125.95)" fill="#fff" stroke-linejoin="round" stroke-miterlimit="1e5">
<path d="m54 73.26c8.9267 0 17.489-3.5466 23.801-9.8588 6.3122-6.3122 9.8588-14.874 9.8588-23.801 0-8.9267-3.5466-17.489-9.8588-23.801-6.3122-6.3122-14.874-9.8588-23.801-9.8588s-17.489 3.5466-23.801 9.8588c-6.3122 6.3122-9.8588 14.874-9.8588 23.801 0 8.9267 3.5466 17.489 9.8588 23.801 6.3122 6.3122 14.874 9.8588 23.801 9.8588z" fill="#fff" opacity=".05" stroke-linejoin="round" stroke-miterlimit="1e5"/>
</g>
</g>
<g transform="matrix(2.1034 0 0 2.1034 431.93 30.511)" stroke="#858585" stroke-dasharray="0.204085px, 0.40817px" stroke-linecap="round" stroke-linejoin="round" stroke-miterlimit="4" stroke-width=".20408">
<path d="m54 39.6h33.66" clip-path="url(#p1a558b8dcd)" fill="none" opacity=".9" stroke="#858585" stroke-dasharray="0.204085px, 0.40817px" stroke-linecap="round" stroke-linejoin="round" stroke-miterlimit="4" stroke-width=".20408"/>
<path d="m54 39.6 23.801-23.801" clip-path="url(#p1a558b8dcd)" fill="none" opacity=".9" stroke="#858585" stroke-dasharray="0.204085px, 0.40817px" stroke-linecap="round" stroke-linejoin="round" stroke-miterlimit="4" stroke-width=".20408"/>
<path d="m54 39.6v-33.66" clip-path="url(#p1a558b8dcd)" fill="none" opacity=".9" stroke="#858585" stroke-dasharray="0.204085px, 0.40817px" stroke-linecap="round" stroke-linejoin="round" stroke-miterlimit="4" stroke-width=".20408"/>
<path d="m54 39.6-23.801-23.801" clip-path="url(#p1a558b8dcd)" fill="none" opacity=".9" stroke="#858585" stroke-dasharray="0.204085px, 0.40817px" stroke-linecap="round" stroke-linejoin="round" stroke-miterlimit="4" stroke-width=".20408"/>
<path d="m54 39.6h-33.66" clip-path="url(#p1a558b8dcd)" fill="none" opacity=".9" stroke="#858585" stroke-dasharray="0.204085px, 0.40817px" stroke-linecap="round" stroke-linejoin="round" stroke-miterlimit="4" stroke-width=".20408"/>
<path d="m54 39.6-23.801 23.801" clip-path="url(#p1a558b8dcd)" fill="none" opacity=".9" stroke="#858585" stroke-dasharray="0.204085px, 0.40817px" stroke-linecap="round" stroke-linejoin="round" stroke-miterlimit="4" stroke-width=".20408"/>
<path d="m54 39.6v33.66" clip-path="url(#p1a558b8dcd)" fill="none" opacity=".9" stroke="#858585" stroke-dasharray="0.204085px, 0.40817px" stroke-linecap="round" stroke-linejoin="round" stroke-miterlimit="4" stroke-width=".20408"/>
<path d="m54 39.6 23.801 23.801" clip-path="url(#p1a558b8dcd)" fill="none" opacity=".9" stroke="#858585" stroke-dasharray="0.204085px, 0.40817px" stroke-linecap="round" stroke-linejoin="round" stroke-miterlimit="4" stroke-width=".20408"/>
</g>
<g transform="matrix(2.1034 0 0 2.1034 431.93 30.511)" fill="none" stroke="#818181" stroke-dasharray="0.204085px, 0.40817px" stroke-linejoin="round" stroke-miterlimit="100" stroke-width=".20408">
<path d="m57.74 39.6-0.11109-0.90479-0.32668-0.85104-0.52287-0.74672-0.68798-0.59805-0.81222-0.41385-0.88822-0.20506-0.91145 0.015911-0.88052 0.23593-0.79729 0.44195-0.66668 0.62169-0.49649 0.76452-0.29678 0.86192-0.079449 0.90811 0.1426 0.90036 0.35619 0.83912 0.5486 0.72802 0.70843 0.57368 0.82618 0.38525 0.89483 0.17394 0.91034-0.04771 0.87175-0.26652 0.78138-0.4695 0.64458-0.64459 0.4695-0.78138 0.26652-0.87175 0.05682-0.64944v0" clip-path="url(#p1a558b8dcd)" fill="none" opacity=".9" stroke="#818181" stroke-dasharray="0.204085px, 0.40817px" stroke-linecap="square" stroke-linejoin="round" stroke-miterlimit="100" stroke-width=".20408"/>
<path d="m65.22 39.6-0.10919-1.5615-0.32545-1.5311-0.53538-1.4709-0.73488-1.3821-0.92008-1.2664-1.0874-1.126-1.2335-0.96371-1.3556-0.78267-1.4514-0.58639-1.5188-0.37868-1.5568-0.16363-1.5644 0.05463-1.5416 0.27182-1.4887 0.48372-1.4069 0.68619-1.2977 0.87533-1.1633 1.0474-1.0062 1.1991-0.8295 1.3275-0.63668 1.43-0.43146 1.5047-0.21786 1.5501v1.5653l0.21786 1.5501 0.43146 1.5047 0.63668 1.43 0.8295 1.3275 1.0062 1.1991 1.1633 1.0474 1.2977 0.87532 1.4069 0.6862 1.4887 0.48372 1.5416 0.27182 1.5644 0.05463 1.5568-0.16363 1.5188-0.37869 1.4514-0.58638 1.3556-0.78267 1.2335-0.96371 1.0874-1.126 0.92008-1.2664 0.73488-1.3821 0.53538-1.4709 0.32545-1.5311 0.10919-1.5615v0" clip-path="url(#p1a558b8dcd)" fill="none" opacity=".9" stroke="#818181" stroke-dasharray="0.204085px, 0.40817px" stroke-linecap="square" stroke-linejoin="round" stroke-miterlimit="100" stroke-width=".20408"/>
<path d="m72.7 39.6-0.10244-1.9547-0.3062-1.9333-0.5066-1.8907-0.70146-1.8274-0.88863-1.744-1.0661-1.6416-1.2318-1.5212-1.3841-1.3841-1.5212-1.2318-1.6416-1.0661-1.744-0.88862-1.8274-0.70146-1.8907-0.5066-1.9333-0.3062-1.9547-0.10244-1.9547 0.10244-1.9333 0.3062-1.8907 0.5066-1.8274 0.70146-1.744 0.88862-1.6416 1.0661-1.5212 1.2318-1.3841 1.3841-1.2318 1.5212-1.0661 1.6416-0.88862 1.744-0.70146 1.8274-0.5066 1.8907-0.3062 1.9333-0.10244 1.9547 0.10244 1.9547 0.3062 1.9333 0.5066 1.8907 0.70146 1.8274 0.88862 1.744 1.0661 1.6416 1.2318 1.5212 1.3841 1.3841 1.5212 1.2318 1.6416 1.0661 1.744 0.88863 1.8274 0.70146 1.8907 0.5066 1.9333 0.3062 1.9547 0.10244 1.9547-0.10244 1.9333-0.3062 1.8907-0.5066 1.8274-0.70146 1.744-0.88863 1.6416-1.0661 1.5212-1.2318 1.3841-1.3841 1.2318-1.5212 1.0661-1.6416 0.88863-1.744 0.70146-1.8274 0.5066-1.8907 0.3062-1.9333 0.10244-1.9547v0" clip-path="url(#p1a558b8dcd)" fill="none" opacity=".9" stroke="#818181" stroke-dasharray="0.204085px, 0.40817px" stroke-linecap="square" stroke-linejoin="round" stroke-miterlimit="100" stroke-width=".20408"/>
<path d="m80.18 39.6-0.14342-2.7365-0.42868-2.7066-0.70924-2.6469-0.98204-2.5583-1.2441-2.4416-1.4925-2.2982-1.7245-2.1296-1.9377-1.9377-2.1296-1.7245-2.2982-1.4925-2.4416-1.2441-2.5583-0.98204-2.6469-0.70924-2.7066-0.42868-2.7365-0.14342-2.7366 0.14342-2.7066 0.42868-2.6469 0.70924-2.5583 0.98204-2.4416 1.2441-2.2982 1.4925-2.1296 1.7245-1.9377 1.9377-1.7245 2.1296-1.4925 2.2982-1.2441 2.4416-0.98204 2.5583-0.70924 2.6469-0.42868 2.7066-0.14342 2.7366 0.14342 2.7366 0.42868 2.7066 0.70924 2.6469 0.98204 2.5583 1.2441 2.4416 1.4925 2.2982 1.7245 2.1296 1.9377 1.9377 2.1296 1.7245 2.2982 1.4925 2.4416 1.2441 2.5583 0.98204 2.6469 0.70924 2.7066 0.42868 2.7366 0.14342 2.7366-0.14342 2.7066-0.42868 2.6469-0.70924 2.5583-0.98204 2.4416-1.2441 2.2982-1.4925 2.1296-1.7245 1.9377-1.9377 1.7245-2.1296 1.4925-2.2982 1.2441-2.4416 0.98204-2.5583 0.70924-2.6469 0.42868-2.7066 0.14342-2.7366v0" clip-path="url(#p1a558b8dcd)" fill="none" opacity=".9" stroke="#818181" stroke-dasharray="0.204085px, 0.40817px" stroke-linecap="square" stroke-linejoin="round" stroke-miterlimit="100" stroke-width=".20408"/>
</g>
<g transform="matrix(2.1034 0 0 2.1034 431.93 30.511)" opacity=".938" stroke="#000" stroke-miterlimit="100" stroke-width=".45579">
<path d="m54 39.6 0.07114-0.023109 0.07114-0.023121 0.21342-0.069327 0.07114-0.023121 0.071136-0.023109 0.28456-0.092436 0.07114-0.023113 0.21342-0.069327 0.07114-0.023121 0.28456-0.092436 0.07114-0.023121 0.14228-0.046218 0.07114-0.023113 0.07114-0.023117 0.07114-0.023113 0.14228-0.046218 0.07114-0.023121 0.21342-0.069327 0.071136-0.023121 0.28456-0.092436 0.07114-0.023121 0.14228-0.046218 0.07114-0.023113 0.3557-0.11554 0.14228-0.04623 0.07114-0.023109 0.07114-0.023113 0.07114-0.023109 0.07114-0.023121 0.28456-0.092436 0.07114-0.023121 0.21342-0.069327 0.07114-0.023121 0.14228-0.046218 0.07114-0.023113 0.07114-0.023117 0.07114-0.023109 0.07114-0.023113 0.42684-0.13865 0.07114-0.023113 0.07114-0.023109 0.07114-0.023121 0.21342-0.069327 0.07114-0.023121 0.21342-0.069327 0.07114-0.023121 0.21342-0.069327 0.07114-0.023113 0.07114-0.023117 0.07114-0.023109 0.07114-0.023113 0.07114-0.023109 0.07114-0.023121 0.21342-0.069327 0.07114-0.023121 0.21342-0.069327 0.007202 0.022358 0.007198 0.022381 0.007103 0.022411 7e-3 0.02243 0.006897 0.022449 0.006901 0.022469 0.006802 0.022491 0.006699 0.022511 0.006699 0.022537 0.006603 0.02256 0.0065 0.022583 0.006496 0.022598 0.006401 0.022621 0.006302 0.02264 0.006199 0.022659 0.006199 0.022678 0.0061 0.022701 0.006001 0.022709 0.006001 0.022732 0.005901 0.022751 0.005798 0.02277 0.005699 0.022789 0.005703 0.022808 0.0056 0.02282 0.005497 0.022842 0.005402 0.022858 0.005402 0.022881 0.005299 0.022892 0.005199 0.022907 0.005199 0.02293 0.0051 0.022942 0.005001 0.022961 0.004898 0.022968 0.004902 0.022991 0.004799 0.022999 0.0047 0.023022 0.0047 0.023029 0.004601 0.023048 0.004501 0.02306 0.004398 0.023083 0.004402 0.02309 0.004299 0.023098 0.0042 0.023121 0.004101 0.023129 0.004097 0.02314 0.004002 0.023163 0.003899 0.02317 0.003902 0.023178 0.003799 0.02319 0.0037 0.023201 0.003601 0.02322 0.003597 0.023228 0.003502 0.023243 0.003399 0.023251 0.0033 0.023258 0.0033 0.02327 0.003201 0.023281 0.003101 0.023289 0.003098 0.0233 0.003002 0.023312 0.002899 0.023319 0.0028 0.023331 0.0028 0.023338 0.002701 0.023342 0.002598 0.02335 0.002502 0.023357 0.002499 0.023373 0.002399 0.02338 0.0023 0.023376 0.002201 0.023392 0.002201 0.023399 0.002098 0.023399 0.001999 0.023411 0.002003 0.023422 0.0019 0.023418 0.001801 0.02343 0.001698 0.023441 0.001701 0.023438 0.001598 0.023453 0.001503 0.023449 0.0014 0.023449 0.0014 0.02346 0.001297 0.02346 0.001202 0.023468 0.001099 0.023472 0.001102 0.023472 9.99e-4 0.023479 9.19e-4 0.023479 8.51e-4 0.023479 7.71e-4 0.023491 6.98e-4 0.023487 6.29e-4 0.023491 5.53e-4 0.023491 4.77e-4 0.023499 4.12e-4 0.023491 3.28e-4 0.023502 2.59e-4 0.023499 1.91e-4 0.023499 1.11e-4 0.023502 3.1e-5 0.023499h-7.4052l-0.074829-3.01e-4z" clip-path="url(#p1a558b8dcd)" fill="#004cff" opacity=".6" stroke="#000" stroke-linejoin="round" stroke-miterlimit="100" stroke-width=".45579"/>
</g>
<g transform="matrix(2.1034 0 0 2.1034 431.93 30.511)" opacity=".938" stroke="#000" stroke-miterlimit="100" stroke-width=".45579">
<path d="m54 39.6 0.23655-0.63027 0.07885-0.2101 0.39425-1.0504 0.078854-0.21009 0.1577-0.42018 0.07885-0.2101 0.1577-0.42018 0.39425-1.0505 0.07885-0.21009 0.07885-0.2101 0.39425-1.0504 0.078854-0.21009 0.1577-0.42018 0.07885-0.2101 0.6308-1.6807 0.07885-0.2101 0.39425-1.0504 0.078854-0.21009 0.1577-0.42018 0.07885-0.2101 0.6308-1.6807 0.07885-0.2101 0.4731-1.2605 0.078854-0.21009 0.07885-0.21009 0.07885-0.2101 0.6308-1.6807 0.07885-0.2101 0.4731-1.2605 0.078854-0.21009 0.07885-0.21009 0.07885-0.2101 0.6308-1.6807 0.07885-0.2101 0.4731-1.2605 0.06596 0.02487 0.065891 0.02508 0.0658 0.02529 0.065731 0.025499 0.065651 0.025702 0.065559 0.025909 0.065479 0.02611 0.065399 0.02632 0.065319 0.026531 0.065231 0.02673 0.065151 0.02693 0.06506 0.02714 0.06498 0.02734 0.064892 0.02755 0.064808 0.02775 0.06472 0.02795 0.064629 0.02816 0.064541 0.02836 0.064449 0.028559 0.064362 0.028761 0.06427 0.028971 0.064178 0.029169 0.064091 0.029369 0.063999 0.029572 0.0639 0.02977 0.063812 0.02997 0.063709 0.030169 0.063622 0.030371 0.063519 0.030571 0.063431 0.030769 0.063328 0.03097 0.063232 0.03117 0.063129 0.03137 0.063026 0.03157 0.062935 0.031769 0.062836 0.031961 0.062744 0.03216 0.06263 0.03236 0.062531 0.032549 0.062431 0.032751 0.062325 0.032949 0.062225 0.03314 0.062119 0.03334 0.062012 0.033529 0.061905 0.03373 0.061798 0.03392 0.061691 0.034111 0.061592 0.034309 0.061478 0.0345 0.061371 0.034689 0.061264 0.034891 0.06115 0.03508 0.061035 0.035269 0.060936 0.035461 0.060814 0.03565 0.060699 0.035849 0.060593 0.036041 0.060478 0.036219 0.060364 0.036421 0.060249 0.0366 0.060127 0.0368 0.06002 0.03698 0.059898 0.03717 0.059784 0.037359 0.059669 0.03755 0.059547 0.037741 0.059433 0.03792 0.059311 0.038109 0.059189 0.03829 0.059067 0.038481 0.058952 0.03866 0.05883 0.038849 0.058701 0.03903 0.058578 0.039221 0.058464 0.0394 0.058327 0.039591 0.058212 0.039768 0.058075 0.039951 0.057961 0.040129 0.057831 0.040321 0.057701 0.040499 0.057579 0.04068 0.057449 0.040861 0.05732 0.04104 0.05719 0.04122 0.05706 0.041399 0.056931 0.04158 0.056801 0.041759 0.056671 0.041941 0.056541 0.04211 0.056396 0.04229 0.056274 0.042469 0.056137 0.042641 0.056 0.04282 0.05587 0.043001 0.055733 0.043169 0.055595 0.04335 0.055466 0.04352 0.055321 0.04369 0.055183 0.043871-0.27982 0.35088-0.13991 0.17545-0.13992 0.17544-0.13991 0.17544-0.13992 0.17545-1.1193 1.4035-0.13992 0.17544-0.41973 0.52633-0.13992 0.17544-0.13991 0.17545-0.41973 0.52633-0.27983 0.35088-0.13991 0.17545-0.41973 0.52632-0.13991 0.17545-0.27982 0.35088-0.41974 0.52633-0.13991 0.17545-0.41973 0.52632-0.13991 0.17545-0.13991 0.17544-0.13992 0.17544-0.13991 0.17545-0.27982 0.35088-0.13991 0.17545-0.41973 0.52632-0.13991 0.17545-0.13992 0.17544-0.27982 0.35089-0.27982 0.35088-0.13991 0.17545-0.41973 0.52632-0.41974 0.52633-0.13991 0.17545-0.41973 0.52633-0.27982 0.35088-0.13992 0.17544-0.13991 0.17545-0.27982 0.35088-0.13991 0.17545-0.55964 0.70177-0.13992 0.17544-0.13991 0.17544-0.13991 0.17545-0.55964 0.70177-0.27982 0.35088-0.41974 0.52633-0.13991 0.17545-0.27982 0.35088-0.13991 0.17545-0.27982 0.35088-0.13992 0.17544-0.13991 0.17545-0.27982 0.35088-0.14006 0.17546z" clip-path="url(#p1a558b8dcd)" fill="#ceff29" opacity=".6" stroke="#000" stroke-linejoin="round" stroke-miterlimit="100" stroke-width=".45579"/>
</g>
<g transform="matrix(2.1034 0 0 2.1034 431.93 30.511)" opacity=".938" stroke="#000" stroke-miterlimit="100" stroke-width=".45579">
<path d="m54 39.6-4.2185-5.053-0.19175-0.22967-2.301-2.7562-0.19175-0.22967-2.4928-2.9858-0.19175-0.22967-2.6845-3.2155-0.19175-0.22967-1.534-1.8374-3.6432-4.3639-0.19175-0.22967-1.3422-1.6078 0.10845-0.090101 0.10887-0.08959 0.10929-0.089079 0.10971-0.08856 0.11012-0.088039 0.11054-0.08753 0.11095-0.087 0.11136-0.086481 0.11177-0.08595 0.11217-0.08543 0.11257-0.0849 0.11297-0.08436 0.11336-0.08383 0.11376-0.0833 0.11415-0.08276 0.11454-0.08222 0.11493-0.08168 0.11531-0.08114 0.11569-0.08059 0.11607-0.08005 0.11644-0.079499 0.11682-0.07895 0.11719-0.078401 0.11755-0.07784 0.11793-0.07729 0.11828-0.076731 0.11865-0.07618 0.119-0.07562 0.11936-0.07505 0.11971-0.074491 0.12006-0.073919 0.12041-0.07336 0.12075-0.07279 0.12109-0.07222 0.12143-0.07165 0.12177-0.07108 0.12211-0.0705 0.12243-0.06992 0.12276-0.06935 0.12309-0.068769 0.12341-0.068191 0.12372-0.06761 0.12405-0.06702 0.12436-0.06644 0.12468-0.06585 0.12498-0.06526 0.12528-0.06467 0.1256-0.06408 0.12589-0.06349 0.12619-0.06289 0.12648-0.0623 0.12678-0.0617 0.12706-0.0611 0.12736-0.060511 0.12763-0.059899 0.12792-0.0593 0.12819-0.0587 0.12848-0.05809 0.12874-0.05749 0.12901-0.05688 0.12928-0.05627 0.12954-0.05566 0.1298-0.05505 0.13007-0.05444 0.13031-0.05382 0.13057-0.05321 0.13082-0.052589 0.13106-0.05198 0.13131-0.05136 0.13155-0.05074 0.13179-0.050119 0.13202-0.0495 0.13225-0.04887 0.13248-0.04825 0.13271-0.047629 0.13293-0.047 0.13315-0.046371 0.13336-0.04575 0.13359-0.04512 0.13379-0.04449 0.134-0.04386 0.1342-0.04322 0.13441-0.04259 0.13461-0.04196 0.1348-0.04132 0.135-0.04069 0.13519-0.04005 0.13537-0.039411 0.13556-0.03877 0.13574-0.03813 0.13592-0.03749 0.13609-0.03685 0.13626-0.03621 0.13644-0.03557 0.1366-0.03493 0.13676-0.03428 0.13693-0.03364 0.13708-0.03299 0.13723-0.03234 0.13738-0.0317 0.066578 0.2917 0.066582 0.2917 0.066578 0.29169 0.13316 0.5834 0.066578 0.2917 0.066582 0.2917 0.066578 0.2917 0.066582 0.2917 0.066578 0.29169 0.066582 0.2917 0.066578 0.2917 0.066582 0.2917 0.066578 0.2917 0.066582 0.2917 0.066582 0.29169 0.066578 0.2917 0.066582 0.2917 0.066578 0.2917 0.066582 0.2917 0.066578 0.2917 0.066582 0.29169 0.066578 0.2917 0.13316 0.5834 0.066578 0.2917 0.066582 0.2917 0.066578 0.2917 0.066582 0.29169 0.066578 0.2917 0.066582 0.2917 0.066578 0.2917 0.066582 0.2917 0.066578 0.2917 0.066582 0.29169 0.066582 0.2917 0.066578 0.2917 0.066582 0.2917 0.066578 0.2917 0.066582 0.2917 0.066578 0.2917 0.066582 0.29169 0.066578 0.2917 0.066582 0.2917 0.066578 0.2917 0.19974 0.87509 0.066582 0.2917 0.066578 0.2917 0.066582 0.2917 0.066578 0.2917 0.066582 0.2917 0.066578 0.29169 0.066582 0.2917 0.066578 0.2917 0.13316 0.5834 0.066578 0.2917 0.066582 0.2917 0.066578 0.29169 0.066582 0.2917 0.066578 0.2917 0.066582 0.2917 0.066578 0.2917 0.066582 0.2917 0.066578 0.29169 0.13316 0.5834 0.066578 0.2917 0.066582 0.2917 0.066578 0.2917 0.066582 0.29169 0.066578 0.2917 0.066582 0.2917 0.066578 0.2917 0.13316 0.5834 0.066578 0.2917 0.066582 0.29169 0.066578 0.2917 0.066582 0.2917 0.066578 0.2917 0.066582 0.2917 0.066578 0.2917 0.066582 0.29169 0.066578 0.2917 0.13316 0.5834 0.066578 0.2917 0.066582 0.2917 0.066578 0.2917 0.066582 0.29169 0.066578 0.2917 0.066582 0.2917 0.066578 0.2917 0.066582 0.2917 0.066578 0.2917 0.066582 0.29169 0.06641 0.29168z" clip-path="url(#p1a558b8dcd)" fill="#ff6800" opacity=".6" stroke="#000" stroke-linejoin="round" stroke-miterlimit="100" stroke-width=".45579"/>
</g>
<g transform="matrix(2.1034 0 0 2.1034 431.93 30.511)" opacity=".938" stroke="#000" stroke-miterlimit="100" stroke-width=".45579">
<path d="m54 39.6-0.25759 0.046753-2.8335 0.51425-22.668 4.114-0.02886-0.16194-0.027842-0.16212-0.026829-0.16229-0.025801-0.16246-0.02478-0.16262-0.02376-0.16277-0.022739-0.16291-0.021709-0.16305-0.020691-0.16319-0.019659-0.16331-0.018641-0.16344-0.017611-0.16355-0.016579-0.16365-0.015551-0.16376-0.014521-0.16385-0.013489-0.16394-0.012461-0.16402-0.011431-0.1641-0.010399-0.16416-0.009401-0.16423-0.008299-0.16428-0.007301-0.16433-0.0063-0.16437-0.005199-0.16441-0.0042-0.16444-0.003201-0.16447-0.0021-0.16448-0.001099-0.16449-7.1e-5 -0.16449 9.59e-4 -0.16449 0.002001-0.16448 3e-3 -0.16447 0.004099-0.16444 0.0051-0.16441 0.0061-0.16438 0.0072-0.16434 0.0082-0.16429 0.009201-0.16424 0.01026-0.16417 0.01129-0.16411 0.01232-0.16403 0.013351-0.16395 0.01438-0.16386 0.015409-0.16377 0.01643-0.16367 0.01746-0.16357 0.01849-0.16345 0.019522-0.16333 0.020538-0.16321 0.02157-0.16307 0.022591-0.16293 0.023621-0.16279 0.024639-0.16264 0.02566-0.16248 0.02668-0.16232 0.0277-0.16214 0.028721-0.16197 0.02973-0.16178 0.03075-0.1616 0.031769-0.16139 0.03278-0.1612 0.033791-0.16098 0.0348-0.16077 0.03581-0.16055 0.036819-0.16032 0.03783-0.16009 0.03883-0.15984 0.039831-0.1596 0.04084-0.15934 0.04184-0.15909 0.042839-0.15881 0.043831-0.15855 0.04483-0.15827 0.04582-0.15798 0.04681-0.15769 0.047798-0.1574 0.04879-0.15709 0.049782-0.15678 0.050758-0.15646 0.051741-0.15615 0.052721-0.15581 0.053699-0.15548 0.05468-0.15514 0.055649-0.1548 0.056622-0.15444 0.057589-0.15408 0.058561-0.15372 0.059519-0.15334 0.060492-0.15297 0.061449-0.15259 0.062401-0.1522 0.063358-0.1518 0.06431-0.1514 0.06526-0.15099 0.066212-0.15059 0.06715-0.15016 0.068089-0.14973 0.069031-0.14931 0.069969-0.14887 0.070911-0.14843 0.47175 0.22718 0.23587 0.11359 0.23587 0.1136 0.23588 0.11359 1.887 0.90872 0.70762 0.34077 12.501 6.0203 0.23587 0.1136 0.23588 0.11359 2.5946 1.2495 0.23587 0.1136 0.23588 0.11359 2.5946 1.2495 0.94349 0.45437 0.23573 0.11321z" clip-path="url(#p1a558b8dcd)" fill="#ffc400" opacity=".6" stroke="#000" stroke-linejoin="round" stroke-miterlimit="100" stroke-width=".45579"/>
</g>
<g transform="matrix(2.1034 0 0 2.1034 431.93 30.511)" stroke="#000" stroke-miterlimit="100" stroke-width=".45579">
<path d="m54 39.6-0.36891 0.25557-0.36892 0.25557-0.12297 0.085197-0.36891 0.25557-0.49189 0.34076-0.12297 0.085197-0.12297 0.08519-0.24595 0.17038-0.12297 0.085194-0.36891 0.25557-0.12297 0.085197-0.12298 0.08519-0.36891 0.25557-0.12297 0.08519-0.12297 0.085197-0.24595 0.17039-0.86081 0.59634-0.12297 0.085201-0.49188 0.34076-0.12298 0.08519-0.12297 0.085201-0.12297 0.08519-0.12297 0.085197-0.24594 0.17038-0.36892 0.25557-0.12297 0.085201-0.36891 0.25557-0.12298 0.08519-0.36891 0.25557-0.12297 0.085201-0.24594 0.17038-0.61486 0.42595-0.12297 0.085201-1.7216 1.1927-0.12298 0.08519-0.12297 0.085201-0.49188 0.34076-0.36892 0.25557-0.12297 0.085201-0.36891 0.25557-0.12298 0.08519-0.36891 0.25557-0.013371-0.019329-0.01334-0.019348-0.013309-0.019371-0.013279-0.01939-0.013252-0.019409-0.01321-0.019432-0.01318-0.019447-0.013149-0.01947-0.013119-0.019489-0.013092-0.019512-0.013058-0.019539-0.013031-0.01955-0.013-0.019581-0.01297-0.0196-0.012939-0.019619-0.012909-0.019642-0.012882-0.019657-0.012848-0.01968-0.01281-0.019703-0.012791-0.019718-0.012753-0.019741-0.012718-0.01976-0.012691-0.019779-0.012657-0.019802-0.01263-0.019817-0.0126-0.01984-0.012569-0.019859-0.012543-0.019882-0.012501-0.019897-0.012466-0.01992-0.012444-0.019932-0.012409-0.019951-0.012379-0.01997-0.012352-0.019989-0.012318-0.020008-0.01228-0.020031-0.012253-0.02005-0.012218-0.020069-0.012188-0.020092-0.012161-0.020111-0.012131-0.020126-0.0121-0.020153-0.012058-0.020168-0.012032-0.02018-0.012001-0.020203-0.011971-0.020218-0.01194-0.020241-0.011898-0.02026-0.011871-0.020279-0.011841-0.020302-0.011806-0.020317-0.01178-0.02034-0.011742-0.020351-0.011711-0.02037-0.011681-0.02039-0.01165-0.020409-0.01162-0.020432-0.011589-0.020439-0.011551-0.020462-0.01152-0.020477-0.01149-0.0205-0.011459-0.020523-0.011429-0.020538-0.011391-0.02055-0.01136-0.020569-0.01133-0.020592-0.011299-0.020611-0.011261-0.020618-0.01123-0.020641-0.0112-0.02066-0.011169-0.020679-0.011131-0.020691-0.011097-0.02071-0.01107-0.020729-0.011032-0.020748-0.010998-0.02076-0.010971-0.020782-0.010941-0.020798-0.01091-0.020821-0.010868-0.020832-0.010841-0.020847-0.010811-0.02087-0.010769-0.020882-0.010742-0.020901-0.010708-0.02092-0.01067-0.020927-0.010639-0.02095-0.010612-0.020973-0.010578-0.020977-0.01054-0.021-0.010509-0.021023-0.010483-0.021027-0.010437-0.021053-0.01041-0.021069-0.01038-0.02108-0.010342-0.021099-0.010311-0.021122-0.010281-0.02113-0.01025-0.021149-0.010208-0.02116 0.13478-0.064911 0.80871-0.38946 0.26957-0.12982 0.26957-0.12982 0.13479-0.064907 0.13478-0.064911 0.26957-0.12982 0.13479-0.064907 0.13478-0.064911 0.26957-0.12982 0.13479-0.064907 0.13478-0.064911 0.26957-0.12982 2.4262-1.1684 0.13479-0.064907 0.13478-0.064911 0.26957-0.12982 0.13479-0.064907 0.13478-0.064911 0.26957-0.12982 0.13479-0.064907 0.13478-0.064911 1.0783-0.51928 0.26957-0.12982 1.3479-0.6491 0.13479-0.064907 0.26956-0.12982 1.3478-0.6491 0.13479-0.064907 0.13478-0.064911 0.26957-0.12982 0.13479-0.064907 0.13478-0.064911 0.26957-0.12982 0.13479-0.064907 0.13478-0.064911 0.26957-0.12982 0.40436-0.19473 0.13476-0.064442z" clip-path="url(#p1a558b8dcd)" fill="#29ffce" opacity=".6" stroke="#000" stroke-linejoin="round" stroke-miterlimit="100" stroke-width=".45579"/>
</g>
<g transform="matrix(2.1034 0 0 2.1034 431.93 30.511)" opacity=".938" stroke="#000" stroke-miterlimit="100" stroke-width=".45579">
<path d="m54 39.6 0.031319 0.18436 0.031322 0.18435 0.062638 0.36872 0.031322 0.18436 0.031319 0.18436 0.031319 0.18435 0.031322 0.18436 0.031319 0.18436 0.031322 0.18436 0.031319 0.18436 0.031319 0.18435 0.031322 0.18436 0.062638 0.36872 0.031322 0.18435 0.062638 0.36872 0.031322 0.18436 0.031319 0.18436 0.031319 0.18435 0.031322 0.18436 0.062638 0.36872 0.031322 0.18436 0.031319 0.18435 0.031319 0.18436 0.031322 0.18436 0.031319 0.18436 0.031322 0.18435 0.062638 0.36872 0.031322 0.18436 0.031319 0.18436 0.031319 0.18435 0.031322 0.18436 0.062638 0.36872 0.031322 0.18436 0.031319 0.18435 0.031319 0.18436 0.031322 0.18436 0.062638 0.36872 0.031322 0.18435 0.062638 0.36872 0.031322 0.18436 0.031319 0.18435 0.031322 0.18436 0.062638 0.36872 0.031322 0.18436 0.031319 0.18435 0.031319 0.18436 0.031322 0.18436 0.062638 0.36872 0.031322 0.18435 0.062638 0.36872 0.031322 0.18436 0.031319 0.18435 0.031319 0.18436 0.031322 0.18436 0.062638 0.36872 0.031322 0.18435 0.031319 0.18436 0.031322 0.18436 0.062638 0.36872 0.031322 0.18435 0.062638 0.36872 0.031322 0.18436 0.031319 0.18436 0.031319 0.18435 0.031322 0.18436 0.062638 0.36872 0.031322 0.18435 0.062638 0.36872 0.031322 0.18436 0.031319 0.18436 0.031319 0.18435 0.031322 0.18436 0.031319 0.18436 0.031322 0.18436 0.031319 0.18436 0.031319 0.18435 0.031322 0.18436 0.062638 0.36872 0.031322 0.18436 0.031319 0.18435 0.031319 0.18436 0.031322 0.18436 0.031319 0.18436-0.072418 0.012161-0.072472 0.011868-0.07251 0.011593-0.072559 0.011311-0.072601 0.011017-0.072651 0.010742-0.072689 0.010448-0.072731 0.010162-0.072769 0.009899-0.072811 0.009598-0.072838 0.0093-0.07288 0.009003-0.07291 0.008698-0.072952 0.0084-0.072979 0.008202-0.073009 0.0079-0.07304 0.007599-0.073071 0.007301-0.073101 7e-3 -0.073128 0.006699-0.073151 0.006401-0.073181 0.006199-0.0732 0.005901-0.073219 0.0056-0.073238 0.005299-0.073261 0.005001-0.07328 0.0047-0.073299 0.004398-0.073318 0.004101-0.07333 0.003799-0.073353 0.003601-0.073357 0.0033-0.073372 0.003002-0.07338 0.002697-0.073399 0.002399-0.073402 0.002102-0.07341 0.001801-0.073418 0.001499-0.073421 0.001301-0.073429 9.61e-4 -0.073433 6.79e-4 -0.073429 4.01e-4 -0.073441 9.9e-5 -0.073429-1.91e-4 -0.073429-4.69e-4 -0.073429-7.59e-4 -0.073433-0.001102-0.073418-0.001301-0.073421-0.001598-0.07341-0.0019-0.073399-0.002201-0.073391-0.002499-0.07338-0.0028-0.073372-0.003101-0.073357-0.003399-0.073341-0.003601-0.07333-0.003899-0.073311-0.0042-0.073299-0.004501-0.07328-0.004799-0.073261-0.0051-0.073238-0.005402-0.073219-0.005699-0.073193-0.005898-0.07317-0.006203-0.073139-0.0065-0.07312-0.006798-0.07309-0.007099-0.073059-0.007401-0.073032-0.007702-0.072998-0.007999-0.072971-0.008202-0.072937-0.008499-0.072903-0.008801-0.072868-0.009098-0.07283-0.009399-0.072792-0.009701-0.072758-0.010002-0.07272-0.010239-0.072681-0.010529-0.072628-0.010822-0.07259-0.011101-0.072552-0.011387-0.072498-0.011673-0.072453-0.011959-0.072411-0.012238-0.072357-0.01252-0.072311-0.012814-0.072262-0.013088-0.072208-0.013382-0.072151-0.013657-0.072098-0.013943-0.072041-0.014229-0.071991-0.014511-0.07193-0.01479-0.071869-0.015068-0.071812-0.01535-0.071751-0.01564-0.07169-0.015919-0.071617-0.016201 0.041607-0.18231 0.041611-0.18232 0.12483-0.54693 0.041607-0.18231 0.083222-0.36462 0.041611-0.18232 0.083222-0.36462 0.041607-0.18231 0.083222-0.36462 0.041611-0.18232 0.041611-0.18231 0.041607-0.18231 0.16644-0.72924 0.041607-0.18232 0.20806-0.91155 0.041607-0.18232 0.16644-0.72924 0.041607-0.18231 0.041611-0.18231 0.041611-0.18232 0.083222-0.36462 0.041607-0.18231 0.12483-0.54693 0.041611-0.18232 0.041611-0.18231 0.041607-0.18231 0.12483-0.54693 0.041611-0.18232 0.041607-0.18231 0.16644-0.72924 0.041607-0.18231 0.041611-0.18232 0.16644-0.72924 0.041607-0.18231 0.041611-0.18232 0.12483-0.54693 0.041607-0.18231 0.083222-0.36462 0.041611-0.18232 0.041611-0.18231 0.041607-0.18231 0.16644-0.72924 0.041607-0.18232 0.20806-0.91155 0.041607-0.18232 0.16644-0.72924 0.041607-0.18231 0.041611-0.18231 0.041611-0.18232 0.083222-0.36462 0.041607-0.18231 0.083222-0.36462 0.041611-0.18232 0.083222-0.36462 0.041607-0.18231 0.083222-0.36462 0.04208-0.18221z" clip-path="url(#p1a558b8dcd)" fill="#7dff7a" opacity=".6" stroke="#000" stroke-linejoin="round" stroke-miterlimit="100" stroke-width=".45579"/>
</g>
<g transform="matrix(2.1034 0 0 2.1034 431.93 30.511)" opacity=".938" stroke="#000" stroke-miterlimit="100" stroke-width=".45579">
<path d="m54 39.6 0.70801 0.55173 0.236 0.18392 0.70801 0.55173 0.236 0.18391 1.416 1.1035 0.236 0.18392 0.23601 0.18391 0.708 0.55173 1.416 1.1035 0.236 0.18392 0.70801 0.55173 0.236 0.18391 1.416 1.1035 0.236 0.18392 0.23601 0.18391 1.888 1.4713 2.124 1.6552 0.23602 0.18391 0.236 0.18391 0.236 0.18392 0.47201 0.36782 0.708 0.55173 2.124 1.6552 0.23602 0.18391 0.236 0.18391 0.236 0.18392 0.94401 0.73564 0.236 0.18392 0.47201 0.36782 1.652 1.2874 2.596 2.023-0.043396 0.055561-0.043533 0.055447-0.043655 0.055351-0.043793 0.055252-0.043922 0.055138-0.044044 0.055042-0.044182 0.054939-0.044312 0.054829-0.044441 0.054729-0.044571 0.054623-0.044701 0.05452-0.044815 0.054409-0.044952 0.05431-0.045082 0.054199-0.045204 0.054092-0.045334 0.053989-0.045456 0.053879-0.045593 0.053772-0.045723 0.053669-0.045837 0.053558-0.045967 0.053452-0.046089 0.053341-0.046227 0.05323-0.046333 0.05312-0.046471 0.053009-0.046593 0.052898-0.046722 0.052792-0.046837 0.052681-0.046974 0.05257-0.047089 0.05246-0.047211 0.052349-0.04734 0.052238-0.047455 0.052132-0.047585 0.052021-0.047699 0.051899-0.047829 0.051788-0.047951 0.051682-0.048073 0.051571-0.048187 0.051449-0.048309 0.051338-0.048431 0.051231-0.048546 0.051109-0.048683 0.051003-0.04879 0.050877-0.04892 0.050774-0.049026 0.050648-0.049156 0.050529-0.049271 0.050423-0.049385 0.050297-0.049515 0.05019-0.049629 0.050072-0.049751 0.04995-0.049858 0.049831-0.04998 0.049717-0.050095 0.049603-0.050224 0.04948-0.050331 0.049358-0.050446 0.04924-0.05056 0.049129-0.050682 0.049011-0.050789 0.048889-0.050911 0.048771-0.051018 0.048649-0.05114 0.048531-0.051254 0.048409-0.051369 0.048283-0.051483 0.048161-0.05159 0.048038-0.051704 0.04792-0.051819 0.047798-0.051933 0.04768-0.05204 0.04755-0.052147 0.047432-0.052277 0.04731-0.052376 0.04718-0.05249 0.047058-0.052597 0.04694-0.052711 0.04681-0.052826 0.046692-0.052925 0.046558-0.05304 0.04644-0.053154 0.04631-0.053261 0.046192-0.053368 0.046059-0.053482 0.04594-0.053574 0.045811-0.053696 0.045677-0.053795 0.045563-0.053909 0.045429-0.054016 0.0453-0.054115 0.045181-0.05423 0.045048-0.054329 0.044922-0.054443 0.044788-0.054543 0.04467-0.054649 0.04454-0.054749 0.044411-0.054863 0.044281-0.054955 0.044147-0.055061 0.044022-0.18656-0.2339-0.3731-0.46784-0.37309-0.46785-0.18655-0.23392-0.18654-0.23393-0.18655-0.23392-0.18655-0.23393-1.3058-1.6374-0.37308-0.46785-0.18655-0.23392-0.3731-0.46785-0.18654-0.23392-0.18656-0.23393-0.37308-0.46784-0.18654-0.23393-0.18656-0.23392-0.93274-1.1696-0.74619-0.93569-0.55964-0.70178-0.3731-0.46784-0.93274-1.1696-0.3731-0.46785-0.18655-0.23393-0.37309-0.46785-0.3731-0.46784-0.93274-1.1696-0.18654-0.23393-0.18655-0.23392-0.55965-0.70177-0.18655-0.23393-0.37309-0.46785-0.3731-0.46784-0.18655-0.23393-0.18655-0.23392-0.37309-0.46785-0.18655-0.23392-0.18655-0.23393-0.18655-0.23392-0.37309-0.46785-0.3731-0.46784-0.3731-0.46785-0.18654-0.23393-0.18655-0.23392-0.3731-0.46785-0.93274-1.1696-0.18655-0.23393-0.18654-0.23392-0.18655-0.23392-0.7462-0.9357-0.37309-0.46785-0.18655-0.23392z" clip-path="url(#p1a558b8dcd)" fill="#ff6800" opacity=".6" stroke="#000" stroke-linejoin="round" stroke-miterlimit="100" stroke-width=".45579"/>
</g>
<g transform="matrix(2.1034 0 0 2.1034 431.93 30.511)" stroke="rgba(255,255,255,0.8)" stroke-miterlimit="1e5">
<path d="m54 73.26c8.9267 0 17.489-3.5466 23.801-9.8588 6.3122-6.3122 9.8588-14.874 9.8588-23.801 0-8.9267-3.5466-17.489-9.8588-23.801-6.3122-6.3122-14.874-9.8588-23.801-9.8588s-17.489 3.5466-23.801 9.8588c-6.3122 6.3122-9.8588 14.874-9.8588 23.801 0 8.9267 3.5466 17.489 9.8588 23.801 6.3122 6.3122 14.874 9.8588 23.801 9.8588v0z" fill="none" stroke="rgba(255,255,255,0.8)" stroke-linecap="square" stroke-miterlimit="1e5"/>
</g>
<g transform="matrix(2.1034 0 0 2.1034 431.93 30.511)" fill="none" stroke="#000" stroke-miterlimit="100" stroke-width=".45579">
<path d="m54 39.6 0.07114-0.023109 0.07114-0.023121 0.21342-0.069327 0.07114-0.023121 0.071136-0.023109 0.28456-0.092436 0.07114-0.023113 0.21342-0.069327 0.07114-0.023121 0.28456-0.092436 0.07114-0.023121 0.14228-0.046218 0.07114-0.023113 0.07114-0.023117 0.07114-0.023113 0.14228-0.046218 0.07114-0.023121 0.21342-0.069327 0.071136-0.023121 0.28456-0.092436 0.07114-0.023121 0.14228-0.046218 0.07114-0.023113 0.3557-0.11554 0.14228-0.04623 0.07114-0.023109 0.07114-0.023113 0.07114-0.023109 0.07114-0.023121 0.28456-0.092436 0.07114-0.023121 0.21342-0.069327 0.07114-0.023121 0.14228-0.046218 0.07114-0.023113 0.07114-0.023117 0.07114-0.023109 0.07114-0.023113 0.42684-0.13865 0.07114-0.023113 0.07114-0.023109 0.07114-0.023121 0.21342-0.069327 0.07114-0.023121 0.21342-0.069327 0.07114-0.023121 0.21342-0.069327 0.07114-0.023113 0.07114-0.023117 0.07114-0.023109 0.07114-0.023113 0.07114-0.023109 0.07114-0.023121 0.21342-0.069327 0.07114-0.023121 0.21342-0.069327 0.007202 0.022358 0.007198 0.022381 0.007103 0.022411 7e-3 0.02243 0.006897 0.022449 0.006901 0.022469 0.006802 0.022491 0.006699 0.022511 0.006699 0.022537 0.006603 0.02256 0.0065 0.022583 0.006496 0.022598 0.006401 0.022621 0.006302 0.02264 0.006199 0.022659 0.006199 0.022678 0.0061 0.022701 0.006001 0.022709 0.006001 0.022732 0.005901 0.022751 0.005798 0.02277 0.005699 0.022789 0.005703 0.022808 0.0056 0.02282 0.005497 0.022842 0.005402 0.022858 0.005402 0.022881 0.005299 0.022892 0.005199 0.022907 0.005199 0.02293 0.0051 0.022942 0.005001 0.022961 0.004898 0.022968 0.004902 0.022991 0.004799 0.022999 0.0047 0.023022 0.0047 0.023029 0.004601 0.023048 0.004501 0.02306 0.004398 0.023083 0.004402 0.02309 0.004299 0.023098 0.0042 0.023121 0.004101 0.023129 0.004097 0.02314 0.004002 0.023163 0.003899 0.02317 0.003902 0.023178 0.003799 0.02319 0.0037 0.023201 0.003601 0.02322 0.003597 0.023228 0.003502 0.023243 0.003399 0.023251 0.0033 0.023258 0.0033 0.02327 0.003201 0.023281 0.003101 0.023289 0.003098 0.0233 0.003002 0.023312 0.002899 0.023319 0.0028 0.023331 0.0028 0.023338 0.002701 0.023342 0.002598 0.02335 0.002502 0.023357 0.002499 0.023373 0.002399 0.02338 0.0023 0.023376 0.002201 0.023392 0.002201 0.023399 0.002098 0.023399 0.001999 0.023411 0.002003 0.023422 0.0019 0.023418 0.001801 0.02343 0.001698 0.023441 0.001701 0.023438 0.001598 0.023453 0.001503 0.023449 0.0014 0.023449 0.0014 0.02346 0.001297 0.02346 0.001202 0.023468 0.001099 0.023472 0.001102 0.023472 9.99e-4 0.023479 9.19e-4 0.023479 8.51e-4 0.023479 7.71e-4 0.023491 6.98e-4 0.023487 6.29e-4 0.023491 5.53e-4 0.023491 4.77e-4 0.023499 4.12e-4 0.023491 3.28e-4 0.023502 2.59e-4 0.023499 1.91e-4 0.023499 1.11e-4 0.023502 3.1e-5 0.023499h-7.4052l-0.074829-3.01e-4z" clip-path="url(#p1a558b8dcd-1)" fill="none" opacity=".6" stroke="#000" stroke-linejoin="round" stroke-miterlimit="100" stroke-width=".45579"/>
</g>
<g transform="matrix(2.1034 0 0 2.1034 431.93 30.511)" fill="none" stroke="#000" stroke-miterlimit="100" stroke-width=".45579">
<path d="m54 39.6 0.23655-0.63027 0.07885-0.2101 0.39425-1.0504 0.078854-0.21009 0.1577-0.42018 0.07885-0.2101 0.1577-0.42018 0.39425-1.0505 0.07885-0.21009 0.07885-0.2101 0.39425-1.0504 0.078854-0.21009 0.1577-0.42018 0.07885-0.2101 0.6308-1.6807 0.07885-0.2101 0.39425-1.0504 0.078854-0.21009 0.1577-0.42018 0.07885-0.2101 0.6308-1.6807 0.07885-0.2101 0.4731-1.2605 0.078854-0.21009 0.07885-0.21009 0.07885-0.2101 0.6308-1.6807 0.07885-0.2101 0.4731-1.2605 0.078854-0.21009 0.07885-0.21009 0.07885-0.2101 0.6308-1.6807 0.07885-0.2101 0.4731-1.2605 0.06596 0.02487 0.065891 0.02508 0.0658 0.02529 0.065731 0.025499 0.065651 0.025702 0.065559 0.025909 0.065479 0.02611 0.065399 0.02632 0.065319 0.026531 0.065231 0.02673 0.065151 0.02693 0.06506 0.02714 0.06498 0.02734 0.064892 0.02755 0.064808 0.02775 0.06472 0.02795 0.064629 0.02816 0.064541 0.02836 0.064449 0.028559 0.064362 0.028761 0.06427 0.028971 0.064178 0.029169 0.064091 0.029369 0.063999 0.029572 0.0639 0.02977 0.063812 0.02997 0.063709 0.030169 0.063622 0.030371 0.063519 0.030571 0.063431 0.030769 0.063328 0.03097 0.063232 0.03117 0.063129 0.03137 0.063026 0.03157 0.062935 0.031769 0.062836 0.031961 0.062744 0.03216 0.06263 0.03236 0.062531 0.032549 0.062431 0.032751 0.062325 0.032949 0.062225 0.03314 0.062119 0.03334 0.062012 0.033529 0.061905 0.03373 0.061798 0.03392 0.061691 0.034111 0.061592 0.034309 0.061478 0.0345 0.061371 0.034689 0.061264 0.034891 0.06115 0.03508 0.061035 0.035269 0.060936 0.035461 0.060814 0.03565 0.060699 0.035849 0.060593 0.036041 0.060478 0.036219 0.060364 0.036421 0.060249 0.0366 0.060127 0.0368 0.06002 0.03698 0.059898 0.03717 0.059784 0.037359 0.059669 0.03755 0.059547 0.037741 0.059433 0.03792 0.059311 0.038109 0.059189 0.03829 0.059067 0.038481 0.058952 0.03866 0.05883 0.038849 0.058701 0.03903 0.058578 0.039221 0.058464 0.0394 0.058327 0.039591 0.058212 0.039768 0.058075 0.039951 0.057961 0.040129 0.057831 0.040321 0.057701 0.040499 0.057579 0.04068 0.057449 0.040861 0.05732 0.04104 0.05719 0.04122 0.05706 0.041399 0.056931 0.04158 0.056801 0.041759 0.056671 0.041941 0.056541 0.04211 0.056396 0.04229 0.056274 0.042469 0.056137 0.042641 0.056 0.04282 0.05587 0.043001 0.055733 0.043169 0.055595 0.04335 0.055466 0.04352 0.055321 0.04369 0.055183 0.043871-0.27982 0.35088-0.13991 0.17545-0.13992 0.17544-0.13991 0.17544-0.13992 0.17545-1.1193 1.4035-0.13992 0.17544-0.41973 0.52633-0.13992 0.17544-0.13991 0.17545-0.41973 0.52633-0.27983 0.35088-0.13991 0.17545-0.41973 0.52632-0.13991 0.17545-0.27982 0.35088-0.41974 0.52633-0.13991 0.17545-0.41973 0.52632-0.13991 0.17545-0.13991 0.17544-0.13992 0.17544-0.13991 0.17545-0.27982 0.35088-0.13991 0.17545-0.41973 0.52632-0.13991 0.17545-0.13992 0.17544-0.27982 0.35089-0.27982 0.35088-0.13991 0.17545-0.41973 0.52632-0.41974 0.52633-0.13991 0.17545-0.41973 0.52633-0.27982 0.35088-0.13992 0.17544-0.13991 0.17545-0.27982 0.35088-0.13991 0.17545-0.55964 0.70177-0.13992 0.17544-0.13991 0.17544-0.13991 0.17545-0.55964 0.70177-0.27982 0.35088-0.41974 0.52633-0.13991 0.17545-0.27982 0.35088-0.13991 0.17545-0.27982 0.35088-0.13992 0.17544-0.13991 0.17545-0.27982 0.35088-0.14006 0.17546z" clip-path="url(#p1a558b8dcd-1)" fill="none" opacity=".6" stroke="#000" stroke-linejoin="round" stroke-miterlimit="100" stroke-width=".45579"/>
</g>
<g transform="matrix(2.1034 0 0 2.1034 431.93 30.511)" fill="none" stroke="#000" stroke-miterlimit="100" stroke-width=".45579">
<path d="m54 39.6-4.2185-5.053-0.19175-0.22967-2.301-2.7562-0.19175-0.22967-2.4928-2.9858-0.19175-0.22967-2.6845-3.2155-0.19175-0.22967-1.534-1.8374-3.6432-4.3639-0.19175-0.22967-1.3422-1.6078 0.10845-0.090101 0.10887-0.08959 0.10929-0.089079 0.10971-0.08856 0.11012-0.088039 0.11054-0.08753 0.11095-0.087 0.11136-0.086481 0.11177-0.08595 0.11217-0.08543 0.11257-0.0849 0.11297-0.08436 0.11336-0.08383 0.11376-0.0833 0.11415-0.08276 0.11454-0.08222 0.11493-0.08168 0.11531-0.08114 0.11569-0.08059 0.11607-0.08005 0.11644-0.079499 0.11682-0.07895 0.11719-0.078401 0.11755-0.07784 0.11793-0.07729 0.11828-0.076731 0.11865-0.07618 0.119-0.07562 0.11936-0.07505 0.11971-0.074491 0.12006-0.073919 0.12041-0.07336 0.12075-0.07279 0.12109-0.07222 0.12143-0.07165 0.12177-0.07108 0.12211-0.0705 0.12243-0.06992 0.12276-0.06935 0.12309-0.068769 0.12341-0.068191 0.12372-0.06761 0.12405-0.06702 0.12436-0.06644 0.12468-0.06585 0.12498-0.06526 0.12528-0.06467 0.1256-0.06408 0.12589-0.06349 0.12619-0.06289 0.12648-0.0623 0.12678-0.0617 0.12706-0.0611 0.12736-0.060511 0.12763-0.059899 0.12792-0.0593 0.12819-0.0587 0.12848-0.05809 0.12874-0.05749 0.12901-0.05688 0.12928-0.05627 0.12954-0.05566 0.1298-0.05505 0.13007-0.05444 0.13031-0.05382 0.13057-0.05321 0.13082-0.052589 0.13106-0.05198 0.13131-0.05136 0.13155-0.05074 0.13179-0.050119 0.13202-0.0495 0.13225-0.04887 0.13248-0.04825 0.13271-0.047629 0.13293-0.047 0.13315-0.046371 0.13336-0.04575 0.13359-0.04512 0.13379-0.04449 0.134-0.04386 0.1342-0.04322 0.13441-0.04259 0.13461-0.04196 0.1348-0.04132 0.135-0.04069 0.13519-0.04005 0.13537-0.039411 0.13556-0.03877 0.13574-0.03813 0.13592-0.03749 0.13609-0.03685 0.13626-0.03621 0.13644-0.03557 0.1366-0.03493 0.13676-0.03428 0.13693-0.03364 0.13708-0.03299 0.13723-0.03234 0.13738-0.0317 0.066578 0.2917 0.066582 0.2917 0.066578 0.29169 0.13316 0.5834 0.066578 0.2917 0.066582 0.2917 0.066578 0.2917 0.066582 0.2917 0.066578 0.29169 0.066582 0.2917 0.066578 0.2917 0.066582 0.2917 0.066578 0.2917 0.066582 0.2917 0.066582 0.29169 0.066578 0.2917 0.066582 0.2917 0.066578 0.2917 0.066582 0.2917 0.066578 0.2917 0.066582 0.29169 0.066578 0.2917 0.13316 0.5834 0.066578 0.2917 0.066582 0.2917 0.066578 0.2917 0.066582 0.29169 0.066578 0.2917 0.066582 0.2917 0.066578 0.2917 0.066582 0.2917 0.066578 0.2917 0.066582 0.29169 0.066582 0.2917 0.066578 0.2917 0.066582 0.2917 0.066578 0.2917 0.066582 0.2917 0.066578 0.2917 0.066582 0.29169 0.066578 0.2917 0.066582 0.2917 0.066578 0.2917 0.19974 0.87509 0.066582 0.2917 0.066578 0.2917 0.066582 0.2917 0.066578 0.2917 0.066582 0.2917 0.066578 0.29169 0.066582 0.2917 0.066578 0.2917 0.13316 0.5834 0.066578 0.2917 0.066582 0.2917 0.066578 0.29169 0.066582 0.2917 0.066578 0.2917 0.066582 0.2917 0.066578 0.2917 0.066582 0.2917 0.066578 0.29169 0.13316 0.5834 0.066578 0.2917 0.066582 0.2917 0.066578 0.2917 0.066582 0.29169 0.066578 0.2917 0.066582 0.2917 0.066578 0.2917 0.13316 0.5834 0.066578 0.2917 0.066582 0.29169 0.066578 0.2917 0.066582 0.2917 0.066578 0.2917 0.066582 0.2917 0.066578 0.2917 0.066582 0.29169 0.066578 0.2917 0.13316 0.5834 0.066578 0.2917 0.066582 0.2917 0.066578 0.2917 0.066582 0.29169 0.066578 0.2917 0.066582 0.2917 0.066578 0.2917 0.066582 0.2917 0.066578 0.2917 0.066582 0.29169 0.06641 0.29168z" clip-path="url(#p1a558b8dcd-1)" fill="none" opacity=".6" stroke="#000" stroke-linejoin="round" stroke-miterlimit="100" stroke-width=".45579"/>
</g>
<g transform="matrix(2.1034 0 0 2.1034 431.93 30.511)" fill="none" stroke="#000" stroke-miterlimit="100" stroke-width=".45579">
<path d="m54 39.6-0.25759 0.046753-2.8335 0.51425-22.668 4.114-0.02886-0.16194-0.027842-0.16212-0.026829-0.16229-0.025801-0.16246-0.02478-0.16262-0.02376-0.16277-0.022739-0.16291-0.021709-0.16305-0.020691-0.16319-0.019659-0.16331-0.018641-0.16344-0.017611-0.16355-0.016579-0.16365-0.015551-0.16376-0.014521-0.16385-0.013489-0.16394-0.012461-0.16402-0.011431-0.1641-0.010399-0.16416-0.009401-0.16423-0.008299-0.16428-0.007301-0.16433-0.0063-0.16437-0.005199-0.16441-0.0042-0.16444-0.003201-0.16447-0.0021-0.16448-0.001099-0.16449-7.1e-5 -0.16449 9.59e-4 -0.16449 0.002001-0.16448 3e-3 -0.16447 0.004099-0.16444 0.0051-0.16441 0.0061-0.16438 0.0072-0.16434 0.0082-0.16429 0.009201-0.16424 0.01026-0.16417 0.01129-0.16411 0.01232-0.16403 0.013351-0.16395 0.01438-0.16386 0.015409-0.16377 0.01643-0.16367 0.01746-0.16357 0.01849-0.16345 0.019522-0.16333 0.020538-0.16321 0.02157-0.16307 0.022591-0.16293 0.023621-0.16279 0.024639-0.16264 0.02566-0.16248 0.02668-0.16232 0.0277-0.16214 0.028721-0.16197 0.02973-0.16178 0.03075-0.1616 0.031769-0.16139 0.03278-0.1612 0.033791-0.16098 0.0348-0.16077 0.03581-0.16055 0.036819-0.16032 0.03783-0.16009 0.03883-0.15984 0.039831-0.1596 0.04084-0.15934 0.04184-0.15909 0.042839-0.15881 0.043831-0.15855 0.04483-0.15827 0.04582-0.15798 0.04681-0.15769 0.047798-0.1574 0.04879-0.15709 0.049782-0.15678 0.050758-0.15646 0.051741-0.15615 0.052721-0.15581 0.053699-0.15548 0.05468-0.15514 0.055649-0.1548 0.056622-0.15444 0.057589-0.15408 0.058561-0.15372 0.059519-0.15334 0.060492-0.15297 0.061449-0.15259 0.062401-0.1522 0.063358-0.1518 0.06431-0.1514 0.06526-0.15099 0.066212-0.15059 0.06715-0.15016 0.068089-0.14973 0.069031-0.14931 0.069969-0.14887 0.070911-0.14843 0.47175 0.22718 0.23587 0.11359 0.23587 0.1136 0.23588 0.11359 1.887 0.90872 0.70762 0.34077 12.501 6.0203 0.23587 0.1136 0.23588 0.11359 2.5946 1.2495 0.23587 0.1136 0.23588 0.11359 2.5946 1.2495 0.94349 0.45437 0.23573 0.11321z" clip-path="url(#p1a558b8dcd-1)" fill="none" opacity=".6" stroke="#000" stroke-linejoin="round" stroke-miterlimit="100" stroke-width=".45579"/>
</g>
<g transform="matrix(2.1034 0 0 2.1034 431.93 30.511)" fill="none" opacity=".938" stroke="#000" stroke-miterlimit="100" stroke-width=".45579">
<path d="m54 39.6-0.36891 0.25557-0.36892 0.25557-0.12297 0.085197-0.36891 0.25557-0.49189 0.34076-0.12297 0.085197-0.12297 0.08519-0.24595 0.17038-0.12297 0.085194-0.36891 0.25557-0.12297 0.085197-0.12298 0.08519-0.36891 0.25557-0.12297 0.08519-0.12297 0.085197-0.24595 0.17039-0.86081 0.59634-0.12297 0.085201-0.49188 0.34076-0.12298 0.08519-0.12297 0.085201-0.12297 0.08519-0.12297 0.085197-0.24594 0.17038-0.36892 0.25557-0.12297 0.085201-0.36891 0.25557-0.12298 0.08519-0.36891 0.25557-0.12297 0.085201-0.24594 0.17038-0.61486 0.42595-0.12297 0.085201-1.7216 1.1927-0.12298 0.08519-0.12297 0.085201-0.49188 0.34076-0.36892 0.25557-0.12297 0.085201-0.36891 0.25557-0.12298 0.08519-0.36891 0.25557-0.013371-0.019329-0.01334-0.019348-0.013309-0.019371-0.013279-0.01939-0.013252-0.019409-0.01321-0.019432-0.01318-0.019447-0.013149-0.01947-0.013119-0.019489-0.013092-0.019512-0.013058-0.019539-0.013031-0.01955-0.013-0.019581-0.01297-0.0196-0.012939-0.019619-0.012909-0.019642-0.012882-0.019657-0.012848-0.01968-0.01281-0.019703-0.012791-0.019718-0.012753-0.019741-0.012718-0.01976-0.012691-0.019779-0.012657-0.019802-0.01263-0.019817-0.0126-0.01984-0.012569-0.019859-0.012543-0.019882-0.012501-0.019897-0.012466-0.01992-0.012444-0.019932-0.012409-0.019951-0.012379-0.01997-0.012352-0.019989-0.012318-0.020008-0.01228-0.020031-0.012253-0.02005-0.012218-0.020069-0.012188-0.020092-0.012161-0.020111-0.012131-0.020126-0.0121-0.020153-0.012058-0.020168-0.012032-0.02018-0.012001-0.020203-0.011971-0.020218-0.01194-0.020241-0.011898-0.02026-0.011871-0.020279-0.011841-0.020302-0.011806-0.020317-0.01178-0.02034-0.011742-0.020351-0.011711-0.02037-0.011681-0.02039-0.01165-0.020409-0.01162-0.020432-0.011589-0.020439-0.011551-0.020462-0.01152-0.020477-0.01149-0.0205-0.011459-0.020523-0.011429-0.020538-0.011391-0.02055-0.01136-0.020569-0.01133-0.020592-0.011299-0.020611-0.011261-0.020618-0.01123-0.020641-0.0112-0.02066-0.011169-0.020679-0.011131-0.020691-0.011097-0.02071-0.01107-0.020729-0.011032-0.020748-0.010998-0.02076-0.010971-0.020782-0.010941-0.020798-0.01091-0.020821-0.010868-0.020832-0.010841-0.020847-0.010811-0.02087-0.010769-0.020882-0.010742-0.020901-0.010708-0.02092-0.01067-0.020927-0.010639-0.02095-0.010612-0.020973-0.010578-0.020977-0.01054-0.021-0.010509-0.021023-0.010483-0.021027-0.010437-0.021053-0.01041-0.021069-0.01038-0.02108-0.010342-0.021099-0.010311-0.021122-0.010281-0.02113-0.01025-0.021149-0.010208-0.02116 0.13478-0.064911 0.80871-0.38946 0.26957-0.12982 0.26957-0.12982 0.13479-0.064907 0.13478-0.064911 0.26957-0.12982 0.13479-0.064907 0.13478-0.064911 0.26957-0.12982 0.13479-0.064907 0.13478-0.064911 0.26957-0.12982 2.4262-1.1684 0.13479-0.064907 0.13478-0.064911 0.26957-0.12982 0.13479-0.064907 0.13478-0.064911 0.26957-0.12982 0.13479-0.064907 0.13478-0.064911 1.0783-0.51928 0.26957-0.12982 1.3479-0.6491 0.13479-0.064907 0.26956-0.12982 1.3478-0.6491 0.13479-0.064907 0.13478-0.064911 0.26957-0.12982 0.13479-0.064907 0.13478-0.064911 0.26957-0.12982 0.13479-0.064907 0.13478-0.064911 0.26957-0.12982 0.40436-0.19473 0.13476-0.064442z" clip-path="url(#p1a558b8dcd-1)" fill="none" opacity=".6" stroke="#000" stroke-linejoin="round" stroke-miterlimit="100" stroke-width=".45579"/>
</g>
<g transform="matrix(2.1034 0 0 2.1034 431.93 30.511)" fill="none" stroke="#000" stroke-miterlimit="100" stroke-width=".45579">
<path d="m54 39.6 0.031319 0.18436 0.031322 0.18435 0.062638 0.36872 0.031322 0.18436 0.031319 0.18436 0.031319 0.18435 0.031322 0.18436 0.031319 0.18436 0.031322 0.18436 0.031319 0.18436 0.031319 0.18435 0.031322 0.18436 0.062638 0.36872 0.031322 0.18435 0.062638 0.36872 0.031322 0.18436 0.031319 0.18436 0.031319 0.18435 0.031322 0.18436 0.062638 0.36872 0.031322 0.18436 0.031319 0.18435 0.031319 0.18436 0.031322 0.18436 0.031319 0.18436 0.031322 0.18435 0.062638 0.36872 0.031322 0.18436 0.031319 0.18436 0.031319 0.18435 0.031322 0.18436 0.062638 0.36872 0.031322 0.18436 0.031319 0.18435 0.031319 0.18436 0.031322 0.18436 0.062638 0.36872 0.031322 0.18435 0.062638 0.36872 0.031322 0.18436 0.031319 0.18435 0.031322 0.18436 0.062638 0.36872 0.031322 0.18436 0.031319 0.18435 0.031319 0.18436 0.031322 0.18436 0.062638 0.36872 0.031322 0.18435 0.062638 0.36872 0.031322 0.18436 0.031319 0.18435 0.031319 0.18436 0.031322 0.18436 0.062638 0.36872 0.031322 0.18435 0.031319 0.18436 0.031322 0.18436 0.062638 0.36872 0.031322 0.18435 0.062638 0.36872 0.031322 0.18436 0.031319 0.18436 0.031319 0.18435 0.031322 0.18436 0.062638 0.36872 0.031322 0.18435 0.062638 0.36872 0.031322 0.18436 0.031319 0.18436 0.031319 0.18435 0.031322 0.18436 0.031319 0.18436 0.031322 0.18436 0.031319 0.18436 0.031319 0.18435 0.031322 0.18436 0.062638 0.36872 0.031322 0.18436 0.031319 0.18435 0.031319 0.18436 0.031322 0.18436 0.031319 0.18436-0.072418 0.012161-0.072472 0.011868-0.07251 0.011593-0.072559 0.011311-0.072601 0.011017-0.072651 0.010742-0.072689 0.010448-0.072731 0.010162-0.072769 0.009899-0.072811 0.009598-0.072838 0.0093-0.07288 0.009003-0.07291 0.008698-0.072952 0.0084-0.072979 0.008202-0.073009 0.0079-0.07304 0.007599-0.073071 0.007301-0.073101 7e-3 -0.073128 0.006699-0.073151 0.006401-0.073181 0.006199-0.0732 0.005901-0.073219 0.0056-0.073238 0.005299-0.073261 0.005001-0.07328 0.0047-0.073299 0.004398-0.073318 0.004101-0.07333 0.003799-0.073353 0.003601-0.073357 0.0033-0.073372 0.003002-0.07338 0.002697-0.073399 0.002399-0.073402 0.002102-0.07341 0.001801-0.073418 0.001499-0.073421 0.001301-0.073429 9.61e-4 -0.073433 6.79e-4 -0.073429 4.01e-4 -0.073441 9.9e-5 -0.073429-1.91e-4 -0.073429-4.69e-4 -0.073429-7.59e-4 -0.073433-0.001102-0.073418-0.001301-0.073421-0.001598-0.07341-0.0019-0.073399-0.002201-0.073391-0.002499-0.07338-0.0028-0.073372-0.003101-0.073357-0.003399-0.073341-0.003601-0.07333-0.003899-0.073311-0.0042-0.073299-0.004501-0.07328-0.004799-0.073261-0.0051-0.073238-0.005402-0.073219-0.005699-0.073193-0.005898-0.07317-0.006203-0.073139-0.0065-0.07312-0.006798-0.07309-0.007099-0.073059-0.007401-0.073032-0.007702-0.072998-0.007999-0.072971-0.008202-0.072937-0.008499-0.072903-0.008801-0.072868-0.009098-0.07283-0.009399-0.072792-0.009701-0.072758-0.010002-0.07272-0.010239-0.072681-0.010529-0.072628-0.010822-0.07259-0.011101-0.072552-0.011387-0.072498-0.011673-0.072453-0.011959-0.072411-0.012238-0.072357-0.01252-0.072311-0.012814-0.072262-0.013088-0.072208-0.013382-0.072151-0.013657-0.072098-0.013943-0.072041-0.014229-0.071991-0.014511-0.07193-0.01479-0.071869-0.015068-0.071812-0.01535-0.071751-0.01564-0.07169-0.015919-0.071617-0.016201 0.041607-0.18231 0.041611-0.18232 0.12483-0.54693 0.041607-0.18231 0.083222-0.36462 0.041611-0.18232 0.083222-0.36462 0.041607-0.18231 0.083222-0.36462 0.041611-0.18232 0.041611-0.18231 0.041607-0.18231 0.16644-0.72924 0.041607-0.18232 0.20806-0.91155 0.041607-0.18232 0.16644-0.72924 0.041607-0.18231 0.041611-0.18231 0.041611-0.18232 0.083222-0.36462 0.041607-0.18231 0.12483-0.54693 0.041611-0.18232 0.041611-0.18231 0.041607-0.18231 0.12483-0.54693 0.041611-0.18232 0.041607-0.18231 0.16644-0.72924 0.041607-0.18231 0.041611-0.18232 0.16644-0.72924 0.041607-0.18231 0.041611-0.18232 0.12483-0.54693 0.041607-0.18231 0.083222-0.36462 0.041611-0.18232 0.041611-0.18231 0.041607-0.18231 0.16644-0.72924 0.041607-0.18232 0.20806-0.91155 0.041607-0.18232 0.16644-0.72924 0.041607-0.18231 0.041611-0.18231 0.041611-0.18232 0.083222-0.36462 0.041607-0.18231 0.083222-0.36462 0.041611-0.18232 0.083222-0.36462 0.041607-0.18231 0.083222-0.36462 0.04208-0.18221z" clip-path="url(#p1a558b8dcd-1)" fill="none" opacity=".6" stroke="#000" stroke-linejoin="round" stroke-miterlimit="100" stroke-width=".45579"/>
</g>
<g transform="matrix(2.1034 0 0 2.1034 431.93 30.511)" fill="none" stroke="#000" stroke-miterlimit="100" stroke-width=".45579">
<path d="m54 39.6 0.70801 0.55173 0.236 0.18392 0.70801 0.55173 0.236 0.18391 1.416 1.1035 0.236 0.18392 0.23601 0.18391 0.708 0.55173 1.416 1.1035 0.236 0.18392 0.70801 0.55173 0.236 0.18391 1.416 1.1035 0.236 0.18392 0.23601 0.18391 1.888 1.4713 2.124 1.6552 0.23602 0.18391 0.236 0.18391 0.236 0.18392 0.47201 0.36782 0.708 0.55173 2.124 1.6552 0.23602 0.18391 0.236 0.18391 0.236 0.18392 0.94401 0.73564 0.236 0.18392 0.47201 0.36782 1.652 1.2874 2.596 2.023-0.043396 0.055561-0.043533 0.055447-0.043655 0.055351-0.043793 0.055252-0.043922 0.055138-0.044044 0.055042-0.044182 0.054939-0.044312 0.054829-0.044441 0.054729-0.044571 0.054623-0.044701 0.05452-0.044815 0.054409-0.044952 0.05431-0.045082 0.054199-0.045204 0.054092-0.045334 0.053989-0.045456 0.053879-0.045593 0.053772-0.045723 0.053669-0.045837 0.053558-0.045967 0.053452-0.046089 0.053341-0.046227 0.05323-0.046333 0.05312-0.046471 0.053009-0.046593 0.052898-0.046722 0.052792-0.046837 0.052681-0.046974 0.05257-0.047089 0.05246-0.047211 0.052349-0.04734 0.052238-0.047455 0.052132-0.047585 0.052021-0.047699 0.051899-0.047829 0.051788-0.047951 0.051682-0.048073 0.051571-0.048187 0.051449-0.048309 0.051338-0.048431 0.051231-0.048546 0.051109-0.048683 0.051003-0.04879 0.050877-0.04892 0.050774-0.049026 0.050648-0.049156 0.050529-0.049271 0.050423-0.049385 0.050297-0.049515 0.05019-0.049629 0.050072-0.049751 0.04995-0.049858 0.049831-0.04998 0.049717-0.050095 0.049603-0.050224 0.04948-0.050331 0.049358-0.050446 0.04924-0.05056 0.049129-0.050682 0.049011-0.050789 0.048889-0.050911 0.048771-0.051018 0.048649-0.05114 0.048531-0.051254 0.048409-0.051369 0.048283-0.051483 0.048161-0.05159 0.048038-0.051704 0.04792-0.051819 0.047798-0.051933 0.04768-0.05204 0.04755-0.052147 0.047432-0.052277 0.04731-0.052376 0.04718-0.05249 0.047058-0.052597 0.04694-0.052711 0.04681-0.052826 0.046692-0.052925 0.046558-0.05304 0.04644-0.053154 0.04631-0.053261 0.046192-0.053368 0.046059-0.053482 0.04594-0.053574 0.045811-0.053696 0.045677-0.053795 0.045563-0.053909 0.045429-0.054016 0.0453-0.054115 0.045181-0.05423 0.045048-0.054329 0.044922-0.054443 0.044788-0.054543 0.04467-0.054649 0.04454-0.054749 0.044411-0.054863 0.044281-0.054955 0.044147-0.055061 0.044022-0.18656-0.2339-0.3731-0.46784-0.37309-0.46785-0.18655-0.23392-0.18654-0.23393-0.18655-0.23392-0.18655-0.23393-1.3058-1.6374-0.37308-0.46785-0.18655-0.23392-0.3731-0.46785-0.18654-0.23392-0.18656-0.23393-0.37308-0.46784-0.18654-0.23393-0.18656-0.23392-0.93274-1.1696-0.74619-0.93569-0.55964-0.70178-0.3731-0.46784-0.93274-1.1696-0.3731-0.46785-0.18655-0.23393-0.37309-0.46785-0.3731-0.46784-0.93274-1.1696-0.18654-0.23393-0.18655-0.23392-0.55965-0.70177-0.18655-0.23393-0.37309-0.46785-0.3731-0.46784-0.18655-0.23393-0.18655-0.23392-0.37309-0.46785-0.18655-0.23392-0.18655-0.23393-0.18655-0.23392-0.37309-0.46785-0.3731-0.46784-0.3731-0.46785-0.18654-0.23393-0.18655-0.23392-0.3731-0.46785-0.93274-1.1696-0.18655-0.23393-0.18654-0.23392-0.18655-0.23392-0.7462-0.9357-0.37309-0.46785-0.18655-0.23392z" clip-path="url(#p1a558b8dcd-1)" fill="none" opacity=".6" stroke="#000" stroke-linejoin="round" stroke-miterlimit="100" stroke-width=".45579"/>
</g>
</g>
</g>
</svg>
