<svg xmlns="http://www.w3.org/2000/svg" xmlns:xlink="http://www.w3.org/1999/xlink" 
  viewBox="20 8 400 74"
>
 
 <g>
  <title>Layer 1</title>
  <g id="figure_1">
   <g id="axes_1">
    <g id="patch_2">
     <path d="m194.399994,81l69.119995,0l0,-72l-69.119995,0l0,72z" fill="transparent" id="svg_4"/>
    </g>
    <g id="patch_3">
     <path d="m197.541824,45l6.444748,0l0,-25.200001l-6.444748,0l0,25.200001z" fill="#1f77b4" clip-path="url(#p65e1c8b035)" id="svg_5"/>
    </g>
    <g id="patch_4">
     <path d="m205.597763,54.599998l6.444748,0l0,-9.599998l-6.444748,0l0,9.599998z" fill="#1f77b4" clip-path="url(#p65e1c8b035)" id="svg_6"/>
    </g>
    <g id="patch_5">
     <path d="m213.653702,45l6.444763,0l0,-13.200001l-6.444763,0l0,13.200001z" fill="#1f77b4" clip-path="url(#p65e1c8b035)" id="svg_7"/>
    </g>
    <g id="patch_6">
     <path d="m221.709656,45l6.444748,0l0,-30l-6.444748,0l0,30z" fill="#1f77b4" clip-path="url(#p65e1c8b035)" id="svg_8"/>
    </g>
    <g id="patch_7">
     <path d="m229.765594,70.199997l6.444748,0l0,-25.199997l-6.444748,0l0,25.199997z" fill="#1f77b4" clip-path="url(#p65e1c8b035)" id="svg_9"/>
    </g>
    <g id="patch_8">
     <path d="m237.821533,51l6.444763,0l0,-6l-6.444763,0l0,6z" fill="#1f77b4" clip-path="url(#p65e1c8b035)" id="svg_10"/>
    </g>
    <g id="patch_9">
     <path d="m245.877487,69l6.444748,0l0,-24l-6.444748,0l0,24z" fill="#1f77b4" clip-path="url(#p65e1c8b035)" id="svg_11"/>
    </g>
    <g id="patch_10">
     <path d="m253.933426,45l6.444748,0l0,-18l-6.444748,0l0,18z" fill="#1f77b4" clip-path="url(#p65e1c8b035)" id="svg_12"/>
    </g>
    <g id="patch_11">
     <path d="m194.399994,81l0,-72" stroke-linecap="square" stroke="transparent" fill="none" id="svg_13"/>
    </g>
    <g id="patch_12">
     <path d="m263.519989,81l0,-72" stroke-linecap="square" stroke="transparent" fill="none" id="svg_14"/>
    </g>
    <g id="patch_13">
     <path d="m194.399994,81l69.119995,0" stroke-linecap="square" stroke="transparent" fill="none" id="svg_15"/>
    </g>
    <g id="patch_14">
     <path d="m194.399994,9l69.119995,0" stroke-linecap="square" stroke="#transparent" fill="none" id="svg_16"/>
    </g>
    <g id="matplotlib.axis_1"/>
    <g id="matplotlib.axis_2"/>
   </g>
   <g id="axes_2">
    <g id="patch_15">
     <path d="m272.160004,81l69.119995,0l0,-72l-69.119995,0l0,72z" fill="transparent" id="svg_17"/>
    </g>
    <g id="line2d_1">
     <path d="m275.301819,28.258789l8.976624,-15.986062l8.976624,65.454545l8.976624,-3.725296l8.976624,1.461327l8.976624,-53.330997l8.976624,33.825352l8.976624,5.340912" stroke-width="1.5" stroke-linecap="square" stroke="#1f77b4" fill="none" clip-path="url(#p4dc94feb3b)" id="svg_18"/>
    </g>
    <g id="line2d_2">
     <path d="m275.301819,61.597885l8.976624,3.282936l8.976624,7.923553l8.976624,-27.71249l8.976624,7.468067l8.976624,16.267639l8.976624,-48.125965l8.976624,12.67572" stroke-width="1.5" stroke-linecap="square" stroke="#ff7f0e" fill="none" clip-path="url(#p4dc94feb3b)" id="svg_19"/>
    </g>
    <g id="line2d_3">
     <path d="m275.301819,61.030556l8.976624,-7.693592l8.976624,17.23827l8.976624,-45.263111l8.976624,34.324257l8.976624,-44.120311l8.976624,2.762202l8.976624,-2.57297" stroke-width="1.5" stroke-linecap="square" stroke="#2ca02c" fill="none" clip-path="url(#p4dc94feb3b)" id="svg_20"/>
    </g>
    <g id="line2d_4">
     <path d="m275.301819,24.671959l8.976624,0.079662l8.976624,29.61367l8.976624,-31.61834l8.976624,20.382851l8.976624,13.66291l8.976624,-20.444599l8.976624,-13.91395" stroke-width="1.5" stroke-linecap="square" stroke="#d62728" fill="none" clip-path="url(#p4dc94feb3b)" id="svg_21"/>
    </g>
    <g id="patch_16">
     <path d="m272.160004,81l0,-72" stroke-linecap="square" stroke="transparent" fill="none" id="svg_22"/>
    </g>
    <g id="patch_17">
     <path d="m341.279999,81l0,-72" stroke-linecap="square" stroke="transparent" fill="none" id="svg_23"/>
    </g>
    <g id="patch_18">
     <path d="m272.160004,81l69.119995,0" stroke-linecap="square" stroke="transparent" fill="none" id="svg_24"/>
    </g>
    <g id="patch_19">
     <path d="m272.160004,9l69.119995,0" stroke-linecap="square" stroke="transparent" fill="none" id="svg_25"/>
    </g>
    <g id="matplotlib.axis_3"/>
    <g id="matplotlib.axis_4"/>
   </g>
   <g id="axes_3">
    <g id="patch_20">
     <path d="m349.920013,81l69.119995,0l0,-72l-69.119995,0l0,72z" fill="transparent" id="svg_26"/>
    </g>
    <g id="PolyCollection_1">
     <defs>
      <path d="m353.061829,-31.491428l0,22.491428l6.981812,0l6.981812,0l6.981812,0l6.981842,0l6.981812,0l6.981812,0l6.981812,0l6.981812,0l6.981842,0l0,-13.165714l0,0l-6.981842,-7.13143l-6.981812,14.262858l-6.981812,-10.422858l-6.981812,6.034286l-6.981812,-9.874289l-6.981842,4.388575l-6.981812,-10.97143l-6.981812,18.102858l-6.981812,-13.714285z" id="m81de97919c"/>
     </defs>
     <g clip-path="url(#pfceed726e3)" id="svg_27">
      <use xlink:href="#m81de97919c" y="90" x="0" fill="#1f77b4" id="svg_28"/>
     </g>
    </g>
    <g id="PolyCollection_2">
     <defs>
      <path d="m353.061829,-56.725716l0,25.234287l6.981812,13.714285l6.981812,-18.102858l6.981812,10.97143l6.981842,-4.388573l6.981812,9.874287l6.981812,-6.034286l6.981812,10.422858l6.981812,-14.262858l6.981842,7.13143l0,-19.200001l0,0l-6.981842,-3.291428l-6.981812,7.68l-6.981812,4.937141l-6.981812,-0.548569l-6.981812,-14.811432l-6.981842,9.874287l-6.981812,-3.84l-6.981812,6.582859l-6.981812,-21.94286z" id="maaf380e772"/>
     </defs>
     <g clip-path="url(#pfceed726e3)" id="svg_29">
      <use xlink:href="#maaf380e772" y="90" x="0" fill="#ff7f0e" id="svg_30"/>
     </g>
    </g>
    <g id="PolyCollection_3">
     <defs>
      <path d="m353.061829,-77.571426l0,20.845711l6.981812,21.94286l6.981812,-6.582859l6.981812,3.84l6.981842,-9.874287l6.981812,14.811432l6.981812,0.548569l6.981812,-4.937141l6.981812,-7.68l6.981842,3.291428l0,-17.554283l0,0l-6.981842,-5.485718l-6.981812,14.811428l-6.981812,8.777145l-6.981812,1.645714l-6.981812,-11.519997l-6.981842,1.097137l-6.981812,-8.228569l-6.981812,1.645718l-6.981812,-21.394287z" id="m31c02dcfcb"/>
     </defs>
     <g clip-path="url(#pfceed726e3)" id="svg_31">
      <use xlink:href="#m31c02dcfcb" y="90" x="0" fill="#2ca02c" id="svg_32"/>
     </g>
    </g>
    <g id="patch_21">
     <path d="m349.920013,81l0,-72" stroke-linecap="square" stroke="transparent" fill="none" id="svg_33"/>
    </g>
    <g id="patch_22">
     <path d="m419.040009,81l0,-72" stroke-linecap="square" stroke="transparent" fill="none" id="svg_34"/>
    </g>
    <g id="patch_23">
     <path d="m349.920013,81l69.119995,0" stroke-linecap="square" stroke="transparent" fill="none" id="svg_35"/>
    </g>
    <g id="patch_24">
     <path d="m349.920013,9l69.119995,0" stroke-linecap="square" stroke="transparent" fill="none" id="svg_36"/>
    </g>
    <g id="matplotlib.axis_5"/>
    <g id="matplotlib.axis_6"/>
   </g>
   <g id="text_1">
    <!-- pandas -->
    <defs>
     <path fill="rgba(255,255,255,0.8)" d="m18.109375,8.203125l0,-29l-9.03125,0l0,75.484375l9.03125,0l0,-8.296875q2.84375,4.875 7.15625,7.234375q4.328125,2.375 10.328125,2.375q9.96875,0 16.1875,-7.90625q6.234375,-7.90625 6.234375,-20.796875q0,-12.890625 -6.234375,-20.8125q-6.21875,-7.90625 -16.1875,-7.90625q-6,0 -10.328125,2.375q-4.3125,2.375 -7.15625,7.25m30.578125,19.09375q0,9.90625 -4.078125,15.546875q-4.078125,5.640625 -11.203125,5.640625q-7.140625,0 -11.21875,-5.640625q-4.078125,-5.640625 -4.078125,-15.546875q0,-9.90625 4.078125,-15.546875q4.078125,-5.640625 11.21875,-5.640625q7.125,0 11.203125,5.640625q4.078125,5.640625 4.078125,15.546875" id="DejaVuSans-70"/>
     <path fill="rgba(255,255,255,0.8)" d="m34.28125,27.484375q-10.890625,0 -15.09375,-2.484375q-4.203125,-2.484375 -4.203125,-8.5q0,-4.78125 3.15625,-7.59375q3.15625,-2.796875 8.5625,-2.796875q7.484375,0 12,5.296875q4.515625,5.296875 4.515625,14.078125l0,2l-8.9375,0zm17.921875,3.71875l0,-31.203125l-8.984375,0l0,8.296875q-3.078125,-4.96875 -7.671875,-7.34375q-4.59375,-2.375 -11.234375,-2.375q-8.390625,0 -13.359375,4.71875q-4.953125,4.71875 -4.953125,12.625q0,9.21875 6.171875,13.90625q6.1875,4.6875 18.4375,4.6875l12.609375,0l0,0.890625q0,6.203125 -4.078125,9.59375q-4.078125,3.390625 -11.453125,3.390625q-4.6875,0 -9.140625,-1.125q-4.4375,-1.125 -8.53125,-3.375l0,8.3125q4.921875,1.90625 9.5625,2.84375q4.640625,0.953125 9.03125,0.953125q11.875,0 17.734375,-6.15625q5.859375,-6.140625 5.859375,-18.640625" id="DejaVuSans-61"/>
     <path fill="rgba(255,255,255,0.8)" d="m54.890625,33.015625l0,-33.015625l-8.984375,0l0,32.71875q0,7.765625 -3.03125,11.609375q-3.03125,3.859375 -9.078125,3.859375q-7.28125,0 -11.484375,-4.640625q-4.203125,-4.625 -4.203125,-12.640625l0,-30.90625l-9.03125,0l0,54.6875l9.03125,0l0,-8.5q3.234375,4.9375 7.59375,7.375q4.375,2.4375 10.09375,2.4375q9.421875,0 14.25,-5.828125q4.84375,-5.828125 4.84375,-17.15625" id="DejaVuSans-6e"/>
     <path fill="rgba(255,255,255,0.8)" d="m45.40625,46.390625l0,29.59375l8.984375,0l0,-75.984375l-8.984375,0l0,8.203125q-2.828125,-4.875 -7.15625,-7.25q-4.3125,-2.375 -10.375,-2.375q-9.90625,0 -16.140625,7.90625q-6.21875,7.921875 -6.21875,20.8125q0,12.890625 6.21875,20.796875q6.234375,7.90625 16.140625,7.90625q6.0625,0 10.375,-2.375q4.328125,-2.359375 7.15625,-7.234375m-30.609375,-19.09375q0,-9.90625 4.078125,-15.546875q4.078125,-5.640625 11.203125,-5.640625q7.125,0 11.21875,5.640625q4.109375,5.640625 4.109375,15.546875q0,9.90625 -4.109375,15.546875q-4.09375,5.640625 -11.21875,5.640625q-7.125,0 -11.203125,-5.640625q-4.078125,-5.640625 -4.078125,-15.546875" id="DejaVuSans-64"/>
     <path fill="rgba(255,255,255,0.8)" d="m44.28125,53.078125l0,-8.5q-3.796875,1.953125 -7.90625,2.921875q-4.09375,0.984375 -8.5,0.984375q-6.6875,0 -10.03125,-2.046875q-3.34375,-2.046875 -3.34375,-6.15625q0,-3.125 2.390625,-4.90625q2.390625,-1.78125 9.625,-3.390625l3.078125,-0.6875q9.5625,-2.046875 13.59375,-5.78125q4.03125,-3.734375 4.03125,-10.421875q0,-7.625 -6.03125,-12.078125q-6.03125,-4.4375 -16.578125,-4.4375q-4.390625,0 -9.15625,0.859375q-4.765625,0.859375 -10.03125,2.5625l0,9.28125q4.984375,-2.59375 9.8125,-3.890625q4.828125,-1.28125 9.578125,-1.28125q6.34375,0 9.75,2.171875q3.421875,2.171875 3.421875,6.125q0,3.65625 -2.46875,5.609375q-2.453125,1.953125 -10.8125,3.765625l-3.125,0.734375q-8.34375,1.75 -12.0625,5.390625q-3.703125,3.640625 -3.703125,9.984375q0,7.71875 5.46875,11.90625q5.46875,4.203125 15.53125,4.203125q4.96875,0 9.359375,-0.734375q4.40625,-0.71875 8.109375,-2.1875" id="DejaVuSans-73"/>
    </defs>
    <g transform="translate(21.6 45) scale(0.4, -0.4)" id="svg_37">
     <use xlink:href="#DejaVuSans-70" id="svg_38"/>
     <use xlink:href="#DejaVuSans-61" x="63.4766" id="svg_39"/>
     <use xlink:href="#DejaVuSans-6e" x="124.756" id="svg_40"/>
     <use xlink:href="#DejaVuSans-64" x="188.135" id="svg_41"/>
     <use xlink:href="#DejaVuSans-61" x="251.611" id="svg_42"/>
     <use xlink:href="#DejaVuSans-73" x="312.891" id="svg_43"/>
    </g>
   </g>
   <g id="text_2">
    <!-- $y_{it} = \beta^{\prime} x_{it} + \mu_{i} + \epsilon_{it}$ -->
    <defs>
     <path d="m8.40625,-14.3125q2.09375,-3.609375 7.3125,-3.609375q4.734375,0 8.203125,3.328125q3.46875,3.3125 5.59375,8.03125q2.125,4.703125 3.296875,9.640625q-4.4375,-4.203125 -9.625,-4.203125q-3.953125,0 -6.734375,1.359375q-2.78125,1.375 -4.328125,4.078125q-1.53125,2.71875 -1.53125,6.578125q0,3.265625 0.875,6.703125q0.890625,3.453125 2.46875,7.671875q1.59375,4.234375 2.765625,7.359375q1.3125,3.65625 1.3125,6q0,2.984375 -2.1875,2.984375q-3.96875,0 -6.53125,-4.078125q-2.5625,-4.078125 -3.78125,-9.109375q-0.1875,-0.640625 -0.828125,-0.640625l-1.171875,0q-0.828125,0 -0.828125,0.9375l0,0.28125q1.609375,5.96875 4.921875,10.578125q3.328125,4.609375 8.40625,4.609375q3.5625,0 6.03125,-2.34375q2.46875,-2.34375 2.46875,-5.953125q0,-1.859375 -0.828125,-3.90625q-0.4375,-1.21875 -2,-5.328125q-1.5625,-4.09375 -2.40625,-6.78125q-0.828125,-2.6875 -1.359375,-5.28125q-0.53125,-2.578125 -0.53125,-5.171875q0,-3.3125 1.40625,-5.609375q1.421875,-2.296875 4.5,-2.296875q6.203125,0 11.125,7.5625l7.578125,30.8125q0.328125,1.328125 1.546875,2.265625q1.234375,0.953125 2.640625,0.953125q1.21875,0 2.125,-0.78125q0.90625,-0.78125 0.90625,-2.046875q0,-0.578125 -0.09375,-0.78125l-9.921875,-39.796875q-1.3125,-5.125 -4.828125,-9.8125q-3.515625,-4.6875 -8.46875,-7.546875q-4.953125,-2.859375 -10.328125,-2.859375q-2.59375,0 -5.140625,1.015625q-2.53125,1 -4.09375,3q-1.5625,2 -1.5625,4.6875q0,2.734375 1.609375,4.734375q1.625,2 4.296875,2q1.625,0 2.71875,-1q1.09375,-1 1.09375,-2.609375q0,-2.296875 -1.71875,-4q-1.703125,-1.71875 -3.984375,-1.71875q-0.109375,0.046875 -0.203125,0.078125q-0.09375,0.015625 -0.1875,0.015625" id="Cmmi10-79"/>
     <path d="m7.8125,7.171875q0,1.859375 0.78125,3.90625l8.109375,21.546875q1.3125,3.65625 1.3125,6q0,2.984375 -2.1875,2.984375q-3.96875,0 -6.53125,-4.078125q-2.5625,-4.078125 -3.78125,-9.109375q-0.1875,-0.640625 -0.828125,-0.640625l-1.171875,0q-0.828125,0 -0.828125,0.9375l0,0.28125q1.609375,5.96875 4.921875,10.578125q3.328125,4.609375 8.40625,4.609375q3.5625,0 6.03125,-2.34375q2.46875,-2.34375 2.46875,-5.953125q0,-1.859375 -0.828125,-3.90625l-8.109375,-21.484375q-1.375,-3.328125 -1.375,-6q0,-2.984375 2.296875,-2.984375q3.90625,0 6.515625,4.171875q2.625,4.171875 3.6875,9.015625q0.203125,0.578125 0.78125,0.578125l1.234375,0q0.390625,0 0.625,-0.265625q0.25,-0.265625 0.25,-0.609375q0,-0.09375 -0.09375,-0.296875q-1.375,-5.65625 -4.765625,-10.453125q-3.390625,-4.78125 -8.421875,-4.78125q-3.515625,0 -6.015625,2.421875q-2.484375,2.421875 -2.484375,5.875m11.28125,53.421875q0,2.109375 1.75,3.8125q1.765625,1.703125 3.859375,1.703125q1.71875,0 2.8125,-1.046875q1.09375,-1.046875 1.09375,-2.65625q0,-2.25 -1.78125,-3.9375q-1.78125,-1.6875 -3.921875,-1.6875q-1.609375,0 -2.71875,1.09375q-1.09375,1.109375 -1.09375,2.71875" id="Cmmi10-69"/>
     <path d="m6.203125,8.109375q0,1.46875 0.296875,2.78125l7.21875,28.703125l-10.5,0q-1.015625,0 -1.015625,1.328125q0.390625,2.1875 1.3125,2.1875l11.078125,0l4.015625,16.3125q0.390625,1.328125 1.5625,2.25q1.171875,0.921875 2.625,0.921875q1.28125,0 2.125,-0.765625q0.859375,-0.75 0.859375,-2.015625q0,-0.296875 -0.03125,-0.46875q-0.015625,-0.15625 -0.0625,-0.359375l-4,-15.875l10.296875,0q1.03125,0 1.03125,-1.3125q-0.0625,-0.25 -0.203125,-0.84375q-0.140625,-0.578125 -0.390625,-0.96875q-0.25,-0.390625 -0.734375,-0.390625l-10.890625,0l-7.171875,-28.90625q-0.734375,-2.828125 -0.734375,-4.875q0,-4.296875 2.9375,-4.296875q4.390625,0 7.78125,4.125q3.390625,4.125 5.203125,9.0625q0.390625,0.578125 0.78125,0.578125l1.21875,0q0.390625,0 0.625,-0.265625q0.25,-0.265625 0.25,-0.609375q0,-0.203125 -0.09375,-0.296875q-2.203125,-6.046875 -6.40625,-10.640625q-4.1875,-4.59375 -9.609375,-4.59375q-3.953125,0 -6.671875,2.578125q-2.703125,2.59375 -2.703125,6.65625" id="Cmmi10-74"/>
     <path d="m7.515625,13.28125q-0.828125,0 -1.375,0.625q-0.53125,0.640625 -0.53125,1.375q0,0.828125 0.53125,1.40625q0.546875,0.59375 1.375,0.59375l62.796875,0q0.734375,0 1.265625,-0.59375q0.546875,-0.578125 0.546875,-1.40625q0,-0.734375 -0.546875,-1.375q-0.53125,-0.625 -1.265625,-0.625l-62.796875,0zm0,19.4375q-0.828125,0 -1.375,0.578125q-0.53125,0.59375 -0.53125,1.421875q0,0.734375 0.53125,1.359375q0.546875,0.640625 1.375,0.640625l62.796875,0q0.734375,0 1.265625,-0.640625q0.546875,-0.625 0.546875,-1.359375q0,-0.828125 -0.546875,-1.421875q-0.53125,-0.578125 -1.265625,-0.578125l-62.796875,0z" id="Cmr10-3d"/>
     <path d="m2.6875,-19.390625q-0.296875,0 -0.546875,0.34375q-0.234375,0.34375 -0.234375,0.640625l15.375,61.8125q1.328125,4.984375 3.859375,9.671875q2.546875,4.6875 6.375,8.71875q3.828125,4.03125 8.421875,6.375q4.59375,2.34375 9.765625,2.34375q3.71875,0 6.71875,-1.640625q3,-1.640625 4.734375,-4.59375q1.734375,-2.953125 1.734375,-6.65625q0,-3.578125 -1.375,-6.828125q-1.359375,-3.234375 -3.8125,-6.046875q-2.4375,-2.8125 -5.21875,-4.5625q1.609375,-1.03125 2.875,-2.625q1.28125,-1.578125 2.0625,-3.3125q0.78125,-1.734375 1.21875,-3.859375q0.4375,-2.125 0.4375,-3.96875q0,-5.125 -2.203125,-10.109375q-2.1875,-4.984375 -5.984375,-9.046875q-3.78125,-4.046875 -8.671875,-6.421875q-4.875,-2.359375 -10,-2.359375q-5.609375,0 -10.109375,3.078125q-4.484375,3.078125 -6.1875,8.34375l-7.234375,-28.703125q0,-0.59375 -0.78125,-0.59375l-1.21875,0zm25.734375,20.609375q4.484375,0 8.125,2.953125q3.640625,2.953125 6,7.421875q2.375,4.46875 3.609375,9.46875q1.25,5.015625 1.25,9.109375q0,5.078125 -2.921875,8.015625q-3.421875,-1.265625 -6.6875,-1.265625q-7.90625,0 -7.90625,2.671875q0,3.515625 9.03125,3.515625q3.21875,0 5.90625,-1.015625q2.140625,1.65625 3.890625,4.875q1.765625,3.234375 2.671875,6.75q0.90625,3.515625 0.90625,6.578125q0,3.28125 -1.734375,5.453125q-1.734375,2.171875 -5.046875,2.171875q-6.109375,0 -11.359375,-3.765625q-5.25,-3.75 -8.859375,-9.5q-3.609375,-5.734375 -5.171875,-11.828125l-5.53125,-22.125q-0.53125,-2.296875 -0.671875,-5.125q0,-6.25 4.09375,-10.3125q4.109375,-4.046875 10.40625,-4.046875m4.484375,38.671875q1.515625,-0.390625 4.984375,-0.390625q1.703125,0 3.421875,0.59375q-0.09375,0.09375 -0.390625,0.09375q-1.078125,0.296875 -2.296875,0.296875q-4.546875,0 -5.71875,-0.59375" id="Cmmi10-af"/>
     <path d="m3.515625,5.421875q-0.640625,0.1875 -0.640625,0.96875l12.21875,45.421875q0.578125,1.84375 1.984375,2.96875q1.421875,1.125 3.234375,1.125q2.34375,0 4.125,-1.546875q1.78125,-1.53125 1.78125,-3.875q0,-1.015625 -0.53125,-2.296875l-18.0625,-43.203125q-0.34375,-0.6875 -0.9375,-0.6875q-0.53125,0 -1.6875,0.484375q-1.140625,0.5 -1.484375,0.640625" id="Cmsy10-30"/>
     <path d="m7.8125,2.875q1.765625,-1.359375 4.984375,-1.359375q3.125,0 5.515625,3q2.390625,3 3.265625,6.5625l4.546875,17.734375q1.078125,4.828125 1.078125,6.59375q0,2.484375 -1.390625,4.34375q-1.390625,1.859375 -3.890625,1.859375q-3.171875,0 -5.953125,-1.984375q-2.78125,-1.984375 -4.6875,-5.03125q-1.90625,-3.046875 -2.6875,-6.171875q-0.1875,-0.640625 -0.78125,-0.640625l-1.21875,0q-0.78125,0 -0.78125,0.9375l0,0.28125q0.96875,3.71875 3.3125,7.25q2.34375,3.546875 5.734375,5.734375q3.40625,2.203125 7.265625,2.203125q3.65625,0 6.609375,-1.953125q2.953125,-1.953125 4.171875,-5.3125q1.71875,3.0625 4.375,5.15625q2.65625,2.109375 5.828125,2.109375q2.15625,0 4.390625,-0.765625q2.25,-0.75 3.671875,-2.3125q1.421875,-1.5625 1.421875,-3.90625q0,-2.53125 -1.640625,-4.375q-1.640625,-1.828125 -4.171875,-1.828125q-1.609375,0 -2.6875,1.03125q-1.078125,1.03125 -1.078125,2.59375q0,2.09375 1.4375,3.671875q1.453125,1.59375 3.453125,1.890625q-1.8125,1.421875 -4.984375,1.421875q-3.21875,0 -5.59375,-2.984375q-2.359375,-2.984375 -3.34375,-6.640625l-4.390625,-17.671875q-1.078125,-4.015625 -1.078125,-6.59375q0,-2.546875 1.4375,-4.375q1.4375,-1.828125 3.84375,-1.828125q4.6875,0 8.359375,4.125q3.6875,4.125 4.859375,9.0625q0.203125,0.578125 0.78125,0.578125l1.234375,0q0.390625,0 0.625,-0.265625q0.25,-0.265625 0.25,-0.609375q0,-0.09375 -0.09375,-0.296875q-1.421875,-5.953125 -5.96875,-10.59375q-4.53125,-4.640625 -10.25,-4.640625q-3.65625,0 -6.609375,1.96875q-2.953125,1.984375 -4.1875,5.359375q-1.5625,-2.9375 -4.328125,-5.140625q-2.75,-2.1875 -5.875,-2.1875q-2.140625,0 -4.421875,0.765625q-2.265625,0.75 -3.6875,2.3125q-1.40625,1.5625 -1.40625,3.953125q0,2.34375 1.625,4.265625q1.640625,1.9375 4.09375,1.9375q1.65625,0 2.78125,-1q1.125,-1 1.125,-2.609375q0,-2.109375 -1.40625,-3.671875q-1.390625,-1.5625 -3.484375,-1.953125" id="Cmmi10-78"/>
     <path d="m7.515625,23q-0.828125,0 -1.375,0.625q-0.53125,0.640625 -0.53125,1.375q0,0.734375 0.53125,1.359375q0.546875,0.640625 1.375,0.640625l29.40625,0l0,29.5q0,0.78125 0.578125,1.28125q0.59375,0.515625 1.421875,0.515625q0.734375,0 1.359375,-0.515625q0.640625,-0.5 0.640625,-1.28125l0,-29.5l29.390625,0q0.734375,0 1.265625,-0.640625q0.546875,-0.625 0.546875,-1.359375q0,-0.734375 -0.546875,-1.375q-0.53125,-0.625 -1.265625,-0.625l-29.390625,0l0,-29.5q0,-0.78125 -0.640625,-1.28125q-0.625,-0.515625 -1.359375,-0.515625q-0.828125,0 -1.421875,0.515625q-0.578125,0.5 -0.578125,1.28125l0,29.5l-29.40625,0z" id="Cmr10-2b"/>
     <path d="m2.78125,-18.796875q0,0.578125 0.09375,0.78125l14.703125,59.03125q0.4375,1.421875 1.578125,2.296875q1.15625,0.875 2.625,0.875q1.265625,0 2.140625,-0.765625q0.890625,-0.75 0.890625,-2.015625q0,-0.296875 -0.03125,-0.46875q-0.03125,-0.171875 -0.078125,-0.359375l-5.90625,-23.390625q-0.96875,-4.15625 -0.96875,-7.171875q0,-3.71875 1.75,-6.109375q1.765625,-2.390625 5.328125,-2.390625q7.265625,0 12.796875,9.078125q0.046875,0.09375 0.0625,0.140625q0.03125,0.0625 0.03125,0.15625l7.21875,29q0.34375,1.328125 1.5625,2.265625q1.21875,0.953125 2.640625,0.953125q1.171875,0 2.078125,-0.78125q0.90625,-0.78125 0.90625,-2.046875q0,-0.578125 -0.109375,-0.78125l-7.171875,-28.8125q-0.734375,-2.828125 -0.734375,-4.875q0,-4.296875 2.9375,-4.296875q3.125,0 4.703125,3.859375q1.59375,3.859375 2.765625,9.328125q0.1875,0.578125 0.828125,0.578125l1.171875,0q0.390625,0 0.65625,-0.3125q0.265625,-0.3125 0.265625,-0.65625q-1.75,-6.984375 -3.828125,-11.21875q-2.078125,-4.21875 -6.765625,-4.21875q-3.3125,0 -5.875,1.90625q-2.5625,1.90625 -3.34375,5.125q-2.5,-3.125 -5.84375,-5.078125q-3.34375,-1.953125 -7.046875,-1.953125q-6.25,0 -9.828125,2.9375l-5.078125,-20.21875q-0.28125,-1.421875 -1.453125,-2.296875q-1.171875,-0.875 -2.640625,-0.875q-1.21875,0 -2.125,0.765625q-0.90625,0.75 -0.90625,2.015625" id="Cmmi10-b9"/>
     <path d="m12.3125,14.109375q0,-3.359375 1.21875,-6.25q1.21875,-2.875 3.671875,-4.609375q2.46875,-1.734375 5.796875,-1.734375q2.25,0 4.78125,0.96875q2.546875,0.984375 4.71875,2.15625q2.171875,1.171875 2.21875,1.171875q0.53125,0 0.84375,-0.609375q0.328125,-0.609375 0.328125,-1.203125q0,-0.53125 -0.296875,-0.671875q-6.25,-4.453125 -12.6875,-4.453125q-5.28125,0 -9.53125,2.46875q-4.25,2.46875 -6.5625,6.859375q-2.3125,4.390625 -2.3125,9.625q0,5.171875 2.09375,9.828125q2.09375,4.671875 5.796875,8.140625q3.71875,3.46875 8.40625,5.390625q4.6875,1.921875 9.8125,1.921875l5.671875,0q1.515625,0 1.515625,-1.5q0,-0.84375 -0.5625,-1.4375q-0.5625,-0.578125 -1.34375,-0.578125l-5.46875,0q-4,0 -7.25,-1.765625q-3.25,-1.75 -5.453125,-4.875q-2.1875,-3.125 -3.40625,-7.078125l17.671875,0q0.6875,0 1.09375,-0.421875q0.421875,-0.40625 0.421875,-1.03125q0,-0.84375 -0.546875,-1.4375q-0.53125,-0.578125 -1.359375,-0.578125l-18.21875,0q-1.0625,-5.171875 -1.0625,-8.296875" id="Cmmi10-b2"/>
    </defs>
    <g transform="translate(21.6 72) scale(0.16, -0.16)" fill="#5a89a4" id="svg_44">
     <use xlink:href="#Cmmi10-79" y="0.601562" x="0" id="svg_45"/>
     <use xlink:href="#Cmmi10-69" transform="translate(49.0234 -16.4047) scale(0.7)" id="svg_46"/>
     <use xlink:href="#Cmmi10-74" transform="translate(73.1201 -16.4047) scale(0.7)" id="svg_47"/>
     <use xlink:href="#Cmr10-3d" y="0.601562" x="122.315" id="svg_48"/>
     <use xlink:href="#Cmmi10-af" y="0.601562" x="217.559" id="svg_49"/>
     <use xlink:href="#Cmsy10-30" transform="translate(285.885 38.8656) scale(0.7)" id="svg_50"/>
     <use xlink:href="#Cmmi10-78" y="0.601562" x="311.506" id="svg_51"/>
     <use xlink:href="#Cmmi10-69" transform="translate(368.586 -16.4047) scale(0.7)" id="svg_52"/>
     <use xlink:href="#Cmmi10-74" transform="translate(392.683 -16.4047) scale(0.7)" id="svg_53"/>
     <use xlink:href="#Cmr10-2b" y="0.601562" x="441.877" id="svg_54"/>
     <use xlink:href="#Cmmi10-b9" y="0.601562" x="537.121" id="svg_55"/>
     <use xlink:href="#Cmmi10-69" transform="translate(597.327 -16.4047) scale(0.7)" id="svg_56"/>
     <use xlink:href="#Cmr10-2b" y="0.601562" x="645.359" id="svg_57"/>
     <use xlink:href="#Cmmi10-b2" y="0.601562" x="740.603" id="svg_58"/>
     <use xlink:href="#Cmmi10-69" transform="translate(781.082 -16.4047) scale(0.7)" id="svg_59"/>
     <use xlink:href="#Cmmi10-74" transform="translate(805.178 -16.4047) scale(0.7)" id="svg_60"/>
    </g>
   </g>
  </g>
 </g>
</svg>