<?xml version="1.0" encoding="UTF-8"?>
<svg viewBox="20 8 400 74" xmlns="http://www.w3.org/2000/svg" xmlns:xlink="http://www.w3.org/1999/xlink">
<g>
<title>Layer 1</title>
<path d="m194.4 81h69.12v-72h-69.12v72z" fill="transparent"/>
<path d="m197.54 45h6.4447v-25.2h-6.4447v25.2z" clip-path="url(#p65e1c8b035)" fill="#1f77b4"/>
<path d="m205.6 54.6h6.4447v-9.6h-6.4447v9.6z" clip-path="url(#p65e1c8b035)" fill="#1f77b4"/>
<path d="m213.65 45h6.4448v-13.2h-6.4448v13.2z" clip-path="url(#p65e1c8b035)" fill="#1f77b4"/>
<path d="m221.71 45h6.4447v-30h-6.4447v30z" clip-path="url(#p65e1c8b035)" fill="#1f77b4"/>
<path d="m229.77 70.2h6.4447v-25.2h-6.4447v25.2z" clip-path="url(#p65e1c8b035)" fill="#1f77b4"/>
<path d="m237.82 51h6.4448v-6h-6.4448v6z" clip-path="url(#p65e1c8b035)" fill="#1f77b4"/>
<path d="m245.88 69h6.4447v-24h-6.4447v24z" clip-path="url(#p65e1c8b035)" fill="#1f77b4"/>
<path d="m253.93 45h6.4447v-18h-6.4447v18z" clip-path="url(#p65e1c8b035)" fill="#1f77b4"/>
<path d="m194.4 81v-72" fill="none" stroke="transparent" stroke-linecap="square"/>
<path d="m263.52 81v-72" fill="none" stroke="transparent" stroke-linecap="square"/>
<path d="m194.4 81h69.12" fill="none" stroke="transparent" stroke-linecap="square"/>
<path d="m194.4 9h69.12" fill="none" stroke="#transparent" stroke-linecap="square"/>
<path d="m272.16 81h69.12v-72h-69.12v72z" fill="transparent"/>
<path d="m275.3 28.259 8.9766-15.986 8.9766 65.455 8.9766-3.7253 8.9766 1.4613 8.9766-53.331 8.9766 33.825 8.9766 5.3409" clip-path="url(#p4dc94feb3b)" fill="none" stroke="#1f77b4" stroke-linecap="square" stroke-width="1.5"/>
<path d="m275.3 61.598 8.9766 3.2829 8.9766 7.9236 8.9766-27.712 8.9766 7.4681 8.9766 16.268 8.9766-48.126 8.9766 12.676" clip-path="url(#p4dc94feb3b)" fill="none" stroke="#ff7f0e" stroke-linecap="square" stroke-width="1.5"/>
<path d="m275.3 61.031 8.9766-7.6936 8.9766 17.238 8.9766-45.263 8.9766 34.324 8.9766-44.12 8.9766 2.7622 8.9766-2.573" clip-path="url(#p4dc94feb3b)" fill="none" stroke="#2ca02c" stroke-linecap="square" stroke-width="1.5"/>
<path d="m275.3 24.672 8.9766 0.079662 8.9766 29.614 8.9766-31.618 8.9766 20.383 8.9766 13.663 8.9766-20.445 8.9766-13.914" clip-path="url(#p4dc94feb3b)" fill="none" stroke="#d62728" stroke-linecap="square" stroke-width="1.5"/>
<path d="m272.16 81v-72" fill="none" stroke="transparent" stroke-linecap="square"/>
<path d="m341.28 81v-72" fill="none" stroke="transparent" stroke-linecap="square"/>
<path d="m272.16 81h69.12" fill="none" stroke="transparent" stroke-linecap="square"/>
<path d="m272.16 9h69.12" fill="none" stroke="transparent" stroke-linecap="square"/>
<path d="m349.92 81h69.12v-72h-69.12v72z" fill="transparent"/>
<defs>
<path id="f" d="m353.06-31.491v22.491h6.9818 6.9818 6.9818 6.9818 6.9818 6.9818 6.9818 6.9818 6.9818v-13.166l-6.9818-7.1314-6.9818 14.263-6.9818-10.423-6.9818 6.0343-6.9818-9.8743-6.9818 4.3886-6.9818-10.971-6.9818 18.103-6.9818-13.714z"/>
</defs>
<g clip-path="url(#pfceed726e3)">
<use y="90" fill="#1f77b4" xlink:href="#f"/>
</g>
<defs>
<path id="e" d="m353.06-56.726v25.234l6.9818 13.714 6.9818-18.103 6.9818 10.971 6.9818-4.3886 6.9818 9.8743 6.9818-6.0343 6.9818 10.423 6.9818-14.263 6.9818 7.1314v-19.2l-6.9818-3.2914-6.9818 7.68-6.9818 4.9371-6.9818-0.54857-6.9818-14.811-6.9818 9.8743-6.9818-3.84-6.9818 6.5829-6.9818-21.943z"/>
</defs>
<g clip-path="url(#pfceed726e3)">
<use y="90" fill="#ff7f0e" xlink:href="#e"/>
</g>
<defs>
<path id="g" d="m353.06-77.571v20.846l6.9818 21.943 6.9818-6.5829 6.9818 3.84 6.9818-9.8743 6.9818 14.811 6.9818 0.54857 6.9818-4.9371 6.9818-7.68 6.9818 3.2914v-17.554l-6.9818-5.4857-6.9818 14.811-6.9818 8.7771-6.9818 1.6457-6.9818-11.52-6.9818 1.0971-6.9818-8.2286-6.9818 1.6457-6.9818-21.394z"/>
</defs>
<g clip-path="url(#pfceed726e3)">
<use y="90" fill="#2ca02c" xlink:href="#g"/>
</g>
<path d="m349.92 81v-72" fill="none" stroke="transparent" stroke-linecap="square"/>
<path d="m419.04 81v-72" fill="none" stroke="transparent" stroke-linecap="square"/>
<path d="m349.92 81h69.12" fill="none" stroke="transparent" stroke-linecap="square"/>
<path d="m349.92 9h69.12" fill="none" stroke="transparent" stroke-linecap="square"/>
<defs>
<path id="i" d="m18.109 8.2031v-29h-9.0312v75.484h9.0312v-8.2969q2.8438 4.875 7.1562 7.2344 4.3281 2.375 10.328 2.375 9.9688 0 16.188-7.9062 6.2344-7.9062 6.2344-20.797t-6.2344-20.812q-6.2188-7.9062-16.188-7.9062-6 0-10.328 2.375-4.3125 2.375-7.1562 7.25m30.578 19.094q0 9.9062-4.0781 15.547t-11.203 5.6406q-7.1406 0-11.219-5.6406t-4.0781-15.547 4.0781-15.547 11.219-5.6406q7.125 0 11.203 5.6406t4.0781 15.547" fill="rgba(255,255,255,0.8)"/>
<path id="c" d="m34.281 27.484q-10.891 0-15.094-2.4844t-4.2031-8.5q0-4.7812 3.1562-7.5938 3.1562-2.7969 8.5625-2.7969 7.4844 0 12 5.2969t4.5156 14.078v2h-8.9375zm17.922 3.7188v-31.203h-8.9844v8.2969q-3.0781-4.9688-7.6719-7.3438t-11.234-2.375q-8.3906 0-13.359 4.7188-4.9531 4.7188-4.9531 12.625 0 9.2188 6.1719 13.906 6.1875 4.6875 18.438 4.6875h12.609v0.89062q0 6.2031-4.0781 9.5938t-11.453 3.3906q-4.6875 0-9.1406-1.125-4.4375-1.125-8.5312-3.375v8.3125q4.9219 1.9062 9.5625 2.8438 4.6406 0.95312 9.0312 0.95312 11.875 0 17.734-6.1562 5.8594-6.1406 5.8594-18.641" fill="rgba(255,255,255,0.8)"/>
<path id="j" d="m54.891 33.016v-33.016h-8.9844v32.719q0 7.7656-3.0312 11.609-3.0312 3.8594-9.0781 3.8594-7.2812 0-11.484-4.6406-4.2031-4.625-4.2031-12.641v-30.906h-9.0312v54.688h9.0312v-8.5q3.2344 4.9375 7.5938 7.375 4.375 2.4375 10.094 2.4375 9.4219 0 14.25-5.8281 4.8438-5.8281 4.8438-17.156" fill="rgba(255,255,255,0.8)"/>
<path id="k" d="m45.406 46.391v29.594h8.9844v-75.984h-8.9844v8.2031q-2.8281-4.875-7.1562-7.25-4.3125-2.375-10.375-2.375-9.9062 0-16.141 7.9062-6.2188 7.9219-6.2188 20.812t6.2188 20.797q6.2344 7.9062 16.141 7.9062 6.0625 0 10.375-2.375 4.3281-2.3594 7.1562-7.2344m-30.609-19.094q0-9.9062 4.0781-15.547t11.203-5.6406 11.219 5.6406q4.1094 5.6406 4.1094 15.547t-4.1094 15.547q-4.0938 5.6406-11.219 5.6406t-11.203-5.6406-4.0781-15.547" fill="rgba(255,255,255,0.8)"/>
<path id="h" d="m44.281 53.078v-8.5q-3.7969 1.9531-7.9062 2.9219-4.0938 0.98438-8.5 0.98438-6.6875 0-10.031-2.0469t-3.3438-6.1562q0-3.125 2.3906-4.9062t9.625-3.3906l3.0781-0.6875q9.5625-2.0469 13.594-5.7812t4.0312-10.422q0-7.625-6.0312-12.078-6.0312-4.4375-16.578-4.4375-4.3906 0-9.1562 0.85938t-10.031 2.5625v9.2812q4.9844-2.5938 9.8125-3.8906 4.8281-1.2812 9.5781-1.2812 6.3438 0 9.75 2.1719 3.4219 2.1719 3.4219 6.125 0 3.6562-2.4688 5.6094-2.4531 1.9531-10.812 3.7656l-3.125 0.73438q-8.3438 1.75-12.062 5.3906-3.7031 3.6406-3.7031 9.9844 0 7.7188 5.4688 11.906 5.4688 4.2031 15.531 4.2031 4.9688 0 9.3594-0.73438 4.4062-0.71875 8.1094-2.1875" fill="rgba(255,255,255,0.8)"/>
</defs>
<g transform="translate(21.6 45) scale(.4 -.4)">
<use xlink:href="#i"/>
<use x="63.4766" xlink:href="#c"/>
<use x="124.756" xlink:href="#j"/>
<use x="188.135" xlink:href="#k"/>
<use x="251.611" xlink:href="#c"/>
<use x="312.891" xlink:href="#h"/>
</g>
<defs>
<path id="q" d="m8.4062-14.312q2.0938-3.6094 7.3125-3.6094 4.7344 0 8.2031 3.3281 3.4688 3.3125 5.5938 8.0312 2.125 4.7031 3.2969 9.6406-4.4375-4.2031-9.625-4.2031-3.9531 0-6.7344 1.3594-2.7812 1.375-4.3281 4.0781-1.5312 2.7188-1.5312 6.5781 0 3.2656 0.875 6.7031 0.89062 3.4531 2.4688 7.6719 1.5938 4.2344 2.7656 7.3594 1.3125 3.6562 1.3125 6 0 2.9844-2.1875 2.9844-3.9688 0-6.5312-4.0781t-3.7812-9.1094q-0.1875-0.64062-0.82812-0.64062h-1.1719q-0.82812 0-0.82812 0.9375v0.28125q1.6094 5.9688 4.9219 10.578 3.3281 4.6094 8.4062 4.6094 3.5625 0 6.0312-2.3438t2.4688-5.9531q0-1.8594-0.82812-3.9062-0.4375-1.2188-2-5.3281-1.5625-4.0938-2.4062-6.7812-0.82812-2.6875-1.3594-5.2812-0.53125-2.5781-0.53125-5.1719 0-3.3125 1.4062-5.6094 1.4219-2.2969 4.5-2.2969 6.2031 0 11.125 7.5625l7.5781 30.812q0.32812 1.3281 1.5469 2.2656 1.2344 0.95312 2.6406 0.95312 1.2188 0 2.125-0.78125t0.90625-2.0469q0-0.57812-0.09375-0.78125l-9.9219-39.797q-1.3125-5.125-4.8281-9.8125t-8.4688-7.5469-10.328-2.8594q-2.5938 0-5.1406 1.0156-2.5312 1-4.0938 3t-1.5625 4.6875q0 2.7344 1.6094 4.7344 1.625 2 4.2969 2 1.625 0 2.7188-1t1.0938-2.6094q0-2.2969-1.7188-4-1.7031-1.7188-3.9844-1.7188-0.10938 0.046875-0.20312 0.078125-0.09375 0.015625-0.1875 0.015625"/>
<path id="a" d="m7.8125 7.1719q0 1.8594 0.78125 3.9062l8.1094 21.547q1.3125 3.6562 1.3125 6 0 2.9844-2.1875 2.9844-3.9688 0-6.5312-4.0781t-3.7812-9.1094q-0.1875-0.64062-0.82812-0.64062h-1.1719q-0.82812 0-0.82812 0.9375v0.28125q1.6094 5.9688 4.9219 10.578 3.3281 4.6094 8.4062 4.6094 3.5625 0 6.0312-2.3438t2.4688-5.9531q0-1.8594-0.82812-3.9062l-8.1094-21.484q-1.375-3.3281-1.375-6 0-2.9844 2.2969-2.9844 3.9062 0 6.5156 4.1719 2.625 4.1719 3.6875 9.0156 0.20312 0.57812 0.78125 0.57812h1.2344q0.39062 0 0.625-0.26562 0.25-0.26562 0.25-0.60938 0-0.09375-0.09375-0.29688-1.375-5.6562-4.7656-10.453-3.3906-4.7812-8.4219-4.7812-3.5156 0-6.0156 2.4219-2.4844 2.4219-2.4844 5.875m11.281 53.422q0 2.1094 1.75 3.8125 1.7656 1.7031 3.8594 1.7031 1.7188 0 2.8125-1.0469t1.0938-2.6562q0-2.25-1.7812-3.9375t-3.9219-1.6875q-1.6094 0-2.7188 1.0938-1.0938 1.1094-1.0938 2.7188"/>
<path id="b" d="m6.2031 8.1094q0 1.4688 0.29688 2.7812l7.2188 28.703h-10.5q-1.0156 0-1.0156 1.3281 0.39062 2.1875 1.3125 2.1875h11.078l4.0156 16.312q0.39062 1.3281 1.5625 2.25t2.625 0.92188q1.2812 0 2.125-0.76562 0.85938-0.75 0.85938-2.0156 0-0.29688-0.03125-0.46875-0.015625-0.15625-0.0625-0.35938l-4-15.875h10.297q1.0312 0 1.0312-1.3125-0.0625-0.25-0.20312-0.84375-0.14062-0.57812-0.39062-0.96875t-0.73438-0.39062h-10.891l-7.1719-28.906q-0.73438-2.8281-0.73438-4.875 0-4.2969 2.9375-4.2969 4.3906 0 7.7812 4.125t5.2031 9.0625q0.39062 0.57812 0.78125 0.57812h1.2188q0.39062 0 0.625-0.26562 0.25-0.26562 0.25-0.60938 0-0.20312-0.09375-0.29688-2.2031-6.0469-6.4062-10.641-4.1875-4.5938-9.6094-4.5938-3.9531 0-6.6719 2.5781-2.7031 2.5938-2.7031 6.6562"/>
<path id="m" d="m7.5156 13.281q-0.82812 0-1.375 0.625-0.53125 0.64062-0.53125 1.375 0 0.82812 0.53125 1.4062 0.54688 0.59375 1.375 0.59375h62.797q0.73438 0 1.2656-0.59375 0.54688-0.57812 0.54688-1.4062 0-0.73438-0.54688-1.375-0.53125-0.625-1.2656-0.625h-62.797zm0 19.438q-0.82812 0-1.375 0.57812-0.53125 0.59375-0.53125 1.4219 0 0.73438 0.53125 1.3594 0.54688 0.64062 1.375 0.64062h62.797q0.73438 0 1.2656-0.64062 0.54688-0.625 0.54688-1.3594 0-0.82812-0.54688-1.4219-0.53125-0.57812-1.2656-0.57812h-62.797z"/>
<path id="p" d="m2.6875-19.391q-0.29688 0-0.54688 0.34375-0.23438 0.34375-0.23438 0.64062l15.375 61.812q1.3281 4.9844 3.8594 9.6719 2.5469 4.6875 6.375 8.7188t8.4219 6.375 9.7656 2.3438q3.7188 0 6.7188-1.6406t4.7344-4.5938 1.7344-6.6562q0-3.5781-1.375-6.8281-1.3594-3.2344-3.8125-6.0469-2.4375-2.8125-5.2188-4.5625 1.6094-1.0312 2.875-2.625 1.2812-1.5781 2.0625-3.3125t1.2188-3.8594 0.4375-3.9688q0-5.125-2.2031-10.109-2.1875-4.9844-5.9844-9.0469-3.7812-4.0469-8.6719-6.4219-4.875-2.3594-10-2.3594-5.6094 0-10.109 3.0781-4.4844 3.0781-6.1875 8.3438l-7.2344-28.703q0-0.59375-0.78125-0.59375h-1.2188zm25.734 20.609q4.4844 0 8.125 2.9531t6 7.4219q2.375 4.4688 3.6094 9.4688 1.25 5.0156 1.25 9.1094 0 5.0781-2.9219 8.0156-3.4219-1.2656-6.6875-1.2656-7.9062 0-7.9062 2.6719 0 3.5156 9.0312 3.5156 3.2188 0 5.9062-1.0156 2.1406 1.6562 3.8906 4.875 1.7656 3.2344 2.6719 6.75t0.90625 6.5781q0 3.2812-1.7344 5.4531t-5.0469 2.1719q-6.1094 0-11.359-3.7656-5.25-3.75-8.8594-9.5-3.6094-5.7344-5.1719-11.828l-5.5312-22.125q-0.53125-2.2969-0.67188-5.125 0-6.25 4.0938-10.312 4.1094-4.0469 10.406-4.0469m4.4844 38.672q1.5156-0.39062 4.9844-0.39062 1.7031 0 3.4219 0.59375-0.09375 0.09375-0.39062 0.09375-1.0781 0.29688-2.2969 0.29688-4.5469 0-5.7188-0.59375"/>
<path id="l" d="m3.5156 5.4219q-0.64062 0.1875-0.64062 0.96875l12.219 45.422q0.57812 1.8438 1.9844 2.9688 1.4219 1.125 3.2344 1.125 2.3438 0 4.125-1.5469 1.7812-1.5312 1.7812-3.875 0-1.0156-0.53125-2.2969l-18.062-43.203q-0.34375-0.6875-0.9375-0.6875-0.53125 0-1.6875 0.48438-1.1406 0.5-1.4844 0.64062"/>
<path id="r" d="m7.8125 2.875q1.7656-1.3594 4.9844-1.3594 3.125 0 5.5156 3t3.2656 6.5625l4.5469 17.734q1.0781 4.8281 1.0781 6.5938 0 2.4844-1.3906 4.3438t-3.8906 1.8594q-3.1719 0-5.9531-1.9844t-4.6875-5.0312-2.6875-6.1719q-0.1875-0.64062-0.78125-0.64062h-1.2188q-0.78125 0-0.78125 0.9375v0.28125q0.96875 3.7188 3.3125 7.25 2.3438 3.5469 5.7344 5.7344 3.4062 2.2031 7.2656 2.2031 3.6562 0 6.6094-1.9531t4.1719-5.3125q1.7188 3.0625 4.375 5.1562 2.6562 2.1094 5.8281 2.1094 2.1562 0 4.3906-0.76562 2.25-0.75 3.6719-2.3125t1.4219-3.9062q0-2.5312-1.6406-4.375-1.6406-1.8281-4.1719-1.8281-1.6094 0-2.6875 1.0312t-1.0781 2.5938q0 2.0938 1.4375 3.6719 1.4531 1.5938 3.4531 1.8906-1.8125 1.4219-4.9844 1.4219-3.2188 0-5.5938-2.9844-2.3594-2.9844-3.3438-6.6406l-4.3906-17.672q-1.0781-4.0156-1.0781-6.5938 0-2.5469 1.4375-4.375t3.8438-1.8281q4.6875 0 8.3594 4.125 3.6875 4.125 4.8594 9.0625 0.20312 0.57812 0.78125 0.57812h1.2344q0.39062 0 0.625-0.26562 0.25-0.26562 0.25-0.60938 0-0.09375-0.09375-0.29688-1.4219-5.9531-5.9688-10.594-4.5312-4.6406-10.25-4.6406-3.6562 0-6.6094 1.9688-2.9531 1.9844-4.1875 5.3594-1.5625-2.9375-4.3281-5.1406-2.75-2.1875-5.875-2.1875-2.1406 0-4.4219 0.76562-2.2656 0.75-3.6875 2.3125-1.4062 1.5625-1.4062 3.9531 0 2.3438 1.625 4.2656 1.6406 1.9375 4.0938 1.9375 1.6562 0 2.7812-1t1.125-2.6094q0-2.1094-1.4062-3.6719-1.3906-1.5625-3.4844-1.9531"/>
<path id="d" d="m7.5156 23q-0.82812 0-1.375 0.625-0.53125 0.64062-0.53125 1.375t0.53125 1.3594q0.54688 0.64062 1.375 0.64062h29.406v29.5q0 0.78125 0.57812 1.2812 0.59375 0.51562 1.4219 0.51562 0.73438 0 1.3594-0.51562 0.64062-0.5 0.64062-1.2812v-29.5h29.391q0.73438 0 1.2656-0.64062 0.54688-0.625 0.54688-1.3594t-0.54688-1.375q-0.53125-0.625-1.2656-0.625h-29.391v-29.5q0-0.78125-0.64062-1.2812-0.625-0.51562-1.3594-0.51562-0.82812 0-1.4219 0.51562-0.57812 0.5-0.57812 1.2812v29.5h-29.406z"/>
<path id="n" d="m2.7812-18.797q0 0.57812 0.09375 0.78125l14.703 59.031q0.4375 1.4219 1.5781 2.2969 1.1562 0.875 2.625 0.875 1.2656 0 2.1406-0.76562 0.89062-0.75 0.89062-2.0156 0-0.29688-0.03125-0.46875t-0.078125-0.35938l-5.9062-23.391q-0.96875-4.1562-0.96875-7.1719 0-3.7188 1.75-6.1094 1.7656-2.3906 5.3281-2.3906 7.2656 0 12.797 9.0781 0.046875 0.09375 0.0625 0.14062 0.03125 0.0625 0.03125 0.15625l7.2188 29q0.34375 1.3281 1.5625 2.2656 1.2188 0.95312 2.6406 0.95312 1.1719 0 2.0781-0.78125t0.90625-2.0469q0-0.57812-0.10938-0.78125l-7.1719-28.812q-0.73438-2.8281-0.73438-4.875 0-4.2969 2.9375-4.2969 3.125 0 4.7031 3.8594 1.5938 3.8594 2.7656 9.3281 0.1875 0.57812 0.82812 0.57812h1.1719q0.39062 0 0.65625-0.3125t0.26562-0.65625q-1.75-6.9844-3.8281-11.219-2.0781-4.2188-6.7656-4.2188-3.3125 0-5.875 1.9062t-3.3438 5.125q-2.5-3.125-5.8438-5.0781t-7.0469-1.9531q-6.25 0-9.8281 2.9375l-5.0781-20.219q-0.28125-1.4219-1.4531-2.2969t-2.6406-0.875q-1.2188 0-2.125 0.76562-0.90625 0.75-0.90625 2.0156"/>
<path id="o" d="m12.312 14.109q0-3.3594 1.2188-6.25 1.2188-2.875 3.6719-4.6094 2.4688-1.7344 5.7969-1.7344 2.25 0 4.7812 0.96875 2.5469 0.98438 4.7188 2.1562t2.2188 1.1719q0.53125 0 0.84375-0.60938 0.32812-0.60938 0.32812-1.2031 0-0.53125-0.29688-0.67188-6.25-4.4531-12.688-4.4531-5.2812 0-9.5312 2.4688t-6.5625 6.8594-2.3125 9.625q0 5.1719 2.0938 9.8281 2.0938 4.6719 5.7969 8.1406 3.7188 3.4688 8.4062 5.3906t9.8125 1.9219h5.6719q1.5156 0 1.5156-1.5 0-0.84375-0.5625-1.4375-0.5625-0.57812-1.3438-0.57812h-5.4688q-4 0-7.25-1.7656-3.25-1.75-5.4531-4.875-2.1875-3.125-3.4062-7.0781h17.672q0.6875 0 1.0938-0.42188 0.42188-0.40625 0.42188-1.0312 0-0.84375-0.54688-1.4375-0.53125-0.57812-1.3594-0.57812h-18.219q-1.0625-5.1719-1.0625-8.2969"/>
</defs>
<g transform="translate(21.6 72) scale(.16 -.16)" fill="#5a89a4">
<use y="0.601562" xlink:href="#q"/>
<use transform="translate(49.023 -16.405) scale(.7)" xlink:href="#a"/>
<use transform="translate(73.12 -16.405) scale(.7)" xlink:href="#b"/>
<use x="122.315" y="0.601562" xlink:href="#m"/>
<use x="217.559" y="0.601562" xlink:href="#p"/>
<use transform="translate(285.88 38.866) scale(.7)" xlink:href="#l"/>
<use x="311.506" y="0.601562" xlink:href="#r"/>
<use transform="translate(368.59 -16.405) scale(.7)" xlink:href="#a"/>
<use transform="translate(392.68 -16.405) scale(.7)" xlink:href="#b"/>
<use x="441.877" y="0.601562" xlink:href="#d"/>
<use x="537.121" y="0.601562" xlink:href="#n"/>
<use transform="translate(597.33 -16.405) scale(.7)" xlink:href="#a"/>
<use x="645.359" y="0.601562" xlink:href="#d"/>
<use x="740.603" y="0.601562" xlink:href="#o"/>
<use transform="translate(781.08 -16.405) scale(.7)" xlink:href="#a"/>
<use transform="translate(805.18 -16.405) scale(.7)" xlink:href="#b"/>
</g>
</g>
</svg>
