<svg xmlns="http://www.w3.org/2000/svg"
    viewBox="0 0 277 150">
 <g>
  <g id="g3">
   <path d="m212.711014,127.087997c33.868973,-33.867004 39.498001,-83.145996 12.571991,-110.070007c-26.921997,-26.92099 -76.19899,-21.292999 -110.066002,12.572006c-33.867004,33.866013 -24.069992,98.568008 -12.569992,110.069992c9.292999,9.292999 76.198967,21.292999 110.064003,-12.571991z" 
   fill="#f89939" id="path5"/>
   <path d="m73.741005,78.151016c-19.647995,-19.64801 -48.241989,-22.919006 -63.866989,-7.295013c-15.62101,15.622009 -12.355003,44.220001 7.296997,63.865021c19.651993,19.653992 57.194992,13.968994 63.862991,7.294983c5.395996,-5.386993 12.360992,-44.214996 -7.292999,-63.86499z" 
   fill="#3499cd" id="path7"/>
  </g>
  <g id="g9">
   <g id="g11">
    <path d="m141.533997,118.787003c-3.471008,3.195007 -6.515991,5.553009 -9.132996,7.067993c-2.617004,1.52002 -5.112999,2.279022 -7.487999,2.279022c-2.73201,0 -4.935989,-1.059021 -6.606995,-3.178009c-1.673996,-2.121002 -2.507996,-4.964996 -2.507996,-8.542999c0,-5.360992 1.162003,-11.796997 3.485992,-19.300995c2.320007,-7.51001 5.145004,-14.430023 8.462997,-20.761017l9.729012,-3.60199c0.304993,-0.10199 0.536987,-0.153992 0.690979,-0.153992c0.738007,0 1.348022,0.543976 1.81601,1.626984c0.472992,1.088013 0.710999,2.550018 0.710999,4.388c0,5.209015 -1.199005,10.252014 -3.60199,15.128998c-2.402008,4.878998 -6.153992,10.085999 -11.260002,15.627014c-0.205002,2.656006 -0.307007,4.47998 -0.307007,5.47699c0,2.222992 0.408005,3.981995 1.225006,5.285004c0.818008,1.304993 1.902,1.953003 3.256004,1.953003c1.381012,0 2.847992,-0.494019 4.406006,-1.48999c1.554993,-0.998016 3.929993,-3.064026 7.120972,-6.207001l0,4.402985l0.001007,0zm-14.667992,-14.972992c3.241997,-3.605011 5.874992,-7.64801 7.890984,-12.121002c2.015991,-4.475006 3.02301,-8.324005 3.02301,-11.549011c0,-0.940002 -0.139008,-1.703979 -0.417999,-2.277985c-0.281006,-0.575012 -0.641022,-0.864014 -1.074005,-0.864014c-0.94101,0 -2.31601,2.35202 -4.117004,7.057007c-1.800995,4.70401 -3.569,11.290009 -5.304985,19.755005z" 
    fill="rgba(255,255,255,0.8)" id="path13"/>
    <path d="m170.186005,118.787003c-3.242004,3.195007 -6.152008,5.553009 -8.731995,7.067993c-2.580017,1.52002 -5.424011,2.279022 -8.541016,2.279022c-3.472992,0 -6.274994,-1.111023 -8.410004,-3.330017c-2.130981,-2.225006 -3.194977,-5.145996 -3.194977,-8.77301c0,-5.411987 1.875,-10.30899 5.632996,-14.687988c3.75,-4.381012 7.914001,-6.570007 12.483978,-6.570007c2.375,0 4.275024,0.615021 5.707001,1.839996c1.430023,1.22702 2.14502,2.834015 2.14502,4.826019c0,5.286987 -5.617004,9.574005 -16.85202,12.868988c1.02002,4.97702 3.688019,7.468994 8.004028,7.468994c1.685974,0 3.292999,-0.452972 4.823975,-1.356995c1.535004,-0.90799 3.844025,-2.921997 6.934021,-6.035004l0,4.402008l-0.001007,0zm-20.070007,-7.083984c6.535004,-1.840027 9.804993,-5.234009 9.804993,-10.188019c0,-2.450989 -0.894989,-3.675995 -2.679993,-3.675995c-1.686005,0 -3.292999,1.281006 -4.824005,3.850006c-1.53598,2.565002 -2.300995,5.901001 -2.300995,10.014008z" 
    fill="rgba(255,255,255,0.8)" id="path15"/>
    <path d="m211.09198,118.787003c-4.085999,3.881012 -7.01001,6.412018 -8.769989,7.588013c-1.762024,1.173981 -3.447021,1.759979 -5.057007,1.759979c-4.035004,0 -5.936005,-3.560974 -5.707001,-10.685974c-2.553009,3.649994 -4.910004,6.343994 -7.067978,8.083984c-2.156021,1.735992 -4.383011,2.60199 -6.684036,2.60199c-2.243988,0 -4.151978,-1.050995 -5.724976,-3.15799c-1.572998,-2.106995 -2.354004,-4.69101 -2.354004,-7.757996c0,-3.828003 1.050995,-7.480011 3.156006,-10.955017c2.108978,-3.472992 4.80899,-6.278992 8.10199,-8.423981c3.293015,-2.14502 6.207001,-3.218994 8.731995,-3.218994c3.192993,0 5.428009,1.468994 6.704987,4.403992l7.828003,-4.325989l2.14801,0l-3.381012,11.220978c-1.735992,5.64502 -2.606995,9.514008 -2.606995,11.606995c0,2.195007 0.777008,3.292999 2.335999,3.292999c0.992004,0 2.089996,-0.528992 3.291016,-1.589996c1.200989,-1.061005 2.883011,-2.675995 5.053024,-4.845978l0,4.402985l0.001968,0zm-28.036987,2.109009c2.552994,0 4.958984,-2.175995 7.223007,-6.528992c2.259995,-4.355011 3.388992,-8.373016 3.388992,-12.049011c0,-1.428009 -0.322006,-2.546997 -0.957001,-3.350006c-0.641022,-0.807007 -1.496002,-1.207001 -2.56601,-1.207001c-2.554993,0 -4.97699,2.170013 -7.25798,6.511993c-2.285019,4.34201 -3.430008,8.338013 -3.430008,11.986023c0,1.380981 0.339996,2.497986 1.015991,3.353973c0.675995,0.856018 1.533997,1.28302 2.583008,1.28302z" 
    fill="rgba(255,255,255,0.8)" id="path17"/>
    <path d="m239.704987,118.787003c-6.409988,6.281006 -11.35199,9.424011 -14.824005,9.424011c-1.55899,0 -2.875,-0.65802 -3.944977,-1.968994c-1.069992,-1.31601 -1.609009,-2.945007 -1.609009,-4.887024c0,-3.599976 1.930008,-8.423981 5.784988,-14.47699c-1.890991,0.971008 -3.957016,1.644989 -6.204987,2.028992c-1.660019,3.063995 -4.266006,6.359009 -7.814011,9.878998l-0.878998,0l0,-3.442993c1.98999,-2.067993 3.790985,-4.290985 5.399994,-6.665985c-2.199005,-0.971008 -3.295013,-2.414001 -3.295013,-4.326019c0,-1.968994 0.668015,-4.067993 2.012024,-6.304993c1.339996,-2.231995 3.18399,-3.347992 5.534988,-3.347992c1.992004,0 2.986008,1.018005 2.986008,3.061981c0,1.609009 -0.57399,3.906006 -1.725006,6.89502c4.238022,-0.460999 7.94101,-3.701019 11.109024,-9.729004l3.484009,-0.153992l-3.562012,9.804993c-1.480011,4.136993 -2.437988,6.954987 -2.871017,8.446991c-0.433014,1.492004 -0.652008,2.81601 -0.652008,3.963013c0,1.074005 0.25,1.931976 0.746002,2.565979c0.498001,0.643005 1.170013,0.959015 2.012024,0.959015c0.917999,0 1.80101,-0.313995 2.642975,-0.936005c0.842026,-0.631012 2.732025,-2.359009 5.670013,-5.192993l0,4.403992l-0.001007,0z" 
    fill="rgba(255,255,255,0.8)" id="path19"/>
    <path d="m277.319,118.787003c-5.89801,6.234009 -10.957001,9.347992 -15.167999,9.347992c-1.710999,0 -3.089996,-0.599976 -4.136993,-1.800995c-1.049011,-1.199005 -1.572021,-2.807007 -1.572021,-4.824005c0,-2.731995 1.125,-6.90799 3.373016,-12.52298c1.199005,-3.014008 1.800995,-4.932007 1.800995,-5.746002c0,-0.817993 -0.321991,-1.22702 -0.957001,-1.22702c-0.356995,0 -0.832001,0.180023 -1.417999,0.535004c-0.539001,0.356995 -1.164001,0.859009 -1.878998,1.496002c-0.636993,0.585999 -1.354004,1.300995 -2.144989,2.141022c-0.69101,0.720978 -1.432007,1.536987 -2.218994,2.452972l-2.14801,2.492004c-0.942978,1.14801 -1.530991,2.359009 -1.759995,3.637024c-0.385025,2.169983 -0.639023,4.163971 -0.768021,5.978973c-0.078003,1.350006 -0.11499,3.174011 -0.11499,5.47702l-8.464996,1.987976c-0.278992,-3.446991 -0.421997,-6.013977 -0.421997,-7.696991c0,-4.110992 0.479004,-8.005981 1.437988,-11.682007c0.957016,-3.679993 2.494034,-7.813995 4.615021,-12.411987l9.343994,-1.799011c-1.964981,5.287018 -3.253998,9.447021 -3.867004,12.484009c4.187988,-4.671997 7.507996,-7.906006 9.968994,-9.708984c2.457001,-1.801025 4.644989,-2.697021 6.557007,-2.697021c1.298981,0 2.384979,0.490021 3.25,1.471008c0.868988,0.981995 1.300995,2.214996 1.300995,3.688995c0,2.449005 -1.097992,6.484009 -3.291016,12.104004c-1.507996,3.854004 -2.261993,6.355011 -2.261993,7.51001c0,1.536987 0.627014,2.304993 1.881012,2.304993c1.867004,0 4.890991,-2.464996 9.063995,-7.393005l0,4.401001z" 
    fill="rgba(255,255,255,0.8)" id="path21"/>
   </g>
  </g>
  <text y="81.9459" x="153.3328" fill="#ffffff" font-size="23.07px" font-family="Helvetica" id="text25">scikit</text>
 </g>
</svg>