<?xml version="1.0" encoding="UTF-8"?>
<svg width="422" height="85" version="1.1" viewBox="0 0 111.65 22.49" xmlns="http://www.w3.org/2000/svg" xmlns:cc="http://creativecommons.org/ns#" xmlns:dc="http://purl.org/dc/elements/1.1/" xmlns:rdf="http://www.w3.org/1999/02/22-rdf-syntax-ns#">
<defs>
<clipPath id="a">
<path d="m0 288h432v-288h-432z"/>
</clipPath>
</defs>
<metadata>
<rdf:RDF>
<cc:Work rdf:about="">
<dc:format>image/svg+xml</dc:format>
<dc:type rdf:resource="http://purl.org/dc/dcmitype/StillImage"/>
<dc:title/>
</cc:Work>
</rdf:RDF>
</metadata>
<g transform="translate(0 -274.51)">
<g transform="matrix(.35278 0 0 -.35278 -51.079 340.54)">
<g transform="translate(87.234 10.06)">
<g transform="translate(71.711 146.23)">
<path d="m0 0h-5.002v5.411h-1.758v-5.411h-5.002v-1.741l5.002 0.032v-5.443h1.758v5.453l5.002 0.03z" fill="#7199a6"/>
</g>
<g transform="translate(100.03 146.96)">
<path d="m0 0h-8.287v9.009h-3.258v-9.009h-8.288v-3.201h8.288v-9.007h3.258v9.007h8.287z" fill="#e8762c"/>
</g>
<g transform="translate(83.372 132.25)">
<path d="m0 0h-7.426v8.065h-2.81v-8.065h-7.424v-2.459h7.424v-8.067h2.81v8.067h7.426z" fill="#c71f36"/>
</g>
<g transform="translate(114.52 161.1)">
<path d="m0 0h-7.424v8.104h-2.813v-8.104h-7.424v-2.457h7.424v-8.029h2.813v8.029h7.424z" fill="#5b879b"/>
</g>
<g transform="translate(96.403 123.3)">
<path d="m0 0h-5.038v5.625h-2.4v-5.625h-5.037v-2.172h5.037v-5.626h2.4v5.626h5.038z" fill="#5c6692"/>
</g>
<g transform="translate(83.372 161.11)">
<path d="m0 0h-7.513v8.103h-2.634v-8.103h-7.513v-2.386h7.513v-8.101h2.634v8.101h7.513z" fill="#eb9128"/>
</g>
<g transform="translate(120.23 146.45)">
<path d="m0 0h-5.037v5.624h-2.401v-5.624h-5.037v-2.172h5.037v-5.625h2.401v5.625h5.037z" fill="#5c6692"/>
</g>
<g transform="translate(114.52 132.25)">
<path d="m0 0h-7.424v8.065h-2.813v-8.065h-7.424v-2.459h7.424v-8.067h2.813v8.067h7.424z" fill="#1e457e" fill-rule="evenodd"/>
</g>
<g transform="translate(89.268 174.96)">
<path d="m0 0v-5.519h-4.983v-1.67h4.983v-5.519h1.792v5.519h4.985v1.67h-4.985v5.519z" fill="#7199a6"/>
</g>
<g clip-path="url(#a)">
<g transform="translate(223.96 134.7)">
<path d="m0 0c3.893 0 6.125 2.231 6.125 6.205 0 3.908-2.245 6.253-5.746 6.253-1.524 0-2.968-0.527-4.026-1.01v-10.743c1.287-0.472 2.489-0.705 3.647-0.705m-3.647 15.294c1.963 0.772 3.706 1 4.822 1 5.566 0 9.327-3.912 9.327-10.046 0-6.362-3.952-10.08-10.921-10.08-2.417 0-4.787 0.467-7.277 1.311l-0.118 28.136h4.167z" fill="#fff" fill-opacity=".8" fill-rule="evenodd"/>
</g>
<path d="m251.78 164.27h4.125v-36.929h-4.125z" fill="#fff" fill-opacity=".8" fill-rule="evenodd"/>
<g transform="translate(283.35 130.79)">
<path d="m0 0c-6.353 0.616-9.448 5.082-9.27 10.377 0.192 5.718 3.893 9.776 9.536 9.776 5.92 0 9.349-4.38 9.055-10.841h-14.25c0.341-3.579 2.49-5.274 5.427-5.499 2.445-0.19 5.898 0.364 7.768 1.538v-3.936c-2.464-1.199-5.03-1.729-8.266-1.415m-4.672 12.347h9.47c-0.107 2.52-1.461 3.828-3.873 3.983-2.428 0.156-4.781-1.405-5.597-3.983" fill="#fff" fill-opacity=".8" fill-rule="evenodd"/>
</g>
<g transform="translate(353.83 134.04)">
<path d="m0 0c2.615 0 4.38 1.333 4.38 4.318v12.217h4.169v-12.731c0-4.255-3.303-6.851-8.551-6.851-5.244 0-8.547 2.596-8.547 6.851v12.731h4.166v-12.217c0-2.985 1.771-4.318 4.383-4.318" fill="#fff" fill-opacity=".8" fill-rule="evenodd"/>
</g>
<g transform="translate(188.28 134.7)">
<path d="m0 0c0.949 0.014 2.101 0.084 3.568 0.454l0.078 10.659c-1.335 0.915-2.622 1.345-4.024 1.345-3.502 0-5.746-2.345-5.746-6.253 0-3.974 2.232-6.26 6.124-6.205m0.419-3.832c-6.968-0.022-10.921 3.718-10.921 10.08 0 6.134 3.764 10.046 9.326 10.046 1.879 0 3.431-0.416 4.822-1.317v1.406h4.167l-0.118-18.904c-1.753-0.762-4.632-1.302-7.276-1.311" fill="#fff" fill-opacity=".8" fill-rule="evenodd"/>
</g>
<g transform="translate(319.95 134.7)">
<path d="m0 0c0.821 2e-3 2.098 0.084 3.568 0.454l0.077 10.659c-1.335 0.915-2.624 1.345-4.024 1.345-3.503 0-5.746-2.345-5.746-6.253 0-3.974 2.229-6.213 6.125-6.205m0.417-3.832c-6.969-0.022-10.92 3.718-10.92 10.08 0 6.134 3.761 10.046 9.325 10.046 1.877 0 3.43-0.416 4.823-1.317v1.406h4.166l-0.12-18.904c-1.75-0.762-4.629-1.302-7.274-1.311" fill="#fff" fill-opacity=".8" fill-rule="evenodd"/>
</g>
<g transform="translate(146.77 158.99)">
<path d="m0 0h4.126v-11.713h11.146v-3.848h-11.146v-12.7h-4.126v12.7h-11.147v3.848h11.147z" fill="#fff" fill-opacity=".8"/>
</g>
<g transform="translate(368.76 148.36)">
<path d="m0 0h0.32c0.364 0 0.668 0.133 0.668 0.474 0 0.241-0.174 0.482-0.668 0.482-0.141 0-0.241-0.01-0.32-0.022zm0-1.527h-0.438v2.758c0.231 0.033 0.451 0.067 0.78 0.067 0.42 0 0.692-0.09 0.858-0.209 0.163-0.122 0.252-0.308 0.252-0.572 0-0.362-0.242-0.582-0.537-0.672v-0.019c0.238-0.046 0.406-0.264 0.458-0.672 0.066-0.428 0.134-0.593 0.175-0.681h-0.459c-0.067 0.088-0.133 0.34-0.186 0.703-0.067 0.353-0.244 0.484-0.594 0.484h-0.309zm0.464 3.527c-1.089 0-1.98-0.935-1.98-2.087 0-1.176 0.891-2.099 1.989-2.099 1.101-0.013 1.978 0.923 1.978 2.088 0 1.163-0.877 2.098-1.978 2.098zm9e-3 0.384c1.351 0 2.429-1.097 2.429-2.471 0-1.397-1.078-2.483-2.438-2.483-1.355 0-2.452 1.086-2.452 2.483 0 1.374 1.097 2.471 2.452 2.471z" fill="#fff" fill-opacity=".8"/>
</g>
</g>
</g>
</g>
</g>
</svg>
