<?xml version="1.0" encoding="UTF-8" standalone="no"?>
<!-- Created with Inkscape (http://www.inkscape.org/) -->

<svg
   xmlns:dc="http://purl.org/dc/elements/1.1/"
   xmlns:cc="http://creativecommons.org/ns#"
   xmlns:rdf="http://www.w3.org/1999/02/22-rdf-syntax-ns#"
   xmlns:svg="http://www.w3.org/2000/svg"
   xmlns="http://www.w3.org/2000/svg"
   xmlns:sodipodi="http://sodipodi.sourceforge.net/DTD/sodipodi-0.dtd"
   xmlns:inkscape="http://www.inkscape.org/namespaces/inkscape"
   width="422"
   height="85"
   viewBox="0 0 111.65409 22.489598"
   version="1.1"
   id="svg445"
   inkscape:version="0.92.4 (5da689c313, 2019-01-14)"
   sodipodi:docname="drawing.svg">
  <defs
     id="defs439">
    <clipPath
       clipPathUnits="userSpaceOnUse"
       id="clipPath62">
      <path
         d="M 0,288 H 432 V 0 H 0 Z"
         id="path60"
         inkscape:connector-curvature="0" />
    </clipPath>
    <clipPath
       clipPathUnits="userSpaceOnUse"
       id="clipPath62-8">
      <path
         d="M 0,288 H 432 V 0 H 0 Z"
         id="path60-7"
         inkscape:connector-curvature="0" />
    </clipPath>
  </defs>
  <sodipodi:namedview
     id="base"
     pagecolor="#ffffff"
     bordercolor="#666666"
     borderopacity="1.0"
     inkscape:pageopacity="0.0"
     inkscape:pageshadow="2"
     inkscape:zoom="3.4245283"
     inkscape:cx="212"
     inkscape:cy="75"
     inkscape:document-units="px"
     inkscape:current-layer="layer1"
     showgrid="false"
     inkscape:snap-page="true"
     inkscape:window-width="1920"
     inkscape:window-height="1048"
     inkscape:window-x="-10"
     inkscape:window-y="-10"
     inkscape:window-maximized="1"
     units="px"
     showguides="false" />
  <metadata
     id="metadata442">
    <rdf:RDF>
      <cc:Work
         rdf:about="">
        <dc:format>image/svg+xml</dc:format>
        <dc:type
           rdf:resource="http://purl.org/dc/dcmitype/StillImage" />
        <dc:title></dc:title>
      </cc:Work>
    </rdf:RDF>
  </metadata>
  <g
     inkscape:label="Layer 1"
     inkscape:groupmode="layer"
     id="layer1"
     transform="translate(0,-274.5104)">
    <g
       id="g383"
       transform="matrix(0.35277777,0,0,-0.35277777,-51.07871,340.53858)">
      <g
         id="g867"
         transform="translate(87.233893,10.05988)">
        <g
           id="g52"
           transform="translate(71.7114,146.23)">
          <path
             d="M 0,0 H -5.002 V 5.411 H -6.76 V 0 h -5.002 v -1.741 l 5.002,0.032 v -5.443 h 1.758 v 5.453 L 0,-1.669 Z"
             style="fill:#7199a6;fill-opacity:1;fill-rule:nonzero;stroke:none"
             id="path54"
             inkscape:connector-curvature="0" />
        </g>
        <g
           id="g821">
          <g
             transform="translate(100.0332,146.9604)"
             id="g20">
            <path
               inkscape:connector-curvature="0"
               id="path22"
               style="fill:#e8762c;fill-opacity:1;fill-rule:nonzero;stroke:none"
               d="m 0,0 h -8.287 v 9.009 h -3.258 V 0 h -8.288 v -3.201 h 8.288 v -9.007 h 3.258 v 9.007 H 0 Z" />
          </g>
          <g
             transform="translate(83.3716,132.2529)"
             id="g24">
            <path
               inkscape:connector-curvature="0"
               id="path26"
               style="fill:#c71f36;fill-opacity:1;fill-rule:nonzero;stroke:none"
               d="m 0,0 h -7.426 v 8.065 h -2.81 V 0 h -7.424 v -2.459 h 7.424 v -8.067 h 2.81 v 8.067 H 0 Z" />
          </g>
          <g
             transform="translate(114.5229,161.104)"
             id="g28">
            <path
               inkscape:connector-curvature="0"
               id="path30"
               style="fill:#5b879b;fill-opacity:1;fill-rule:nonzero;stroke:none"
               d="m 0,0 h -7.424 v 8.104 h -2.813 V 0 h -7.424 v -2.457 h 7.424 v -8.029 h 2.813 v 8.029 H 0 Z" />
          </g>
          <g
             transform="translate(96.4028,123.3027)"
             id="g32">
            <path
               inkscape:connector-curvature="0"
               id="path34"
               style="fill:#5c6692;fill-opacity:1;fill-rule:nonzero;stroke:none"
               d="m 0,0 h -5.038 v 5.625 h -2.4 V 0 h -5.037 v -2.172 h 5.037 v -5.626 h 2.4 v 5.626 H 0 Z" />
          </g>
          <g
             transform="translate(83.3716,161.1055)"
             id="g36">
            <path
               inkscape:connector-curvature="0"
               id="path38"
               style="fill:#eb9128;fill-opacity:1;fill-rule:nonzero;stroke:none"
               d="m 0,0 h -7.513 v 8.103 h -2.634 V 0 h -7.513 v -2.386 h 7.513 v -8.101 h 2.634 v 8.101 H 0 Z" />
          </g>
          <g
             transform="translate(120.2271,146.4458)"
             id="g40">
            <path
               inkscape:connector-curvature="0"
               id="path42"
               style="fill:#5c6692;fill-opacity:1;fill-rule:nonzero;stroke:none"
               d="M 0,0 H -5.037 V 5.624 H -7.438 V 0 h -5.037 v -2.172 h 5.037 v -5.625 h 2.401 v 5.625 H 0 Z" />
          </g>
          <g
             transform="translate(114.5229,132.2529)"
             id="g44">
            <path
               inkscape:connector-curvature="0"
               id="path46"
               style="fill:#1e457e;fill-opacity:1;fill-rule:evenodd;stroke:none"
               d="m 0,0 h -7.424 v 8.065 h -2.813 V 0 h -7.424 v -2.459 h 7.424 v -8.067 h 2.813 v 8.067 H 0 Z" />
          </g>
          <g
             transform="translate(89.2681,174.9585)"
             id="g48">
            <path
               inkscape:connector-curvature="0"
               id="path50"
               style="fill:#7199a6;fill-opacity:1;fill-rule:nonzero;stroke:none"
               d="m 0,0 v -5.519 h -4.983 v -1.67 H 0 v -5.519 h 1.792 v 5.519 h 4.985 v 1.67 H 1.792 V 0 Z" />
          </g>
          <g
             id="g56">
            <g
               clip-path="url(#clipPath62-8)"
               id="g58">
              <g
                 transform="translate(147.3599,114.5625)"
                 id="g64" />
              <g
                 transform="translate(176.8052,116.957)"
                 id="g68" />
              <g
                 transform="translate(206.8071,114.1143)"
                 id="g72" />
              <g
                 transform="translate(237.1035,114.1143)"
                 id="g76" />
              <g
                 transform="translate(265.7783,114.0635)"
                 id="g80" />
              <g
                 transform="translate(295.7568,116.1973)"
                 id="g84" />
              <g
                 transform="translate(324.9453,117.4756)"
                 id="g88" />
              <g
                 transform="translate(351.4326,114.1143)"
                 id="g92" />
              <g
                 transform="translate(223.9561,134.7031)"
                 id="g96">
                <path
                   inkscape:connector-curvature="0"
                   id="path98"
                   style="fill:#ffffff;fill-opacity:1;fill-rule:evenodd;stroke:none"
                   d="m 0,0 c 3.893,0 6.125,2.231 6.125,6.205 0,3.908 -2.245,6.253 -5.746,6.253 -1.524,0 -2.968,-0.527 -4.026,-1.01 V 0.705 C -2.36,0.233 -1.158,0 0,0 m -3.647,15.294 c 1.963,0.772 3.706,1 4.822,1 5.566,0 9.327,-3.912 9.327,-10.046 0,-6.362 -3.952,-10.08 -10.921,-10.08 -2.417,0 -4.787,0.467 -7.277,1.311 l -0.118,28.136 h 4.167 z" />
              </g>
              <path
                 inkscape:connector-curvature="0"
                 id="path100"
                 style="fill:#ffffff;fill-opacity:1;fill-rule:evenodd;stroke:none"
                 d="m 251.78,164.268 h 4.125 v -36.929 h -4.125 z" />
              <g
                 transform="translate(283.3516,130.7949)"
                 id="g102">
                <path
                   inkscape:connector-curvature="0"
                   id="path104"
                   style="fill:#ffffff;fill-opacity:1;fill-rule:evenodd;stroke:none"
                   d="m 0,0 c -6.353,0.616 -9.448,5.082 -9.27,10.377 0.192,5.718 3.893,9.776 9.536,9.776 5.92,0 9.349,-4.38 9.055,-10.841 H -4.929 C -4.588,5.733 -2.439,4.038 0.498,3.813 2.943,3.623 6.396,4.177 8.266,5.351 V 1.415 C 5.802,0.216 3.236,-0.314 0,0 m -4.672,12.347 h 9.47 c -0.107,2.52 -1.461,3.828 -3.873,3.983 -2.428,0.156 -4.781,-1.405 -5.597,-3.983" />
              </g>
              <g
                 transform="translate(353.8252,134.043)"
                 id="g106">
                <path
                   inkscape:connector-curvature="0"
                   id="path108"
                   style="fill:#ffffff;fill-opacity:1;fill-rule:evenodd;stroke:none"
                   d="M 0,0 C 2.615,0 4.38,1.333 4.38,4.318 V 16.535 H 8.549 V 3.804 c 0,-4.255 -3.303,-6.851 -8.551,-6.851 -5.244,0 -8.547,2.596 -8.547,6.851 v 12.731 h 4.166 V 4.318 C -4.383,1.333 -2.612,0 0,0" />
              </g>
              <g
                 transform="translate(188.2783,134.7031)"
                 id="g110">
                <path
                   inkscape:connector-curvature="0"
                   id="path112"
                   style="fill:#ffffff;fill-opacity:1;fill-rule:evenodd;stroke:none"
                   d="m 0,0 c 0.949,0.014 2.101,0.084 3.568,0.454 l 0.078,10.659 c -1.335,0.915 -2.622,1.345 -4.024,1.345 -3.502,0 -5.746,-2.345 -5.746,-6.253 C -6.124,2.231 -3.892,-0.055 0,0 m 0.419,-3.832 c -6.968,-0.022 -10.921,3.718 -10.921,10.08 0,6.134 3.764,10.046 9.326,10.046 1.879,0 3.431,-0.416 4.822,-1.317 v 1.406 H 7.813 L 7.695,-2.521 C 5.942,-3.283 3.063,-3.823 0.419,-3.832" />
              </g>
              <g
                 transform="translate(319.9463,134.7031)"
                 id="g114">
                <path
                   inkscape:connector-curvature="0"
                   id="path116"
                   style="fill:#ffffff;fill-opacity:1;fill-rule:evenodd;stroke:none"
                   d="m 0,0 c 0.821,0.002 2.098,0.084 3.568,0.454 l 0.077,10.659 c -1.335,0.915 -2.624,1.345 -4.024,1.345 -3.503,0 -5.746,-2.345 -5.746,-6.253 C -6.125,2.231 -3.896,-0.008 0,0 m 0.417,-3.832 c -6.969,-0.022 -10.92,3.718 -10.92,10.08 0,6.134 3.761,10.046 9.325,10.046 1.877,0 3.43,-0.416 4.823,-1.317 v 1.406 H 7.811 L 7.691,-2.521 C 5.941,-3.283 3.062,-3.823 0.417,-3.832" />
              </g>
              <g
                 transform="translate(146.7681,158.9858)"
                 id="g118">
                <path
                   inkscape:connector-curvature="0"
                   id="path120"
                   style="fill:#ffffff;fill-opacity:1;fill-rule:nonzero;stroke:none"
                   d="m 0,0 h 4.126 v -11.713 h 11.146 v -3.848 H 4.126 v -12.7 H 0 v 12.7 h -11.147 v 3.848 H 0 Z" />
              </g>
              <g
                 transform="translate(368.7607,148.3579)"
                 id="g122">
                <path
                   inkscape:connector-curvature="0"
                   id="path124"
                   style="fill:#ffffff;fill-opacity:1;fill-rule:nonzero;stroke:none"
                   d="M 0,0 H 0.32 C 0.684,0 0.988,0.133 0.988,0.474 0.988,0.715 0.814,0.956 0.32,0.956 0.179,0.956 0.079,0.946 0,0.934 Z m 0,-1.527 h -0.438 v 2.758 c 0.231,0.033 0.451,0.067 0.78,0.067 0.42,0 0.692,-0.09 0.858,-0.209 C 1.363,0.967 1.452,0.781 1.452,0.517 1.452,0.155 1.21,-0.065 0.915,-0.155 V -0.174 C 1.153,-0.22 1.321,-0.438 1.373,-0.846 1.439,-1.274 1.507,-1.439 1.548,-1.527 H 1.089 C 1.022,-1.439 0.956,-1.187 0.903,-0.824 0.836,-0.471 0.659,-0.34 0.309,-0.34 H 0 Z M 0.464,2 c -1.089,0 -1.98,-0.935 -1.98,-2.087 0,-1.176 0.891,-2.099 1.989,-2.099 1.101,-0.013 1.978,0.923 1.978,2.088 C 2.451,1.065 1.574,2 0.473,2 Z m 0.009,0.384 c 1.351,0 2.429,-1.097 2.429,-2.471 0,-1.397 -1.078,-2.483 -2.438,-2.483 -1.355,0 -2.452,1.086 -2.452,2.483 0,1.374 1.097,2.471 2.452,2.471 z" />
              </g>
            </g>
          </g>
        </g>
      </g>
    </g>
  </g>
</svg>
