<!-- Generated by IcoMoon.io -->
<svg version="1.1" xmlns="http://www.w3.org/2000/svg" width="40" height="40" viewBox="0 0 1024 1024">
<title></title>
<g id="icomoon-ignore">
</g>
<path fill="#7c55ff" d="M301.469 461.618h71.316c15.434 0 28.115-12.688 28.115-28.072v-71.338c0-15.391-12.681-28.072-28.115-28.072h-71.316c-15.478 0-28.057 12.616-28.057 28.072v71.338c0 15.383 12.572 28.072 28.057 28.072z"></path>
<path fill="#7c55ff" d="M521.607 378.503h86c18.632 0 33.797-15.209 33.797-33.797v-85.978c0-18.603-15.165-33.775-33.797-33.775h-86c-18.588 0-33.797 15.172-33.797 33.775v85.978c0 18.581 15.216 33.797 33.797 33.797z"></path>
<path fill="#7c55ff" d="M585.523 667.232h-86.022c-18.581 0-33.797 15.172-33.797 33.804v86c0 18.494 15.216 33.753 33.797 33.753h86.022c18.537 0 33.797-15.26 33.797-33.753v-86c-0.007-18.545-15.26-33.804-33.797-33.804z"></path>
<path fill="#7c55ff" d="M734.36 592.231v-104.136c0-22.529-18.362-40.957-40.891-40.957h-104.136c-22.485 0-40.935 18.428-40.935 40.957v104.136c0 22.492 18.45 40.942 40.935 40.942h104.136c22.492 0 40.891-18.45 40.891-40.942z"></path>
<path fill="#7c55ff" d="M708.998 145.741h48.43c10.423 0 19.069-8.588 19.069-19.025v-48.415c0-10.445-8.609-19.025-19.069-19.025h-48.43c-10.379 0-19.025 8.58-19.025 19.025v48.408c0 10.452 8.646 19.033 19.025 19.033z"></path>
<path fill="#7c55ff" d="M882.235 511.934h-48.43c-10.474 0-19.025 8.58-19.025 19.076v48.408c0 10.474 8.558 19.076 19.025 19.076h48.43c10.423 0 18.982-8.522 18.982-19.076v-48.408c0-10.496-8.515-19.076-18.982-19.076z"></path>
<path fill="#7c55ff" d="M486.194 564.691c8.755 0 16.075-7.269 16.075-16.053v-40.913c0-8.872-7.32-16.097-16.075-16.097h-40.979c-0.801 0-1.216 0.772-2.127 0.932v-337.014l-314.332-155.546h-87.529v1024h87.529l314.325-388.882v-71.228c0.91 0.087 1.333 0.889 2.127 0.889h40.979v-0.087zM404.207 621.279l-236.57 292.641v-851.389l236.57 117.094v441.653z"></path>
<path fill="#7c55ff" d="M777.83 667.232h-40.979c-8.784 0-16.061 7.277-16.061 16.104v40.84c0 8.879 7.233 16.148 16.061 16.148h40.884c8.828 0 16.104-7.269 16.104-16.148v-40.84c0.044-8.828-7.226-16.104-16.010-16.104z"></path>
<path fill="#7c55ff" d="M927.832 197.704h-139.667c-30.199 0-54.862 24.707-54.862 54.913v139.616c0 30.133 24.663 54.913 54.862 54.913h139.667c30.242 0 54.949-24.772 54.949-54.913v-139.623c0-30.206-24.707-54.905-54.949-54.905z"></path>
</svg>
