<!-- Generated by IcoMoon.io -->
<svg version="1.1" xmlns="http://www.w3.org/2000/svg" width="50" height="50" viewBox="0 0 1024 1024">
<title></title>
<g id="icomoon-ignore">
</g>
<path stroke-linejoin="miter" stroke-linecap="butt" stroke-miterlimit="4" stroke-width="12" stroke="#7c55ff" fill="#7c55ff" d="M854.427 717.741v-133.884h-49.114v107.032c0 16.736-13.702 30.404-30.404 30.404h-608.26c-16.702 0-30.404-13.658-30.404-30.404v-364.85c0-16.78 13.702-30.437 30.404-30.437h347.993v-31.187h-392.562c-19.185 0-34.938 15.632-34.938 34.861v453.326l-87.142 104.627c0 28.904 23.41 52.358 52.27 52.358h836.975c28.86 0 52.27-23.454 52.27-52.358l-87.142-104.627v-34.861h0.055zM540.589 892.091h-139.533c-4.854 0-8.726-3.872-8.726-8.726s3.872-8.726 8.726-8.726h139.488c4.777 0 8.726 3.872 8.726 8.726-0.077 4.854-3.905 8.726-8.682 8.726zM327.032 857.229l26.609-31.938h234.286l26.609 31.938c0 0-287.505 0-287.505 0z"></path>
<path stroke-linejoin="miter" stroke-linecap="butt" stroke-miterlimit="4" stroke-width="12" stroke="#7c55ff" fill="#7c55ff" d="M413.534 521.67h72.844v72.767h-72.844v-72.767z"></path>
<path stroke-linejoin="miter" stroke-linecap="butt" stroke-miterlimit="4" stroke-width="12" stroke="#7c55ff" fill="#7c55ff" d="M459.173 421.631h72.8v72.844h-72.8v-72.844z"></path>
<path stroke-linejoin="miter" stroke-linecap="butt" stroke-miterlimit="4" stroke-width="12" stroke="#7c55ff" fill="#7c55ff" d="M530.793 512.987h72.8v72.8h-72.8v-72.8z"></path>
<path stroke-linejoin="miter" stroke-linecap="butt" stroke-miterlimit="4" stroke-width="12" stroke="#7c55ff" fill="#7c55ff" d="M588.678 392.011h86.391v86.391h-86.391v-86.391z"></path>
<path stroke-linejoin="miter" stroke-linecap="butt" stroke-miterlimit="4" stroke-width="12" stroke="#7c55ff" fill="#7c55ff" d="M710.868 127.21h86.391v86.391h-86.391v-86.391z"></path>
<path stroke-linejoin="miter" stroke-linecap="butt" stroke-miterlimit="4" stroke-width="12" stroke="#7c55ff" fill="#7c55ff" d="M554.126 283.445h86.391v86.391h-86.391v-86.391z"></path>
<path stroke-linejoin="miter" stroke-linecap="butt" stroke-miterlimit="4" stroke-width="12" stroke="#7c55ff" fill="#7c55ff" d="M689.907 246.488h123.382v123.382h-123.382v-123.382z"></path>
<path stroke-linejoin="miter" stroke-linecap="butt" stroke-miterlimit="4" stroke-width="12" stroke="#7c55ff" fill="#7c55ff" d="M782.058 395.21h149.241v149.285h-149.241v-149.285z"></path>
<path stroke-linejoin="miter" stroke-linecap="butt" stroke-miterlimit="4" stroke-width="12" stroke="#7c55ff" fill="#7c55ff" d="M838.552 114.424h185.448v185.448h-185.448v-185.448z"></path>
<path stroke-linejoin="miter" stroke-linecap="butt" stroke-miterlimit="4" stroke-width="12" stroke="#7c55ff" fill="#7c55ff" d="M667.634 488.309h86.391v86.391h-86.391v-86.391z"></path>
</svg>
