<svg xmlns="http://www.w3.org/2000/svg"
   viewBox="0 0 362.734 512">
   <g id="g3013">
   <polygon points="362.734,100.62 329.688,470.819 181.145,512 33.011,470.877 7.62939e-006,100.62" 
   fill="#264de4" id="polygon2989"/>
   <polygon points="301.397,447.246 329.637,130.894 181.367,130.894 181.367,480.523" 
   fill="#2965f1" id="polygon2991"/>
   <polygon points="75.677,268.217 79.747,313.627 181.367,313.627 181.367,268.217" 
   fill="#ebebeb" id="polygon2993"/>
   <polygon points="181.367,176.305 181.21,176.305 67.499,176.305 71.627,221.716 181.367,221.716" 
   fill="#ebebeb" id="polygon2995"/>
   <polygon points="181.367,433.399 181.367,386.153 181.168,386.206 130.594,372.55 127.361,336.333 102.786,336.333 81.776,336.333 88.138,407.634 181.158,433.457" 
   fill="#ebebeb" id="polygon2997"/>
   <path fill="rgba(255,255,255,0.8)" d="m85.367004,0l55,0l0,23l-32,0l0,23l32,0l0,23l-55,0l0,-69z" id="path2999"/>
   <path fill="rgba(255,255,255,0.8)" d="m151.367004,0l55,0l0,20l-32,0l0,4l32,0l0,46l-55,0l0,-21l32,0l0,-4l-32,0l0,-45z" id="path3001"/>
   <path fill="rgba(255,255,255,0.8)" d="m217.367004,0l55,0l0,20l-32,0l0,4l32,0l0,46l-55,0l0,-21l32,0l0,-4l-32,0l0,-45z" id="path3003"/>
   <polygon points="237.128,313.627 231.857,372.521 181.21,386.191 181.21,433.435 274.304,407.634 274.987,399.962 285.658,280.411 286.766,268.217 294.964,176.305 181.21,176.305 181.21,221.716 245.198,221.716 241.066,268.217 181.21,268.217 181.21,313.627" fill="#ffffff" id="polygon3005"/>
   </g>
</svg>