<?xml version="1.0" encoding="UTF-8" standalone="no"?>
<svg
   xmlns="http://www.w3.org/2000/svg"
   viewBox="0 0 1600 464"
   >

  <defs
     id="defs3734" />
  <path
     style="fill:rgba(255,255,255,0.8)"
     d="M 965.89175,361.8356 C 941.50528,356.74838 921.16158,341.30651 910.77594,320 c -7.54184,-15.47238 -9.629,-24.37593 -10.47067,-44.66666 -2.15839,-52.03343 20.23247,-89.8672 59.19078,-100.01455 10.3939,-2.70727 35.0551,-2.62871 44.48705,0.14172 23.9948,7.04793 41.0789,24.56512 49.2899,50.53949 2.2417,7.09131 3.1074,13.8174 3.6036,28 0.6026,17.2219 0.4539,18.84615 -1.9215,20.9855 -2.3482,2.1149 -7.6088,2.34942 -59.81895,2.66666 L 937.89179,278 l -0.42676,4.45331 c -0.52929,5.52331 4.23401,21.57163 8.32723,28.05569 11.27789,17.86532 33.11579,24.62522 63.26564,19.5838 7.4437,-1.24468 17.8315,-3.72473 23.0841,-5.51125 5.2526,-1.78652 10.611,-3.24821 11.9077,-3.24821 4.4021,0 6.5087,5.22676 6.5087,16.14896 0,12.72733 -1.3081,14.45569 -14.4505,19.09282 -20.4758,7.22459 -50.14535,9.44739 -70.21615,5.26048 z m 53.23795,-116.34788 c 1.2911,-2.08912 -2.0474,-16.52486 -5.3113,-22.96586 -6.5592,-12.94379 -19.98775,-19.5183 -36.96035,-18.09538 -11.6761,0.97888 -19.3314,4.69664 -26.8188,13.02446 -5.84403,6.5 -11.48079,19.33464 -11.48079,26.14129 v 3.07444 h 39.92129 c 21.95665,0 40.24915,-0.53053 40.64995,-1.17895 z m 264.0954,117.1496 C 1262.3059,358.43843 1248.124,346.58635 1241.7788,328 c -3.6439,-10.67362 -3.3261,-30.05245 0.6614,-40.32888 9.5554,-24.62576 42.3591,-39.63144 86.7499,-39.6827 5.5192,-0.007 13.254,-0.39812 17.1883,-0.87055 l 7.1534,-0.85896 -0.5492,-11.48623 c -0.6936,-14.50777 -4.2697,-21.80744 -13.1076,-26.75592 -5.3726,-3.00816 -7.4122,-3.34074 -19.9833,-3.25852 -12.6691,0.0829 -15.3308,0.56643 -28,5.08698 -18.2237,6.50252 -21.4875,7.03373 -24.1553,3.93157 -2.935,-3.41293 -9.4609,-20.44965 -8.6464,-22.57232 1.6281,-4.2428 24.2031,-12.80145 41.9764,-15.91411 20.0878,-3.518 40.0544,-2.19777 55.492,3.66927 11.0125,4.18525 23.1459,16.1298 27.0797,26.65823 4.9945,13.36701 5.5665,22.32988 5.5769,87.38214 0.012,74.29874 1.3935,68.33334 -15.8267,68.33334 -11.7421,0 -12.6777,-0.57664 -14.0605,-8.66667 -2.0566,-12.03209 -2.5131,-12.21621 -11.2315,-4.52985 -8.0044,7.0569 -14.0687,10.09269 -26.5257,13.27866 -10.5375,2.69503 -28.2018,3.25788 -38.3455,1.22184 z m 43.39,-33.14753 c 16.1813,-6.14784 24.995,-19.85369 26.2455,-40.81344 0.6748,-11.31047 0.5053,-12.70599 -1.6431,-13.53041 -4.2066,-1.61422 -42.1761,1.91802 -51.3972,4.7814 -16.5522,5.13984 -23.9286,13.73113 -23.9286,27.86978 0,11.9755 5.1278,19.7887 15.5403,23.67871 7.2031,2.69103 25.6074,1.65213 35.1831,-1.98604 z m 147.9433,33.62207 c -18.0267,-2.83915 -33.9153,-8.03255 -37,-12.09383 -1.0388,-1.36763 -1.6667,-6.58357 -1.6667,-13.84429 0,-16.74572 2.5967,-18.67611 17.0402,-12.66803 14.8908,6.19407 25.1754,8.10964 43.6265,8.12561 15.9743,0.0139 17.9256,-0.26186 24.8871,-3.51601 8.6693,-4.05251 11.8414,-8.09132 12.7606,-16.24692 1.4071,-12.48313 -6.2662,-18.84843 -38.8098,-32.1942 -36.939,-15.14821 -48.4887,-22.90953 -55.5678,-37.34085 -2.8217,-5.75256 -3.2642,-8.49488 -3.2274,-20 0.037,-11.73984 0.4592,-14.13008 3.5277,-20 7.0849,-13.55292 20.9812,-23.40583 39.6461,-28.11019 12.5291,-3.15788 47.457,-2.05724 61.8382,1.94864 24.8293,6.91616 25.7441,8.13964 18.6381,24.92619 -2.6813,6.33433 -5.608,11.79816 -6.5036,12.14185 -0.8957,0.34368 -7.2752,-1.18393 -14.1768,-3.39471 -17.1381,-5.48981 -28.8008,-7.31833 -41.5616,-6.51612 -18.456,1.16024 -27.4508,6.8971 -27.4508,17.5081 0,11.41089 6.0659,15.81362 40.6667,29.5167 26.6552,10.55632 38.0594,16.85278 45.8684,25.32455 7.4984,8.13485 10.8605,16.08544 11.741,27.76523 2.8204,37.41183 -25.8125,59.89013 -75.6094,59.35732 -8.4334,-0.0903 -16.8334,-0.4003 -18.6667,-0.68904 z m -801.33328,-4.44519 c -2.62813,-2.62813 -2.66666,-4.44444 -2.66666,-125.70332 0,-109.19984 0.23342,-123.36993 2.0756,-126.00001 1.91617,-2.73571 3.12932,-2.96334 15.79336,-2.96334 11.5962,0 14.05901,0.3771 15.92438,2.43832 1.97988,2.18775 2.20666,8.2167 2.20666,58.66667 0,34.64403 0.48648,56.22835 1.26732,56.22835 0.69702,0 27.49469,-26.4 59.55036,-58.66667 L 825.65919,104 h 18.97365 c 20.01144,0 20.59228,0.18192 20.59228,6.44953 0,1.22728 -21.00538,23.22821 -46.67864,48.89095 -25.67325,25.66274 -46.40498,47.3759 -46.07052,48.25147 0.33447,0.87557 12.74483,19.17556 27.57856,40.66667 14.83375,21.49109 36.25007,52.57472 47.59182,69.07472 11.34176,16.5 21.4368,30.94724 22.43341,32.10498 2.42025,2.81152 2.29273,7.22384 -0.2832,9.79978 -1.67679,1.67678 -5.35837,2.09524 -18.43424,2.09524 -15.24129,0 -16.52359,-0.20155 -19.08619,-3 -1.51094,-1.65 -10.83824,-15 -20.72733,-29.66667 C 801.6597,314 783.2615,286.69999 770.6639,268 c -12.5976,-18.7 -23.72083,-34 -24.71828,-34 -0.99746,0 -10.26762,8.28339 -20.60035,18.40753 l -18.78681,18.40754 v 42.59246 c 0,51.49764 1.34152,47.9258 -18,47.9258 -10.8889,0 -13.04094,-0.37427 -15.33334,-2.66666 z m 435.27268,-0.60607 -3.2727,-3.27272 v -86.12121 -86.12121 l 3.2727,-3.27272 c 2.962,-2.962 4.3501,-3.27274 14.6198,-3.27274 13.2119,0 13.2809,0.0625 14.5935,13.22533 0.4695,4.70726 1.1496,8.85476 1.5115,9.21666 0.3619,0.36191 4.5233,-3.05357 9.2474,-7.58996 5.3744,-5.16066 11.9892,-9.85828 17.6723,-12.55 8.907,-4.21875 9.4493,-4.30203 28.0161,-4.30203 12.8168,0 19.4439,0.51052 20.5136,1.58027 1.2182,1.21815 1.1759,4.52584 -0.1845,14.43413 -2.2492,16.38192 -3.9925,18.21744 -15.5317,16.35268 -16.2956,-2.6334 -32.7649,2.85044 -42.6644,14.20604 -6.2721,7.19464 -12.1781,19.88478 -13.7654,29.57747 -0.707,4.31717 -1.289,30.16539 -1.2932,57.44048 l -0.01,49.59105 -2.9634,2.07562 c -2.1384,1.49784 -6.2379,2.0756 -14.7272,2.0756 -10.7123,0 -12.0565,-0.29256 -15.0367,-3.27274 z"
     id="path3794" />
  <rect
     style="fill:rgba(255,255,255,0.8)"
     y="33.615189"
     x="43.811623"
     height="402.0361"
     width="360.80164"
     id="rect3825" />
  <g
     transform="translate(0,0.99237)"
     id="g3823">
    <g
       id="defs3734-3" />
    <path
       style="fill:#cf0202"
       d="M 0,232 V 7.992356 L 227.66667,8.329509 455.33333,8.666663 V 232 455.33333 L 227.66667,455.67049 0,456.00763 Z m 163.90323,125.82018 c 2.66404,-3.38677 2.76344,-5.03742 2.76344,-45.88772 v -42.37459 l 18.9547,-18.12737 c 10.42508,-9.97005 19.57508,-17.93821 20.33334,-17.70701 1.34445,0.40993 10.78553,14.12637 60.04529,87.23653 13.2,19.59112 25.05,36.68967 26.33333,37.99676 3.34234,3.40423 33.50236,3.54187 37.22835,0.16989 4.46705,-4.04262 5.86411,-1.4694 -25.03583,-46.11362 -65.98762,-95.33895 -72.62722,-105.25984 -71.9254,-107.4711 0.4079,-1.28516 21.15083,-22.34792 46.09542,-46.80612 25.38145,-24.88654 45.702,-45.85684 46.14452,-47.61997 1.56833,-6.24875 -0.95116,-7.11587 -20.676,-7.11587 h -18.17575 l -58.65531,58.66667 c -32.26041,32.26667 -59.10785,58.66667 -59.66098,58.66667 -0.55312,0 -1.01452,-24.75 -1.02534,-55 -0.0149,-41.61035 -0.42949,-55.8115 -1.70309,-58.33334 -1.61619,-3.20017 -2.24899,-3.34838 -15.8414,-3.71036 -11.56719,-0.30804 -14.54939,0.0144 -16.29692,1.7619 -1.93248,1.93248 -2.13893,14.15545 -2.13893,126.63476 v 124.49582 l 2.96334,2.07562 c 2.16102,1.51364 6.2863,2.0756 15.23656,2.0756 11.67086,0 12.40884,-0.17243 15.03666,-3.51315 z"
       id="path3796" />
  </g>
</svg>
